<?xml version="1.0" encoding="utf-8"?>
<!-- Generator: Adobe Illustrator 25.2.0, SVG Export Plug-In . SVG Version: 6.00 Build 0)  -->
<svg version="1.1" id="Layer_1" xmlns="http://www.w3.org/2000/svg" xmlns:xlink="http://www.w3.org/1999/xlink" x="0px" y="0px"
	 viewBox="0 0 633 300" style="enable-background:new 0 0 633 300;" xml:space="preserve">
<style type="text/css">
	.st0{fill:none;}
	.st1{fill:#FFFFFF;}
	.st2{font-family:'OpenSansCondensed-Light';}
	.st3{font-size:116px;}
	.st4{letter-spacing:-2;}
	.st5{font-family:'OpenSans-LightItalic';}
	.st6{font-size:21px;}
	.st7{font-family:'OpenSans-Bold';}
	.st8{font-size:22px;}
	.st9{fill:#231F20;stroke:#FFFFFF;stroke-width:3;stroke-miterlimit:10;}
	.st10{fill:none;stroke:#FFFFFF;stroke-width:11;stroke-miterlimit:10;}
	.st11{fill:none;stroke:#FFFFFF;stroke-width:6;stroke-miterlimit:10;}
	.st12{fill:none;stroke:#FFFFFF;stroke-width:2;stroke-miterlimit:10;}
	.st13{fill:none;stroke:#FFFFFF;stroke-width:0.5;stroke-miterlimit:10;}
	.st14{font-size:30px;}
</style>
<rect x="16.4" y="119.5" class="st0" width="600.7" height="188.4"/>
<text transform="matrix(0.9919 0 0 1 16.3472 207.6709)" class="st1 st2 st3 st4">Building Bridges:</text>
<rect x="479.8" y="273.6" class="st0" width="119.2" height="23.4"/>
<text transform="matrix(1 0 0 1 505.7734 290.3154)" class="st1 st5 st6">#2021alao</text>
<rect x="25.1" y="272.1" class="st0" width="512.8" height="42.9"/>
<text transform="matrix(1 0 0 1 24.1484 290.3179)" class="st1 st7 st8">Wednesday-Friday, October 27-29, 2021 </text>
<line class="st9" x1="25.5" y1="118.5" x2="607.5" y2="118.5"/>
<line class="st10" x1="318.5" y1="7.5" x2="318.5" y2="118.5"/>
<line class="st11" x1="28" y1="21" x2="28" y2="119"/>
<line class="st11" x1="604" y1="20" x2="604" y2="118"/>
<path class="st12" d="M28,22c0,0,147.1,94,290-1"/>
<line class="st13" x1="65.5" y1="40.5" x2="65.5" y2="118.5"/>
<line class="st13" x1="101.5" y1="52.5" x2="101.5" y2="119.5"/>
<line class="st13" x1="136.5" y1="59.5" x2="136.5" y2="118.5"/>
<line class="st13" x1="171.5" y1="62.5" x2="171.5" y2="118.5"/>
<line class="st13" x1="207.5" y1="60.5" x2="208.5" y2="118.5"/>
<line class="st13" x1="243.5" y1="54.5" x2="243.5" y2="119.5"/>
<line class="st13" x1="279.5" y1="41.5" x2="279.5" y2="118.5"/>
<path class="st12" d="M604,21c0,0-145,94-286-1"/>
<line class="st13" x1="354.5" y1="40" x2="354.5" y2="118"/>
<line class="st13" x1="390.5" y1="53" x2="390.5" y2="120"/>
<line class="st13" x1="425.5" y1="60" x2="425.5" y2="119"/>
<line class="st13" x1="460.5" y1="62" x2="460.5" y2="118"/>
<line class="st13" x1="496.5" y1="59" x2="497.5" y2="117"/>
<line class="st13" x1="532.5" y1="52" x2="532.5" y2="117"/>
<line class="st13" x1="568.5" y1="40" x2="568.5" y2="117"/>
<rect x="24" y="238.7" class="st0" width="593" height="65.3"/>
<text transform="matrix(1.0148 0 0 1 24.0298 262.7012)" class="st1 st2 st14">Dialogue, Deliberation &amp; Connection in Academic Libraries</text>
</svg>
