<?xml version="1.0" encoding="utf-8"?>
<!-- Generator: Adobe Illustrator 25.2.0, SVG Export Plug-In . SVG Version: 6.00 Build 0)  -->
<svg version="1.1" id="Layer_1" xmlns="http://www.w3.org/2000/svg" xmlns:xlink="http://www.w3.org/1999/xlink" x="0px" y="0px"
	 viewBox="0 0 633 453.7" style="enable-background:new 0 0 633 453.7;" xml:space="preserve">
<style type="text/css">
	.st0{fill:none;}
	.st1{enable-background:new    ;}
	.st2{fill:#FFFFFF;}
	.st3{fill:none;stroke:#FFFFFF;stroke-width:3;stroke-miterlimit:10;}
	.st4{fill:none;stroke:#FFFFFF;stroke-width:11;stroke-miterlimit:10;}
	.st5{fill:none;stroke:#FFFFFF;stroke-width:6;stroke-miterlimit:10;}
	.st6{fill:none;stroke:#FFFFFF;stroke-width:2;stroke-miterlimit:10;}
	.st7{fill:none;stroke:#FFFFFF;stroke-width:0.5;stroke-miterlimit:10;}
</style>
<rect x="16.4" y="178.7" class="st0" width="600.7" height="188.4"/>
<g class="st1">
	<path class="st2" d="M25.3,184.1H41c6.4,0,11.4,1.7,14.9,5s5.2,8.2,5.2,14.7c0,11.2-4.1,17.6-12.2,19.3v0.5c4.7,1,8.2,3.1,10.4,6.3
		c2.3,3.2,3.4,7.7,3.4,13.5c0,7.4-1.6,13.2-4.9,17.3c-3.3,4.2-7.8,6.2-13.7,6.2H25.3V184.1z M30.8,220.9h10.3c5.1,0,8.8-1.4,11-4.3
		c2.2-2.9,3.3-7.2,3.3-13c0-4.7-1.2-8.3-3.6-10.8c-2.4-2.5-6-3.7-10.8-3.7H30.8V220.9z M30.8,226v35.7h12.6
		c9.1,0,13.6-6.2,13.6-18.6c0-5.5-1.3-9.8-4-12.7c-2.7-3-6.4-4.4-11.2-4.4H30.8z"/>
	<path class="st2" d="M78.6,205.4v40.1c0,6.1,0.7,10.5,2.2,13.3c1.4,2.8,3.7,4.2,6.7,4.2c4.6,0,8-1.9,10.1-5.6
		c2.2-3.8,3.2-9.8,3.2-18.2v-33.8h5.3v61.5h-4.5l-0.7-8.6h-0.5c-1.3,3.1-3.1,5.5-5.4,7.2c-2.3,1.7-4.8,2.5-7.6,2.5
		c-4.9,0-8.5-1.8-10.8-5.3s-3.4-9.3-3.4-17.2v-40.1L78.6,205.4L78.6,205.4z"/>
	<path class="st2" d="M119.6,188.4c0-1.7,0.3-3,1-4c0.7-0.9,1.6-1.4,2.7-1.4c1,0,1.8,0.5,2.4,1.4s0.9,2.3,0.9,4
		c0,1.6-0.3,2.9-0.9,3.9s-1.4,1.4-2.4,1.4c-1.1,0-2-0.5-2.7-1.4C120,191.3,119.6,190,119.6,188.4z M125.8,266.9h-5.3v-61.5h5.3
		V266.9z"/>
	<path class="st2" d="M145.4,266.9h-5.3v-88.1h5.3V266.9z"/>
	<path class="st2" d="M174.7,268c-11.8,0-17.8-10.6-17.8-31.8c0-10.4,1.5-18.4,4.4-23.8c3-5.5,7.3-8.2,13.1-8.2
		c2.7,0,5.3,0.8,7.8,2.4s4.4,3.8,5.9,6.6h0.4l-0.2-6.9v-27.6h5.3v88.1h-4.4l-0.4-8.6h-0.5c-1.5,3.1-3.4,5.5-5.7,7.2
		C180.3,267.2,177.6,268,174.7,268z M175,263.3c4.3,0,7.6-2,9.9-6c2.3-4,3.5-9.8,3.5-17.6v-3.5c0-9.3-1.1-16.1-3.3-20.4
		c-2.2-4.3-5.6-6.5-10.2-6.5c-4.4,0-7.5,2.3-9.4,6.9c-1.9,4.6-2.9,11.3-2.9,20.1s1,15.5,3,20.1C167.4,261,170.6,263.3,175,263.3z"/>
	<path class="st2" d="M207.2,188.4c0-1.7,0.3-3,1-4c0.7-0.9,1.6-1.4,2.7-1.4c1,0,1.8,0.5,2.4,1.4c0.6,0.9,0.9,2.3,0.9,4
		c0,1.6-0.3,2.9-0.9,3.9c-0.6,1-1.4,1.4-2.4,1.4c-1.1,0-2-0.5-2.7-1.4C207.5,191.3,207.2,190,207.2,188.4z M213.3,266.9H208v-61.5
		h5.3V266.9z"/>
	<path class="st2" d="M255.2,266.9v-42.4c0-10.2-3-15.3-9-15.3c-4.6,0-7.9,1.9-10,5.7s-3.2,9.9-3.2,18.2v33.8h-5.3v-61.5h4.5
		l0.5,8.6h0.5c1.3-3.1,3.1-5.5,5.5-7.2s5-2.5,7.7-2.5c4.7,0,8.3,1.6,10.6,4.8c2.4,3.2,3.5,8.3,3.5,15.4V267L255.2,266.9L255.2,266.9
		z"/>
	<path class="st2" d="M306.5,205.4v3.8l-8.3,1c1.1,1.5,2,3.6,2.8,6.3c0.7,2.7,1.1,5.5,1.1,8.4c0,6-1.3,10.8-4,14.5
		s-6.2,5.6-10.6,5.6H286l-1.2-0.1c-1.8,1.3-3.2,2.6-4.2,3.9c-1,1.3-1.5,2.8-1.5,4.5s0.7,3.1,2,4c1.3,1,3.2,1.4,5.5,1.4h3.8
		c5.4,0,9.6,1.4,12.6,4.2c3,2.8,4.5,6.9,4.5,12.3c0,6-2,10.8-6,14.3s-9.3,5.3-15.9,5.3c-5.5,0-9.7-1.4-12.7-4.2
		c-3-2.8-4.4-6.9-4.4-12.1c0-3.9,1-7.1,2.9-9.9c1.9-2.7,5-4.9,9.2-6.5c-1.9-0.8-3.4-2-4.5-3.5s-1.7-3.2-1.7-5.3c0-1.8,0.6-3.5,1.8-5
		c1.2-1.5,3-3,5.2-4.7c-3.1-1.4-5.5-3.8-7.1-7s-2.4-7-2.4-11.3c0-6.5,1.4-11.7,4.1-15.5s6.5-5.7,11.2-5.7c2.5,0,4.7,0.4,6.4,1.2
		h12.9L306.5,205.4L306.5,205.4z M273.7,277.9c0,3.9,1,6.9,3,9.1s5,3.3,9.1,3.3c5,0,9-1.3,11.9-4c2.9-2.6,4.4-6.3,4.4-10.9
		c0-3.7-1-6.6-3-8.6s-4.9-3-8.7-3h-3.9c-3.7,0-6.7,1.3-9.1,3.9C275,270.3,273.7,273.7,273.7,277.9z M277,225.5c0,5,0.9,8.8,2.8,11.4
		c1.8,2.6,4.3,3.9,7.3,3.9c6.5,0,9.8-5.3,9.8-15.9c0-5.1-0.8-9.1-2.5-12s-4.1-4.3-7.3-4.3c-3.3,0-5.8,1.5-7.5,4.4
		S277,220.1,277,225.5z"/>
	<path class="st2" d="M334.8,184.1h15.7c6.4,0,11.4,1.7,14.9,5s5.2,8.2,5.2,14.7c0,11.2-4.1,17.6-12.2,19.3v0.5
		c4.7,1,8.2,3.1,10.4,6.3c2.3,3.2,3.4,7.7,3.4,13.5c0,7.4-1.6,13.2-4.9,17.3c-3.3,4.2-7.8,6.2-13.7,6.2h-18.9v-82.8H334.8z
		 M340.3,220.9h10.3c5.1,0,8.8-1.4,11-4.3c2.2-2.9,3.3-7.2,3.3-13c0-4.7-1.2-8.3-3.6-10.8s-6-3.7-10.8-3.7h-10.2L340.3,220.9
		L340.3,220.9z M340.3,226v35.7h12.6c9.1,0,13.6-6.2,13.6-18.6c0-5.5-1.3-9.8-4-12.7c-2.7-3-6.4-4.4-11.2-4.4H340.3z"/>
	<path class="st2" d="M399.8,204.2c1.9,0,3.7,0.3,5.3,0.8l-1.3,5.4c-1.3-0.6-2.7-0.8-4.2-0.8c-2.1,0-4,1.1-5.8,3.2
		c-1.8,2.1-3.2,5.1-4.2,8.9c-1,3.8-1.5,8-1.5,12.6v32.6h-5.3v-61.5h4.4l0.6,10.8h0.4C391.1,208.2,395,204.2,399.8,204.2z"/>
	<path class="st2" d="M411.6,188.4c0-1.7,0.3-3,1-4c0.7-0.9,1.6-1.4,2.7-1.4c1,0,1.8,0.5,2.4,1.4s0.9,2.3,0.9,4
		c0,1.6-0.3,2.9-0.9,3.9s-1.4,1.4-2.4,1.4c-1.1,0-2-0.5-2.7-1.4C411.9,191.3,411.6,190,411.6,188.4z M417.7,266.9h-5.3v-61.5h5.3
		V266.9z"/>
	<path class="st2" d="M446.9,268c-11.8,0-17.8-10.6-17.8-31.8c0-10.4,1.5-18.4,4.4-23.8c3-5.5,7.3-8.2,13.1-8.2
		c2.7,0,5.3,0.8,7.8,2.4s4.4,3.8,5.9,6.6h0.4l-0.2-6.9v-27.6h5.3v88.1h-4.4l-0.4-8.6h-0.5c-1.5,3.1-3.4,5.5-5.7,7.2
		C452.6,267.2,449.9,268,446.9,268z M447.3,263.3c4.3,0,7.6-2,9.9-6c2.3-4,3.5-9.8,3.5-17.6v-3.5c0-9.3-1.1-16.1-3.3-20.4
		c-2.2-4.3-5.6-6.5-10.2-6.5c-4.4,0-7.5,2.3-9.4,6.9c-1.9,4.6-2.9,11.3-2.9,20.1s1,15.5,3,20.1C439.7,261,442.9,263.3,447.3,263.3z"
		/>
	<path class="st2" d="M512.2,205.4v3.8l-8.3,1c1.1,1.5,2,3.6,2.8,6.3c0.7,2.7,1.1,5.5,1.1,8.4c0,6-1.3,10.8-4,14.5
		s-6.2,5.6-10.6,5.6h-1.3l-1.2-0.1c-1.8,1.3-3.2,2.6-4.2,3.9c-1,1.3-1.5,2.8-1.5,4.5s0.7,3.1,2,4c1.3,1,3.2,1.4,5.5,1.4h3.8
		c5.4,0,9.6,1.4,12.6,4.2c3,2.8,4.5,6.9,4.5,12.3c0,6-2,10.8-6,14.3s-9.3,5.3-15.9,5.3c-5.5,0-9.7-1.4-12.7-4.2
		c-3-2.8-4.4-6.9-4.4-12.1c0-3.9,1-7.1,2.9-9.9c1.9-2.7,5-4.9,9.2-6.5c-1.9-0.8-3.4-2-4.5-3.5s-1.7-3.2-1.7-5.3c0-1.8,0.6-3.5,1.8-5
		c1.2-1.5,3-3,5.2-4.7c-3.1-1.4-5.5-3.8-7.1-7s-2.4-7-2.4-11.3c0-6.5,1.4-11.7,4.1-15.5s6.5-5.7,11.2-5.7c2.5,0,4.7,0.4,6.4,1.2
		h12.7V205.4z M479.4,277.9c0,3.9,1,6.9,3,9.1s5,3.3,9.1,3.3c5,0,9-1.3,11.9-4c2.9-2.6,4.4-6.3,4.4-10.9c0-3.7-1-6.6-3-8.6
		s-4.9-3-8.7-3h-3.9c-3.7,0-6.7,1.3-9.1,3.9C480.7,270.3,479.4,273.7,479.4,277.9z M482.7,225.5c0,5,0.9,8.8,2.8,11.4
		c1.8,2.6,4.3,3.9,7.3,3.9c6.5,0,9.8-5.3,9.8-15.9c0-5.1-0.8-9.1-2.5-12s-4.1-4.3-7.3-4.3c-3.3,0-5.8,1.5-7.5,4.4
		S482.7,220.1,482.7,225.5z"/>
	<path class="st2" d="M537.2,268c-6.4,0-11.4-2.8-14.9-8.3c-3.5-5.5-5.2-13.2-5.2-23.1c0-10.5,1.5-18.5,4.6-24s7.5-8.3,13.3-8.3
		c5.1,0,9,2.4,12,7.3c2.9,4.9,4.4,11.4,4.4,19.6v5h-28.9c0.1,8.9,1.3,15.7,3.8,20.1c2.4,4.5,6.1,6.7,11.1,6.7
		c3.8,0,7.8-1.3,12.1-3.8v5.2C545.6,266.8,541.5,268,537.2,268z M534.8,209.1c-7.3,0-11.4,7.4-12.1,22.1h23.4c0-6.8-1-12.1-3.1-16.1
		C541.1,211.1,538.3,209.1,534.8,209.1z"/>
	<path class="st2" d="M587,251.5c0,5.2-1.3,9.2-4,12.1c-2.7,2.9-6.6,4.4-11.7,4.4c-2.8,0-5.2-0.4-7.3-1.1s-3.7-1.5-4.9-2.4v-6.3
		c1.4,1.4,3.2,2.5,5.5,3.4c2.3,0.8,4.6,1.3,7,1.3c3.1,0,5.6-1,7.4-3.1c1.8-2.1,2.7-4.9,2.7-8.3c0-2.7-0.6-5-1.9-6.9s-3.8-4-7.4-6.4
		c-4.2-2.6-7-4.8-8.5-6.3s-2.7-3.4-3.5-5.3c-0.8-2-1.3-4.3-1.3-7c0-4.4,1.5-8.1,4.4-11c3-2.9,6.7-4.3,11.3-4.3c4.9,0,9,1.2,12.3,3.5
		l-2.8,4.7c-3.1-2.1-6.3-3.1-9.8-3.1c-3.1,0-5.7,0.9-7.5,2.8c-1.9,1.9-2.8,4.3-2.8,7.4c0,2.7,0.6,5,1.9,6.8c1.3,1.8,4,4,8.1,6.7
		c4,2.7,6.8,4.8,8.3,6.4c1.5,1.6,2.6,3.4,3.3,5.3C586.7,246.7,587,248.9,587,251.5z"/>
	<path class="st2" d="M596.7,211.3c0-4,1.5-6,4.4-6s4.4,2,4.4,6c0,2.2-0.4,3.7-1.3,4.6c-0.9,0.9-1.9,1.4-3.1,1.4
		C598.2,217.4,596.7,215.3,596.7,211.3z M596.7,261.8c0-4,1.5-6.1,4.4-6.1c1.2,0,2.2,0.5,3.1,1.4c0.9,0.9,1.3,2.5,1.3,4.7
		c0,2.2-0.4,3.7-1.3,4.6c-0.9,0.9-1.9,1.4-3.1,1.4C598.2,267.8,596.7,265.8,596.7,261.8z"/>
</g>
<rect x="479.8" y="332.8" class="st0" width="119.2" height="23.4"/>
<g class="st1">
	<path class="st2" d="M509.8,344.1l1.2-4.1h-3l0.1-0.8h3.2l1.4-4.7h0.9l-1.4,4.7h3.7l1.4-4.7h0.9l-1.4,4.7h2.9l-0.1,0.8h-3.1
		l-1.2,4.1h3.1l-0.1,0.8H515l-1.4,4.6h-0.9l1.4-4.6h-3.7l-1.4,4.6h-0.9l1.4-4.6h-2.9l0.1-0.8H509.8z M510.6,344.1h3.7l1.2-4.1h-3.7
		L510.6,344.1z"/>
	<path class="st2" d="M528.7,349.5h-8.9l0.2-1.1l4.6-4.1c1.4-1.2,2.3-2.2,2.9-2.8c0.6-0.7,1-1.3,1.3-1.9s0.4-1.2,0.4-1.8
		c0-0.8-0.2-1.4-0.7-1.8s-1.1-0.7-2-0.7c-1.2,0-2.3,0.4-3.4,1.3l-0.6-0.7c1.2-1,2.6-1.5,4-1.5c1.2,0,2.1,0.3,2.8,0.9s1,1.4,1,2.4
		c0,0.8-0.1,1.5-0.4,2.1c-0.3,0.7-0.8,1.4-1.5,2.2s-1.7,1.8-3.2,3.1l-3.9,3.5l0,0h7.5L528.7,349.5z"/>
	<path class="st2" d="M541.9,339.1c0,1.4-0.1,2.8-0.4,4.2s-0.7,2.6-1.2,3.5c-0.5,1-1.1,1.7-1.9,2.2c-0.7,0.5-1.6,0.7-2.5,0.7
		c-1.2,0-2.1-0.4-2.7-1.3c-0.6-0.9-0.9-2.2-0.9-4c0-1.3,0.2-2.6,0.5-3.9s0.7-2.5,1.3-3.4c0.5-0.9,1.2-1.7,1.9-2.1
		c0.7-0.5,1.6-0.7,2.5-0.7C540.8,334.3,541.9,335.9,541.9,339.1z M538.3,335.2c-0.9,0-1.7,0.4-2.5,1.2c-0.7,0.8-1.3,1.9-1.8,3.4
		s-0.7,3-0.7,4.6c0,1.5,0.2,2.6,0.6,3.4c0.4,0.7,1.1,1.1,2,1.1c1,0,1.8-0.4,2.5-1.1s1.3-1.9,1.7-3.5c0.4-1.5,0.6-3.2,0.6-5
		c0-1.4-0.2-2.4-0.6-3C539.9,335.5,539.2,335.2,538.3,335.2z"/>
	<path class="st2" d="M551.8,349.5h-8.9l0.2-1.1l4.6-4.1c1.4-1.2,2.3-2.2,2.9-2.8c0.6-0.7,1-1.3,1.3-1.9s0.4-1.2,0.4-1.8
		c0-0.8-0.2-1.4-0.7-1.8s-1.1-0.7-2-0.7c-1.2,0-2.3,0.4-3.4,1.3l-0.6-0.7c1.2-1,2.6-1.5,4-1.5c1.2,0,2.1,0.3,2.8,0.9s1,1.4,1,2.4
		c0,0.8-0.1,1.5-0.4,2.1c-0.3,0.7-0.8,1.4-1.5,2.2s-1.7,1.8-3.2,3.1l-3.9,3.5l0,0h7.5L551.8,349.5z"/>
	<path class="st2" d="M559.5,349.5h-1.1l2.3-10.8c0.1-0.6,0.4-1.6,0.8-3c-0.3,0.2-0.5,0.5-0.8,0.6c-0.2,0.2-1.1,0.7-2.6,1.7
		l-0.5-0.8l4.2-2.6h0.9L559.5,349.5z"/>
	<path class="st2" d="M572.3,338.2c1.6,0,2.5,0.7,2.9,2.2h0.1l0.6-2.1h0.8l-2.3,11.1h-0.8l0.5-2.8H574c-0.6,1-1.2,1.7-1.9,2.2
		s-1.5,0.8-2.4,0.8c-1.9,0-2.9-1.3-2.9-3.8c0-1.3,0.3-2.6,0.8-3.9s1.2-2.2,2.1-2.8C570.3,338.5,571.3,338.2,572.3,338.2z
		 M569.8,348.8c0.6,0,1.2-0.2,1.8-0.6s1.1-1,1.6-1.7s0.8-1.5,1.1-2.4s0.4-1.6,0.4-2.2c0-0.5-0.1-1-0.3-1.5c-0.2-0.4-0.4-0.8-0.8-1
		c-0.3-0.2-0.8-0.4-1.3-0.4c-0.8,0-1.6,0.3-2.3,0.8s-1.2,1.4-1.7,2.5c-0.4,1.1-0.7,2.2-0.7,3.3c0,1,0.2,1.8,0.5,2.3
		C568.6,348.6,569.1,348.8,569.8,348.8z"/>
	<path class="st2" d="M579,349.5h-1l3.4-16h1L579,349.5z"/>
	<path class="st2" d="M588.8,338.2c1.6,0,2.5,0.7,2.9,2.2h0.1l0.6-2.1h0.8l-2.3,11.1H590l0.5-2.8h-0.1c-0.6,1-1.2,1.7-1.9,2.2
		s-1.5,0.8-2.4,0.8c-1.9,0-2.9-1.3-2.9-3.8c0-1.3,0.3-2.6,0.8-3.9c0.5-1.2,1.2-2.2,2.1-2.8C586.8,338.5,587.8,338.2,588.8,338.2z
		 M586.3,348.8c0.6,0,1.2-0.2,1.8-0.6s1.1-1,1.6-1.7s0.8-1.5,1.1-2.4s0.4-1.6,0.4-2.2c0-0.5-0.1-1-0.3-1.5c-0.2-0.4-0.4-0.8-0.8-1
		c-0.3-0.2-0.8-0.4-1.3-0.4c-0.8,0-1.6,0.3-2.3,0.8s-1.2,1.4-1.7,2.5c-0.4,1.1-0.7,2.2-0.7,3.3c0,1,0.2,1.8,0.5,2.3
		C585,348.6,585.6,348.8,586.3,348.8z"/>
	<path class="st2" d="M600.4,338.2c1.2,0,2.2,0.4,2.9,1.1s1,1.8,1,3.1c0,1.3-0.2,2.6-0.7,3.8c-0.5,1.2-1.2,2.1-2,2.7
		s-1.8,0.9-2.9,0.9c-1.3,0-2.2-0.4-2.9-1.1s-1-1.8-1-3.2c0-1.3,0.2-2.5,0.7-3.7c0.5-1.1,1.2-2,2-2.6S599.3,338.2,600.4,338.2z
		 M600.3,339c-0.8,0-1.6,0.3-2.3,0.8s-1.2,1.3-1.6,2.3c-0.4,1-0.6,2.1-0.6,3.2c0,2.3,1,3.5,2.9,3.5c0.9,0,1.6-0.3,2.3-0.8
		s1.2-1.3,1.6-2.3c0.4-1,0.6-2.2,0.6-3.4c0-1.1-0.3-1.9-0.7-2.4C601.9,339.3,601.2,339,600.3,339z"/>
</g>
<rect x="25.1" y="331.3" class="st0" width="512.8" height="42.9"/>
<g class="st1">
	<path class="st2" d="M41.4,349.5h-3.8l-2.1-8.3c-0.1-0.3-0.2-0.9-0.4-1.8s-0.3-1.5-0.3-1.9c0,0.4-0.2,1-0.3,1.9
		c-0.2,0.9-0.3,1.5-0.4,1.8l-2.1,8.2h-3.8l-4-15.7h3.3l2,8.6c0.4,1.6,0.6,3,0.8,4.1c0-0.4,0.1-1,0.3-1.9c0.2-0.9,0.3-1.5,0.4-2
		l2.3-8.8h3.1l2.3,8.8c0.1,0.4,0.2,1,0.4,1.8s0.3,1.5,0.3,2.1c0.1-0.6,0.2-1.3,0.3-2.1c0.2-0.8,0.3-1.5,0.4-2l2-8.6h3.3L41.4,349.5z
		"/>
	<path class="st2" d="M52.6,349.7c-1.9,0-3.4-0.5-4.5-1.6s-1.6-2.6-1.6-4.5c0-2,0.5-3.6,1.5-4.7s2.4-1.6,4.2-1.6c1.7,0,3,0.5,4,1.5
		s1.4,2.3,1.4,4v1.6h-7.7c0,0.9,0.3,1.7,0.8,2.2s1.2,0.8,2.2,0.8c0.7,0,1.4-0.1,2.1-0.2s1.3-0.4,2-0.7v2.5c-0.6,0.3-1.2,0.5-1.8,0.6
		C54.3,349.7,53.5,349.7,52.6,349.7z M52.1,339.6c-0.7,0-1.2,0.2-1.6,0.7c-0.4,0.4-0.6,1.1-0.7,1.9h4.6c0-0.8-0.2-1.4-0.6-1.9
		S52.8,339.6,52.1,339.6z"/>
	<path class="st2" d="M63.9,349.7c-1.4,0-2.5-0.5-3.3-1.6s-1.2-2.6-1.2-4.6s0.4-3.5,1.2-4.6s1.9-1.6,3.4-1.6c1.5,0,2.7,0.6,3.5,1.8
		h0.1c-0.2-0.9-0.2-1.7-0.2-2.4v-3.8h3.3v16.7h-2.5l-0.6-1.6h-0.1C66.6,349.1,65.5,349.7,63.9,349.7z M65.1,347.1
		c0.8,0,1.5-0.2,1.8-0.7c0.4-0.5,0.6-1.3,0.6-2.5v-0.4c0-1.3-0.2-2.2-0.6-2.8s-1-0.8-1.9-0.8c-0.7,0-1.3,0.3-1.7,0.9
		s-0.6,1.5-0.6,2.7s0.2,2.1,0.6,2.7C63.7,346.8,64.3,347.1,65.1,347.1z"/>
	<path class="st2" d="M85.1,349.5h-3.3v-7c0-0.9-0.2-1.5-0.5-2c-0.3-0.4-0.8-0.6-1.5-0.6c-0.9,0-1.6,0.3-2,0.9s-0.6,1.6-0.6,3v5.7
		h-3.3v-12h2.5l0.4,1.5H77c0.4-0.6,0.9-1,1.5-1.3s1.4-0.4,2.2-0.4c1.4,0,2.5,0.4,3.2,1.1c0.7,0.8,1.1,1.8,1.1,3.3v7.8H85.1z"/>
	<path class="st2" d="M94,349.7c-1.9,0-3.4-0.5-4.5-1.6s-1.6-2.6-1.6-4.5c0-2,0.5-3.6,1.5-4.7s2.4-1.6,4.2-1.6c1.7,0,3,0.5,4,1.5
		s1.4,2.3,1.4,4v1.6h-7.7c0,0.9,0.3,1.7,0.8,2.2s1.2,0.8,2.2,0.8c0.7,0,1.4-0.1,2.1-0.2s1.3-0.4,2-0.7v2.5c-0.6,0.3-1.2,0.5-1.8,0.6
		C95.7,349.7,94.9,349.7,94,349.7z M93.5,339.6c-0.7,0-1.2,0.2-1.6,0.7c-0.4,0.4-0.6,1.1-0.7,1.9h4.6c0-0.8-0.2-1.4-0.6-1.9
		C94.7,339.8,94.2,339.6,93.5,339.6z"/>
	<path class="st2" d="M109.9,346c0,1.2-0.4,2.2-1.3,2.8c-0.9,0.6-2.1,1-3.8,1c-0.9,0-1.6-0.1-2.2-0.2s-1.2-0.3-1.7-0.5v-2.7
		c0.6,0.3,1.3,0.5,2.1,0.7c0.8,0.2,1.4,0.3,2,0.3c1.2,0,1.8-0.3,1.8-1c0-0.3-0.1-0.5-0.2-0.6c-0.2-0.2-0.4-0.3-0.8-0.5
		s-0.9-0.4-1.5-0.7c-0.9-0.4-1.6-0.7-2-1.1c-0.4-0.3-0.7-0.7-0.9-1.1c-0.2-0.4-0.3-1-0.3-1.6c0-1.1,0.4-1.9,1.2-2.5
		c0.8-0.6,2-0.9,3.5-0.9c1.4,0,2.9,0.3,4.2,0.9l-1,2.4c-0.6-0.3-1.2-0.5-1.7-0.6s-1.1-0.2-1.6-0.2c-1,0-1.5,0.3-1.5,0.8
		c0,0.3,0.2,0.5,0.5,0.8c0.3,0.2,1,0.5,2,1c0.9,0.4,1.6,0.7,2.1,1.1s0.8,0.7,1,1.1S109.9,345.4,109.9,346z"/>
	<path class="st2" d="M116.3,349.7c-1.4,0-2.5-0.5-3.3-1.6s-1.2-2.6-1.2-4.6s0.4-3.5,1.2-4.6c0.8-1.1,1.9-1.6,3.4-1.6
		s2.7,0.6,3.5,1.8h0.1c-0.2-0.9-0.2-1.7-0.2-2.4v-3.8h3.3v16.7h-2.5L120,348h-0.1C118.9,349.1,117.8,349.7,116.3,349.7z
		 M117.4,347.1c0.8,0,1.5-0.2,1.8-0.7c0.4-0.5,0.6-1.3,0.6-2.5v-0.4c0-1.3-0.2-2.2-0.6-2.8c-0.4-0.6-1-0.8-1.9-0.8
		c-0.7,0-1.3,0.3-1.7,0.9c-0.4,0.6-0.6,1.5-0.6,2.7s0.2,2.1,0.6,2.7C116.1,346.8,116.6,347.1,117.4,347.1z"/>
	<path class="st2" d="M134,349.5l-0.6-1.6h-0.1c-0.6,0.7-1.1,1.2-1.7,1.4c-0.6,0.3-1.3,0.4-2.3,0.4c-1.2,0-2.1-0.3-2.7-1
		c-0.7-0.7-1-1.6-1-2.8c0-1.3,0.4-2.2,1.3-2.8c0.9-0.6,2.2-0.9,4-1l2.1-0.1v-0.5c0-1.2-0.6-1.8-1.9-1.8c-1,0-2.1,0.3-3.4,0.9
		l-1.1-2.2c1.4-0.7,2.9-1.1,4.6-1.1c1.6,0,2.8,0.4,3.7,1.1s1.3,1.8,1.3,3.2v8H134V349.5z M133,344h-1.3c-1,0-1.7,0.2-2.1,0.5
		s-0.7,0.8-0.7,1.4c0,0.9,0.5,1.4,1.6,1.4c0.8,0,1.4-0.2,1.8-0.7c0.5-0.4,0.7-1,0.7-1.7V344z"/>
	<path class="st2" d="M137.9,337.5h3.6l2.3,6.8c0.2,0.6,0.3,1.3,0.4,2.1h0.1c0.1-0.7,0.2-1.4,0.5-2.1l2.2-6.8h3.5l-5.1,13.5
		c-0.5,1.3-1.1,2.2-2,2.8c-0.9,0.6-1.9,0.9-3,0.9c-0.6,0-1.1-0.1-1.7-0.2v-2.6c0.4,0.1,0.8,0.1,1.3,0.1c0.6,0,1.1-0.2,1.5-0.5
		c0.4-0.4,0.8-0.9,1-1.6l0.2-0.6L137.9,337.5z"/>
	<path class="st2" d="M151.1,345v-2.7h5.8v2.7H151.1z"/>
	<path class="st2" d="M162.8,349.5h-3.3v-15.7h9v2.7h-5.7v4h5.3v2.7h-5.3V349.5z"/>
	<path class="st2" d="M178,337.3c0.4,0,0.8,0,1.1,0.1l-0.2,3.1c-0.3-0.1-0.6-0.1-1-0.1c-1,0-1.9,0.3-2.4,0.8
		c-0.6,0.5-0.9,1.3-0.9,2.3v6.1h-3.3v-12h2.5l0.5,2h0.2c0.4-0.7,0.9-1.2,1.5-1.6C176.6,337.5,177.3,337.3,178,337.3z"/>
	<path class="st2" d="M181.2,334.4c0-1.1,0.6-1.6,1.8-1.6s1.8,0.5,1.8,1.6c0,0.5-0.1,0.9-0.4,1.2c-0.3,0.3-0.7,0.4-1.3,0.4
		C181.8,336,181.2,335.5,181.2,334.4z M184.6,349.5h-3.3v-12h3.3V349.5z"/>
	<path class="st2" d="M191.8,349.7c-1.4,0-2.5-0.5-3.3-1.6s-1.2-2.6-1.2-4.6s0.4-3.5,1.2-4.6s1.9-1.6,3.4-1.6s2.7,0.6,3.5,1.8h0.1
		c-0.2-0.9-0.2-1.7-0.2-2.4v-3.8h3.3v16.7H196l-0.6-1.6h-0.1C194.5,349.1,193.4,349.7,191.8,349.7z M193,347.1
		c0.8,0,1.5-0.2,1.8-0.7c0.4-0.5,0.6-1.3,0.6-2.5v-0.4c0-1.3-0.2-2.2-0.6-2.8c-0.4-0.6-1-0.8-1.9-0.8c-0.7,0-1.3,0.3-1.7,0.9
		s-0.6,1.5-0.6,2.7s0.2,2.1,0.6,2.7C191.6,346.8,192.2,347.1,193,347.1z"/>
	<path class="st2" d="M209.6,349.5l-0.6-1.6h-0.1c-0.6,0.7-1.1,1.2-1.7,1.4c-0.6,0.3-1.3,0.4-2.3,0.4c-1.2,0-2.1-0.3-2.7-1
		c-0.7-0.7-1-1.6-1-2.8c0-1.3,0.4-2.2,1.3-2.8c0.9-0.6,2.2-0.9,4-1l2.1-0.1v-0.5c0-1.2-0.6-1.8-1.9-1.8c-1,0-2.1,0.3-3.4,0.9
		l-1.1-2.2c1.4-0.7,2.9-1.1,4.6-1.1c1.6,0,2.8,0.4,3.7,1.1s1.3,1.8,1.3,3.2v8h-2.2L209.6,349.5L209.6,349.5z M208.6,344h-1.3
		c-1,0-1.7,0.2-2.1,0.5s-0.7,0.8-0.7,1.4c0,0.9,0.5,1.4,1.6,1.4c0.8,0,1.4-0.2,1.8-0.7c0.5-0.4,0.7-1,0.7-1.7V344z"/>
	<path class="st2" d="M213.5,337.5h3.6l2.3,6.8c0.2,0.6,0.3,1.3,0.4,2.1h0.1c0.1-0.7,0.2-1.4,0.5-2.1l2.2-6.8h3.5L221,351
		c-0.5,1.3-1.1,2.2-2,2.8c-0.9,0.6-1.9,0.9-3,0.9c-0.6,0-1.1-0.1-1.7-0.2v-2.6c0.4,0.1,0.8,0.1,1.3,0.1c0.6,0,1.1-0.2,1.5-0.5
		c0.4-0.4,0.8-0.9,1-1.6l0.2-0.6L213.5,337.5z"/>
	<path class="st2" d="M231,347.2c-0.4,1.4-1,3.2-1.9,5.1h-2.4c0.5-1.9,0.8-3.7,1.1-5.4h3L231,347.2z"/>
	<path class="st2" d="M254.4,341.6c0,2.6-0.6,4.6-1.9,6s-3.1,2.1-5.5,2.1s-4.3-0.7-5.5-2.1s-1.9-3.4-1.9-6s0.6-4.6,1.9-6
		c1.3-1.4,3.1-2.1,5.6-2.1s4.3,0.7,5.5,2.1C253.7,337,254.4,339,254.4,341.6z M242.9,341.6c0,1.8,0.3,3.1,1,4s1.7,1.3,3,1.3
		c2.7,0,4-1.8,4-5.3s-1.3-5.3-4-5.3c-1.3,0-2.3,0.4-3,1.3C243.2,338.6,242.9,339.9,242.9,341.6z"/>
	<path class="st2" d="M262.2,349.7c-3.7,0-5.6-2.1-5.6-6.2c0-2,0.5-3.6,1.5-4.7s2.5-1.6,4.4-1.6c1.4,0,2.6,0.3,3.7,0.8l-1,2.5
		c-0.5-0.2-1-0.4-1.4-0.5s-0.9-0.2-1.3-0.2c-1.7,0-2.6,1.2-2.6,3.6c0,2.3,0.9,3.5,2.6,3.5c0.6,0,1.2-0.1,1.8-0.3
		c0.5-0.2,1.1-0.4,1.6-0.8v2.8c-0.5,0.3-1.1,0.6-1.6,0.7C263.7,349.7,263.1,349.7,262.2,349.7z"/>
	<path class="st2" d="M273.7,347.1c0.6,0,1.3-0.1,2.1-0.4v2.4c-0.8,0.4-1.8,0.5-3,0.5c-1.3,0-2.3-0.3-2.9-1s-0.9-1.7-0.9-3v-5.8
		h-1.6v-1.4l1.8-1.1l0.9-2.5h2.1v2.6h3.4v2.5h-3.4v5.8c0,0.5,0.1,0.8,0.4,1C273,347,273.3,347.1,273.7,347.1z"/>
	<path class="st2" d="M289.1,343.5c0,2-0.5,3.5-1.5,4.6s-2.5,1.7-4.3,1.7c-1.2,0-2.2-0.3-3.1-0.8s-1.6-1.2-2-2.2s-0.7-2-0.7-3.3
		c0-2,0.5-3.5,1.5-4.6s2.5-1.6,4.3-1.6c1.2,0,2.2,0.3,3.1,0.8s1.6,1.2,2,2.2S289.1,342.2,289.1,343.5z M280.8,343.5
		c0,1.2,0.2,2.1,0.6,2.7s1,0.9,1.9,0.9s1.5-0.3,1.9-0.9s0.6-1.5,0.6-2.7s-0.2-2.1-0.6-2.7s-1-0.9-1.9-0.9s-1.5,0.3-1.9,0.9
		S280.8,342.3,280.8,343.5z"/>
	<path class="st2" d="M298.5,337.3c1.4,0,2.5,0.6,3.3,1.7s1.2,2.6,1.2,4.5c0,2-0.4,3.5-1.2,4.6c-0.8,1.1-2,1.6-3.4,1.6
		s-2.5-0.5-3.3-1.5h-0.2l-0.5,1.3h-2.5v-16.7h3.3v3.9c0,0.5,0,1.3-0.1,2.4h0.1C295.9,337.9,297,337.3,298.5,337.3z M297.5,339.9
		c-0.8,0-1.4,0.2-1.8,0.7s-0.6,1.3-0.6,2.5v0.4c0,1.3,0.2,2.2,0.6,2.8c0.4,0.6,1,0.8,1.8,0.8c0.7,0,1.2-0.3,1.6-0.9s0.6-1.5,0.6-2.7
		s-0.2-2.1-0.6-2.7C298.7,340.2,298.2,339.9,297.5,339.9z"/>
	<path class="st2" d="M311.2,349.7c-1.9,0-3.4-0.5-4.5-1.6s-1.6-2.6-1.6-4.5c0-2,0.5-3.6,1.5-4.7s2.4-1.6,4.2-1.6c1.7,0,3,0.5,4,1.5
		s1.4,2.3,1.4,4v1.6h-7.7c0,0.9,0.3,1.7,0.8,2.2s1.2,0.8,2.2,0.8c0.7,0,1.4-0.1,2.1-0.2s1.3-0.4,2-0.7v2.5c-0.6,0.3-1.2,0.5-1.8,0.6
		C312.9,349.7,312.1,349.7,311.2,349.7z M310.7,339.6c-0.7,0-1.2,0.2-1.6,0.7c-0.4,0.4-0.6,1.1-0.7,1.9h4.6c0-0.8-0.2-1.4-0.6-1.9
		S311.4,339.6,310.7,339.6z"/>
	<path class="st2" d="M325.5,337.3c0.4,0,0.8,0,1.1,0.1l-0.2,3.1c-0.3-0.1-0.6-0.1-1-0.1c-1,0-1.9,0.3-2.4,0.8
		c-0.6,0.5-0.9,1.3-0.9,2.3v6.1h-3.3v-12h2.5l0.5,2h0.2c0.4-0.7,0.9-1.2,1.5-1.6C324,337.5,324.7,337.3,325.5,337.3z"/>
	<path class="st2" d="M344.6,349.5h-11v-2.3l3.9-4c1.2-1.2,1.9-2,2.3-2.5s0.6-0.9,0.8-1.3s0.2-0.8,0.2-1.2c0-0.6-0.2-1.1-0.5-1.4
		s-0.8-0.5-1.4-0.5s-1.2,0.1-1.8,0.4s-1.2,0.7-1.8,1.2l-1.8-2.1c0.8-0.7,1.4-1.1,1.9-1.4s1.1-0.5,1.7-0.6s1.3-0.2,2-0.2
		c1,0,1.8,0.2,2.6,0.5s1.3,0.9,1.8,1.5s0.6,1.4,0.6,2.2c0,0.7-0.1,1.4-0.4,2s-0.6,1.3-1.2,1.9c-0.5,0.7-1.5,1.6-2.8,2.8l-2,1.9v0.2
		h6.8L344.6,349.5L344.6,349.5z"/>
	<path class="st2" d="M347.7,349.5l5.9-12.9h-7.7v-2.8h11.3v2.1l-5.9,13.6L347.7,349.5L347.7,349.5z"/>
	<path class="st2" d="M358.5,345v-2.7h5.8v2.7H358.5z"/>
	<path class="st2" d="M376.8,349.5h-11v-2.3l3.9-4c1.2-1.2,1.9-2,2.3-2.5s0.6-0.9,0.8-1.3s0.2-0.8,0.2-1.2c0-0.6-0.2-1.1-0.5-1.4
		s-0.8-0.5-1.4-0.5s-1.2,0.1-1.8,0.4s-1.2,0.7-1.8,1.2l-1.8-2.1c0.8-0.7,1.4-1.1,1.9-1.4s1.1-0.5,1.7-0.6s1.3-0.2,2-0.2
		c1,0,1.8,0.2,2.6,0.5s1.3,0.9,1.8,1.5s0.6,1.4,0.6,2.2c0,0.7-0.1,1.4-0.4,2s-0.6,1.3-1.2,1.9c-0.5,0.7-1.5,1.6-2.8,2.8l-2,1.9v0.2
		h6.8L376.8,349.5L376.8,349.5z"/>
	<path class="st2" d="M389.3,340.5c0,3.1-0.7,5.4-2,6.9s-3.3,2.3-5.9,2.3c-0.9,0-1.6,0-2.1-0.2v-2.7c0.6,0.2,1.2,0.2,1.9,0.2
		c1.1,0,2-0.2,2.7-0.5s1.3-0.8,1.6-1.5c0.4-0.7,0.6-1.7,0.7-2.9h-0.1c-0.4,0.7-0.9,1.1-1.4,1.4s-1.2,0.4-2,0.4
		c-1.4,0-2.4-0.4-3.2-1.3c-0.8-0.9-1.2-2.1-1.2-3.7c0-1.7,0.5-3,1.4-4c1-1,2.3-1.5,3.9-1.5c1.2,0,2.2,0.3,3,0.8
		c0.9,0.5,1.5,1.3,2,2.4C389.1,337.9,389.3,339.1,389.3,340.5z M383.6,336.3c-0.7,0-1.2,0.2-1.6,0.7s-0.6,1.2-0.6,2s0.2,1.4,0.5,1.8
		s0.9,0.7,1.6,0.7s1.3-0.2,1.7-0.7c0.5-0.4,0.7-0.9,0.7-1.5c0-0.9-0.2-1.6-0.7-2.2C384.9,336.6,384.3,336.3,383.6,336.3z"/>
	<path class="st2" d="M395,347.2c-0.4,1.4-1,3.2-1.9,5.1h-2.4c0.5-1.9,0.8-3.7,1.1-5.4h3L395,347.2z"/>
	<path class="st2" d="M414,349.5h-11v-2.3l3.9-4c1.2-1.2,1.9-2,2.3-2.5s0.6-0.9,0.8-1.3s0.2-0.8,0.2-1.2c0-0.6-0.2-1.1-0.5-1.4
		s-0.8-0.5-1.4-0.5s-1.2,0.1-1.8,0.4s-1.2,0.7-1.8,1.2l-1.8-2.1c0.8-0.7,1.4-1.1,1.9-1.4s1.1-0.5,1.7-0.6s1.3-0.2,2-0.2
		c1,0,1.8,0.2,2.6,0.5s1.3,0.9,1.8,1.5s0.6,1.4,0.6,2.2c0,0.7-0.1,1.4-0.4,2s-0.6,1.3-1.2,1.9c-0.5,0.7-1.5,1.6-2.8,2.8l-2,1.9v0.2
		h6.8L414,349.5L414,349.5z"/>
	<path class="st2" d="M426.5,341.7c0,2.7-0.4,4.8-1.3,6.1c-0.9,1.3-2.3,2-4.2,2c-1.8,0-3.2-0.7-4.1-2c-0.9-1.4-1.4-3.4-1.4-6
		c0-2.8,0.4-4.8,1.3-6.1c0.9-1.3,2.3-2,4.1-2c1.8,0,3.2,0.7,4.1,2.1C426,337,426.5,339,426.5,341.7z M418.8,341.7
		c0,1.9,0.2,3.3,0.5,4.1c0.3,0.8,0.9,1.3,1.7,1.3c0.8,0,1.3-0.4,1.7-1.3s0.5-2.2,0.5-4.1s-0.2-3.3-0.5-4.2c-0.3-0.8-0.9-1.3-1.7-1.3
		c-0.8,0-1.3,0.4-1.7,1.3C419,338.4,418.8,339.7,418.8,341.7z"/>
	<path class="st2" d="M439.1,349.5h-11v-2.3l3.9-4c1.2-1.2,1.9-2,2.3-2.5s0.6-0.9,0.8-1.3s0.2-0.8,0.2-1.2c0-0.6-0.2-1.1-0.5-1.4
		s-0.8-0.5-1.4-0.5s-1.2,0.1-1.8,0.4s-1.2,0.7-1.8,1.2l-1.8-2.1c0.8-0.7,1.4-1.1,1.9-1.4s1.1-0.5,1.7-0.6s1.3-0.2,2-0.2
		c1,0,1.8,0.2,2.6,0.5s1.3,0.9,1.8,1.5s0.6,1.4,0.6,2.2c0,0.7-0.1,1.4-0.4,2s-0.6,1.3-1.2,1.9c-0.5,0.7-1.5,1.6-2.8,2.8l-2,1.9v0.2
		h6.8L439.1,349.5L439.1,349.5z"/>
	<path class="st2" d="M448.9,349.5h-3.3v-9.1v-1.5l0.1-1.6c-0.6,0.6-0.9,0.9-1.1,1.1l-1.8,1.5l-1.6-2l5.1-4h2.7v15.6H448.9z"/>
</g>
<line class="st3" x1="25.5" y1="177.7" x2="607.5" y2="177.7"/>
<line class="st4" x1="318.5" y1="66.7" x2="318.5" y2="177.7"/>
<line class="st5" x1="28" y1="80.2" x2="28" y2="178.2"/>
<line class="st5" x1="604" y1="79.2" x2="604" y2="177.2"/>
<path class="st6" d="M28,81.2c0,0,147.1,94,290-1"/>
<line class="st7" x1="65.5" y1="99.7" x2="65.5" y2="177.7"/>
<line class="st7" x1="101.5" y1="111.7" x2="101.5" y2="178.7"/>
<line class="st7" x1="136.5" y1="118.7" x2="136.5" y2="177.7"/>
<line class="st7" x1="171.5" y1="121.7" x2="171.5" y2="177.7"/>
<line class="st7" x1="207.5" y1="119.7" x2="208.5" y2="177.7"/>
<line class="st7" x1="243.5" y1="113.7" x2="243.5" y2="178.7"/>
<line class="st7" x1="279.5" y1="100.7" x2="279.5" y2="177.7"/>
<path class="st6" d="M604,80.2c0,0-145,94-286-1"/>
<line class="st7" x1="354.5" y1="99.2" x2="354.5" y2="177.2"/>
<line class="st7" x1="390.5" y1="112.2" x2="390.5" y2="179.2"/>
<line class="st7" x1="425.5" y1="119.2" x2="425.5" y2="178.2"/>
<line class="st7" x1="460.5" y1="121.2" x2="460.5" y2="177.2"/>
<line class="st7" x1="496.5" y1="118.2" x2="497.5" y2="176.2"/>
<line class="st7" x1="532.5" y1="111.2" x2="532.5" y2="176.2"/>
<line class="st7" x1="568.5" y1="99.2" x2="568.5" y2="176.2"/>
<rect x="24" y="297.9" class="st0" width="593" height="65.3"/>
<g class="st1">
	<path class="st2" d="M37.2,311c0,7.3-2.3,10.9-6.9,10.9h-3.9v-21.4h4c2.2,0,3.9,0.9,5.1,2.7C36.7,305,37.2,307.6,37.2,311z
		 M35.7,311.1c0-3-0.5-5.3-1.4-6.9s-2.2-2.4-4-2.4h-2.4v18.8h2.3c1.9,0,3.3-0.8,4.1-2.4C35.2,316.5,35.7,314.2,35.7,311.1z"/>
	<path class="st2" d="M40.8,301.6c0-0.4,0.1-0.8,0.3-1s0.4-0.4,0.7-0.4s0.5,0.1,0.6,0.4c0.2,0.2,0.2,0.6,0.2,1s-0.1,0.8-0.2,1
		c-0.2,0.2-0.4,0.4-0.6,0.4c-0.3,0-0.5-0.1-0.7-0.4C40.9,302.4,40.8,302,40.8,301.6z M42.4,321.9H41V306h1.4V321.9z"/>
	<path class="st2" d="M52.9,321.9l-0.2-2.2h-0.1c-0.8,1.7-1.9,2.5-3.5,2.5c-1.1,0-1.9-0.4-2.5-1.2c-0.6-0.8-1-1.9-1-3.3
		c0-1.5,0.5-2.7,1.4-3.6s2.2-1.4,3.9-1.4l1.7-0.1v-1.4c0-1.5-0.2-2.6-0.6-3.2c-0.4-0.7-1-1-1.9-1s-1.9,0.3-2.8,0.9l-0.6-1.1
		c1.1-0.7,2.3-1,3.5-1c1.3,0,2.3,0.4,2.9,1.2c0.6,0.8,0.9,2.2,0.9,4.1v10.8L52.9,321.9L52.9,321.9z M49.5,321c1,0,1.8-0.5,2.4-1.5
		c0.6-1,0.8-2.4,0.8-4.2v-1.7l-1.7,0.1c-1.3,0.1-2.3,0.4-2.9,1.1c-0.6,0.6-0.9,1.6-0.9,2.8s0.2,2,0.6,2.5
		C48.2,320.7,48.8,321,49.5,321z"/>
	<path class="st2" d="M59.8,321.9h-1.4v-22.8h1.4V321.9z"/>
	<path class="st2" d="M73.2,313.9c0,2.7-0.4,4.7-1.3,6.1s-2.1,2.1-3.7,2.1s-2.8-0.7-3.6-2.1c-0.8-1.4-1.3-3.5-1.3-6.1
		c0-5.5,1.6-8.2,4.9-8.2c1.5,0,2.8,0.7,3.6,2.2S73.2,311.3,73.2,313.9z M64.8,313.9c0,2.3,0.3,4,0.8,5.2c0.6,1.2,1.4,1.8,2.6,1.8
		c2.3,0,3.5-2.3,3.5-7c0-4.6-1.2-6.9-3.5-6.9c-1.2,0-2.1,0.6-2.6,1.7C65.1,309.9,64.8,311.6,64.8,313.9z"/>
	<path class="st2" d="M85.2,306v1l-2.2,0.2c0.3,0.4,0.5,0.9,0.7,1.6s0.3,1.4,0.3,2.2c0,1.5-0.4,2.8-1.1,3.8s-1.6,1.4-2.8,1.4h-0.4
		h-0.3c-0.5,0.3-0.8,0.7-1.1,1c-0.3,0.3-0.4,0.7-0.4,1.2c0,0.4,0.2,0.8,0.5,1c0.4,0.3,0.8,0.4,1.4,0.4h1c1.4,0,2.6,0.4,3.3,1.1
		c0.8,0.7,1.2,1.8,1.2,3.2c0,1.6-0.5,2.8-1.6,3.7s-2.5,1.4-4.2,1.4c-1.5,0-2.6-0.4-3.4-1.1s-1.2-1.8-1.2-3.1c0-1,0.3-1.8,0.8-2.6
		c0.5-0.7,1.3-1.3,2.4-1.7c-0.5-0.2-0.9-0.5-1.2-0.9s-0.5-0.8-0.5-1.4c0-0.5,0.2-0.9,0.5-1.3s0.8-0.8,1.4-1.2
		c-0.8-0.4-1.4-1-1.9-1.8s-0.4-1.8-0.4-2.9c0-1.7,0.4-3,1.1-4s1.7-1.5,3-1.5c0.7,0,1.2,0.1,1.7,0.3L85.2,306L85.2,306z M76.5,324.8
		c0,1,0.3,1.8,0.8,2.4s1.3,0.8,2.4,0.8c1.3,0,2.4-0.3,3.2-1s1.2-1.6,1.2-2.8c0-1-0.3-1.7-0.8-2.2s-1.3-0.8-2.3-0.8h-1
		c-1,0-1.8,0.3-2.4,1C76.8,322.8,76.5,323.7,76.5,324.8z M77.4,311.2c0,1.3,0.2,2.3,0.7,3s1.1,1,1.9,1c1.7,0,2.6-1.4,2.6-4.1
		c0-1.3-0.2-2.3-0.7-3.1c-0.4-0.7-1.1-1.1-1.9-1.1c-0.9,0-1.5,0.4-2,1.1S77.4,309.8,77.4,311.2z"/>
	<path class="st2" d="M89.1,306v10.4c0,1.6,0.2,2.7,0.6,3.4c0.4,0.7,1,1.1,1.8,1.1c1.2,0,2.1-0.5,2.7-1.5s0.9-2.5,0.9-4.7V306h1.4
		v15.9h-1.2l-0.2-2.2H95c-0.3,0.8-0.8,1.4-1.4,1.9c-0.6,0.4-1.3,0.7-2,0.7c-1.3,0-2.2-0.5-2.8-1.4s-0.9-2.4-0.9-4.5V306L89.1,306
		L89.1,306z"/>
	<path class="st2" d="M105.2,322.2c-1.7,0-3-0.7-3.9-2.1s-1.4-3.4-1.4-6c0-2.7,0.4-4.8,1.2-6.2s2-2.1,3.5-2.1c1.3,0,2.4,0.6,3.2,1.9
		c0.8,1.3,1.2,2.9,1.2,5.1v1.3h-7.6c0,2.3,0.4,4,1,5.2s1.6,1.7,2.9,1.7c1,0,2.1-0.3,3.2-1v1.3C107.5,321.9,106.4,322.2,105.2,322.2z
		 M104.6,307c-1.9,0-3,1.9-3.2,5.7h6.2c0-1.7-0.3-3.1-0.8-4.2C106.3,307.4,105.5,307,104.6,307z"/>
	<path class="st2" d="M115,319.2c-0.7,2.2-1.5,4.4-2.5,6.5h-0.9c0.7-2.5,1.2-4.8,1.5-6.9h1.7L115,319.2z"/>
	<path class="st2" d="M135.6,311c0,7.3-2.3,10.9-6.9,10.9h-3.9v-21.4h4c2.2,0,3.9,0.9,5.1,2.7C135.1,305,135.6,307.6,135.6,311z
		 M134.1,311.1c0-3-0.5-5.3-1.4-6.9s-2.2-2.4-4-2.4h-2.4v18.8h2.3c1.9,0,3.3-0.8,4.1-2.4S134.1,314.2,134.1,311.1z"/>
	<path class="st2" d="M144,322.2c-1.7,0-3-0.7-3.9-2.1s-1.4-3.4-1.4-6c0-2.7,0.4-4.8,1.2-6.2s2-2.1,3.5-2.1c1.3,0,2.4,0.6,3.2,1.9
		s1.2,2.9,1.2,5.1v1.3h-7.6c0,2.3,0.4,4,1,5.2s1.6,1.7,2.9,1.7c1,0,2.1-0.3,3.2-1v1.3C146.2,321.9,145.1,322.2,144,322.2z
		 M143.3,307c-1.9,0-3,1.9-3.2,5.7h6.2c0-1.7-0.3-3.1-0.8-4.2S144.2,307,143.3,307z"/>
	<path class="st2" d="M152.7,321.9h-1.4v-22.8h1.4V321.9z"/>
	<path class="st2" d="M156.8,301.6c0-0.4,0.1-0.8,0.3-1s0.4-0.4,0.7-0.4s0.5,0.1,0.6,0.4s0.2,0.6,0.2,1s-0.1,0.8-0.2,1
		c-0.2,0.2-0.4,0.4-0.6,0.4c-0.3,0-0.5-0.1-0.7-0.4C156.9,302.4,156.8,302,156.8,301.6z M158.5,321.9H157V306h1.4v15.9H158.5z"/>
	<path class="st2" d="M167.8,305.7c3.2,0,4.7,2.7,4.7,8.2c0,2.7-0.4,4.7-1.2,6.2c-0.8,1.4-1.9,2.1-3.4,2.1c-0.8,0-1.5-0.2-2.1-0.6
		s-1.2-1-1.6-1.9h-0.1l-0.2,2.2h-1.2v-22.8h1.4v7.1l-0.1,1.9h0.1C165.1,306.5,166.3,305.7,167.8,305.7z M167.7,307
		c-1.2,0-2.1,0.5-2.7,1.6c-0.6,1.1-0.8,2.8-0.8,5.3v0.4c0,4.4,1.2,6.7,3.6,6.7c1.1,0,1.9-0.6,2.4-1.7s0.8-2.9,0.8-5.3
		c0-2.3-0.3-4-0.8-5.2C169.7,307.6,168.9,307,167.7,307z"/>
	<path class="st2" d="M180.6,322.2c-1.7,0-3-0.7-3.9-2.1s-1.4-3.4-1.4-6c0-2.7,0.4-4.8,1.2-6.2s2-2.1,3.5-2.1c1.3,0,2.4,0.6,3.2,1.9
		s1.2,2.9,1.2,5.1v1.3h-7.6c0,2.3,0.4,4,1,5.2s1.6,1.7,2.9,1.7c1,0,2.1-0.3,3.2-1v1.3C182.8,321.9,181.8,322.2,180.6,322.2z
		 M180,307c-1.9,0-3,1.9-3.2,5.7h6.2c0-1.7-0.3-3.1-0.8-4.2S180.9,307,180,307z"/>
	<path class="st2" d="M192.5,305.7c0.5,0,1,0.1,1.4,0.2l-0.3,1.4c-0.4-0.1-0.7-0.2-1.1-0.2c-0.5,0-1.1,0.3-1.5,0.8s-0.8,1.3-1.1,2.3
		s-0.4,2.1-0.4,3.3v8.4H188V306h1.2l0.1,2.8h0.1C190.1,306.7,191.2,305.7,192.5,305.7z"/>
	<path class="st2" d="M202.5,321.9l-0.2-2.2h-0.1c-0.8,1.7-1.9,2.5-3.5,2.5c-1,0-1.9-0.4-2.5-1.2c-0.6-0.8-1-1.9-1-3.3
		c0-1.5,0.5-2.7,1.4-3.6s2.2-1.4,3.9-1.4l1.7-0.1v-1.4c0-1.5-0.2-2.6-0.6-3.2c-0.4-0.7-1-1-1.9-1s-1.9,0.3-2.8,0.9l-0.6-1.1
		c1.1-0.7,2.3-1,3.5-1c1.3,0,2.3,0.4,2.9,1.2c0.6,0.8,0.9,2.2,0.9,4.1v10.8L202.5,321.9L202.5,321.9z M199.1,321
		c1,0,1.8-0.5,2.4-1.5c0.6-1,0.8-2.4,0.8-4.2v-1.7l-1.7,0.1c-1.3,0.1-2.3,0.4-2.9,1.1c-0.6,0.6-0.9,1.6-0.9,2.8s0.2,2,0.6,2.5
		S198.4,321,199.1,321z"/>
	<path class="st2" d="M210.9,320.9c0.4,0,0.8-0.1,1.2-0.2v1.2c-0.4,0.2-1,0.3-1.7,0.3c-1.7,0-2.5-1.2-2.5-3.7v-11.3h-1.5v-0.8
		l1.4-0.4l0.5-3.8h1v3.8h2.6v1.2h-2.6v10.9c0,1.1,0.1,1.8,0.4,2.2C209.9,320.7,210.3,320.9,210.9,320.9z"/>
	<path class="st2" d="M214.4,301.6c0-0.4,0.1-0.8,0.3-1s0.4-0.4,0.7-0.4s0.5,0.1,0.6,0.4s0.2,0.6,0.2,1s-0.1,0.8-0.2,1
		c-0.2,0.2-0.4,0.4-0.6,0.4c-0.3,0-0.5-0.1-0.7-0.4C214.5,302.4,214.4,302,214.4,301.6z M216,321.9h-1.4V306h1.4V321.9z"/>
	<path class="st2" d="M229.4,313.9c0,2.7-0.4,4.7-1.3,6.1c-0.9,1.4-2.1,2.1-3.7,2.1c-1.6,0-2.8-0.7-3.6-2.1s-1.3-3.5-1.3-6.1
		c0-5.5,1.6-8.2,4.9-8.2c1.5,0,2.8,0.7,3.6,2.2C229,309.3,229.4,311.3,229.4,313.9z M221.1,313.9c0,2.3,0.3,4,0.8,5.2
		s1.4,1.8,2.6,1.8c2.3,0,3.5-2.3,3.5-7c0-4.6-1.2-6.9-3.5-6.9c-1.2,0-2.1,0.6-2.6,1.7C221.4,309.8,221.1,311.6,221.1,313.9z"/>
	<path class="st2" d="M240.3,321.9v-11c0-2.6-0.8-4-2.4-4c-1.2,0-2.1,0.5-2.7,1.5c-0.6,1-0.8,2.6-0.8,4.7v8.7H233v-15.9h1.2l0.1,2.2
		h0.1c0.3-0.8,0.8-1.4,1.5-1.9c0.6-0.4,1.3-0.7,2-0.7c1.2,0,2.2,0.4,2.8,1.2c0.6,0.8,0.9,2.2,0.9,4v11h-1.3V321.9z"/>
	<path class="st2" d="M260.3,321.9l-1.5-2.6c-0.7,1.1-1.4,1.8-2.1,2.3c-0.7,0.5-1.5,0.6-2.4,0.6c-1.2,0-2.2-0.5-2.9-1.5
		s-1-2.3-1-4.1c0-0.9,0.1-1.7,0.3-2.4c0.2-0.7,0.5-1.3,1-1.9c0.4-0.6,1.1-1.3,2-2c-0.7-1.3-1.2-2.4-1.4-3.3
		c-0.2-0.8-0.3-1.8-0.3-2.8c0-1.3,0.3-2.3,0.8-3s1.2-1.1,2.1-1.1c0.9,0,1.6,0.4,2.1,1.1s0.8,1.8,0.8,3.1c0,1.3-0.2,2.5-0.6,3.4
		s-1,1.9-1.9,2.7l3.5,6.2c0.6-1.2,0.8-2.6,0.8-4.3h1.4c0,0.9-0.1,1.9-0.4,3s-0.6,2-1,2.7l2.3,3.8L260.3,321.9L260.3,321.9
		L260.3,321.9z M251.9,316.7c0,1.3,0.2,2.3,0.7,3s1.1,1.1,1.9,1.1c0.7,0,1.4-0.2,1.9-0.7c0.6-0.4,1.1-1.1,1.7-2.1l-3.8-6.7
		c-0.9,0.9-1.6,1.7-1.9,2.5C252.1,314.6,251.9,315.6,251.9,316.7z M256.3,304.4c0-1.9-0.5-2.9-1.6-2.9c-0.5,0-0.8,0.2-1.1,0.7
		s-0.4,1.2-0.4,2.2c0,0.8,0.1,1.7,0.4,2.7c0.2,0.9,0.6,1.7,0.9,2.4c0.6-0.6,1.1-1.4,1.3-2.2C256,306.5,256.3,305.4,256.3,304.4z"/>
	<path class="st2" d="M276.1,301.5c-1.6,0-2.9,0.9-3.9,2.6s-1.4,4.1-1.4,7.1c0,2,0.2,3.7,0.7,5.1c0.4,1.5,1.1,2.6,1.9,3.4
		s1.8,1.2,2.9,1.2s2.1-0.2,2.9-0.6v1.3c-0.8,0.4-1.8,0.7-3,0.7c-1.4,0-2.6-0.4-3.6-1.3s-1.8-2.2-2.4-3.8c-0.6-1.7-0.8-3.6-0.8-5.9
		c0-3.4,0.6-6.1,1.9-8.1c1.2-2,2.9-2.9,5-2.9c1.3,0,2.5,0.3,3.5,0.9l-0.7,1.3C278.1,301.8,277.2,301.5,276.1,301.5z"/>
	<path class="st2" d="M291.6,313.9c0,2.7-0.4,4.7-1.3,6.1s-2.1,2.1-3.7,2.1s-2.8-0.7-3.6-2.1c-0.8-1.4-1.3-3.5-1.3-6.1
		c0-5.5,1.6-8.2,4.9-8.2c1.5,0,2.8,0.7,3.6,2.2C291.2,309.3,291.6,311.3,291.6,313.9z M283.3,313.9c0,2.3,0.3,4,0.8,5.2
		s1.4,1.8,2.6,1.8c2.3,0,3.5-2.3,3.5-7c0-4.6-1.2-6.9-3.5-6.9c-1.2,0-2.1,0.6-2.6,1.7C283.6,309.8,283.3,311.6,283.3,313.9z"/>
	<path class="st2" d="M302.5,321.9v-11c0-2.6-0.8-4-2.4-4c-1.2,0-2.1,0.5-2.7,1.5s-0.8,2.6-0.8,4.7v8.7h-1.4v-15.9h1.2l0.1,2.2h0.1
		c0.3-0.8,0.8-1.4,1.5-1.9c0.6-0.4,1.3-0.7,2-0.7c1.2,0,2.2,0.4,2.8,1.2c0.6,0.8,0.9,2.2,0.9,4v11h-1.3L302.5,321.9L302.5,321.9z"/>
	<path class="st2" d="M315.4,321.9v-11c0-2.6-0.8-4-2.4-4c-1.2,0-2.1,0.5-2.7,1.5s-0.8,2.6-0.8,4.7v8.7h-1.4v-15.9h1.2l0.1,2.2h0.1
		c0.3-0.8,0.8-1.4,1.5-1.9c0.6-0.4,1.3-0.7,2-0.7c1.2,0,2.2,0.4,2.8,1.2c0.6,0.8,0.9,2.2,0.9,4v11h-1.3L315.4,321.9L315.4,321.9z"/>
	<path class="st2" d="M325.6,322.2c-1.7,0-3-0.7-3.9-2.1s-1.4-3.4-1.4-6c0-2.7,0.4-4.8,1.2-6.2s2-2.1,3.5-2.1c1.3,0,2.4,0.6,3.2,1.9
		c0.8,1.3,1.2,2.9,1.2,5.1v1.3h-7.6c0,2.3,0.4,4,1,5.2s1.6,1.7,2.9,1.7c1,0,2.1-0.3,3.2-1v1.3C327.8,321.9,326.8,322.2,325.6,322.2z
		 M325,307c-1.9,0-3,1.9-3.2,5.7h6.2c0-1.7-0.3-3.1-0.8-4.2S325.9,307,325,307z"/>
	<path class="st2" d="M337.1,322.2c-1.6,0-2.8-0.7-3.6-2.1s-1.2-3.4-1.2-6.1s0.4-4.8,1.2-6.2c0.8-1.4,2-2.1,3.7-2.1
		c1,0,1.8,0.2,2.5,0.5l-0.5,1.2c-0.7-0.3-1.3-0.5-1.8-0.5c-2.4,0-3.6,2.3-3.6,7c0,4.6,1.2,6.9,3.6,6.9c0.7,0,1.5-0.2,2.3-0.5v1.2
		c-0.3,0.2-0.7,0.3-1.2,0.4C337.9,322.1,337.5,322.2,337.1,322.2z"/>
	<path class="st2" d="M345.4,320.9c0.4,0,0.8-0.1,1.2-0.2v1.2c-0.4,0.2-1,0.3-1.7,0.3c-1.7,0-2.5-1.2-2.5-3.7v-11.3h-1.5v-0.8
		l1.4-0.4l0.5-3.8h1v3.8h2.6v1.2h-2.6v10.9c0,1.1,0.1,1.8,0.4,2.2C344.4,320.7,344.8,320.9,345.4,320.9z"/>
	<path class="st2" d="M348.9,301.6c0-0.4,0.1-0.8,0.3-1c0.2-0.2,0.4-0.4,0.7-0.4c0.3,0,0.5,0.1,0.6,0.4s0.2,0.6,0.2,1
		s-0.1,0.8-0.2,1c-0.2,0.2-0.4,0.4-0.6,0.4c-0.3,0-0.5-0.1-0.7-0.4C349,302.4,348.9,302,348.9,301.6z M350.5,321.9h-1.4V306h1.4
		V321.9z"/>
	<path class="st2" d="M363.9,313.9c0,2.7-0.4,4.7-1.3,6.1s-2.1,2.1-3.7,2.1s-2.8-0.7-3.6-2.1c-0.8-1.4-1.3-3.5-1.3-6.1
		c0-5.5,1.6-8.2,4.9-8.2c1.5,0,2.8,0.7,3.6,2.2C363.5,309.3,363.9,311.3,363.9,313.9z M355.5,313.9c0,2.3,0.3,4,0.8,5.2
		s1.4,1.8,2.6,1.8c2.3,0,3.5-2.3,3.5-7c0-4.6-1.2-6.9-3.5-6.9c-1.2,0-2.1,0.6-2.6,1.7S355.5,311.6,355.5,313.9z"/>
	<path class="st2" d="M374.7,321.9v-11c0-2.6-0.8-4-2.4-4c-1.2,0-2.1,0.5-2.7,1.5s-0.8,2.6-0.8,4.7v8.7h-1.4v-15.9h1.2l0.1,2.2h0.1
		c0.3-0.8,0.8-1.4,1.5-1.9c0.6-0.4,1.3-0.7,2-0.7c1.2,0,2.2,0.4,2.8,1.2c0.6,0.8,0.9,2.2,0.9,4v11h-1.3L374.7,321.9L374.7,321.9z"/>
	<path class="st2" d="M385.9,301.6c0-0.4,0.1-0.8,0.3-1c0.2-0.2,0.4-0.4,0.7-0.4c0.3,0,0.5,0.1,0.6,0.4s0.2,0.6,0.2,1
		s-0.1,0.8-0.2,1c-0.2,0.2-0.4,0.4-0.6,0.4c-0.3,0-0.5-0.1-0.7-0.4C386,302.4,385.9,302,385.9,301.6z M387.5,321.9h-1.4V306h1.4
		V321.9z"/>
	<path class="st2" d="M399.1,321.9v-11c0-2.6-0.8-4-2.4-4c-1.2,0-2.1,0.5-2.7,1.5s-0.8,2.6-0.8,4.7v8.7h-1.4v-15.9h1.2l0.1,2.2h0.1
		c0.3-0.8,0.8-1.4,1.5-1.9c0.6-0.4,1.3-0.7,2-0.7c1.2,0,2.2,0.4,2.8,1.2c0.6,0.8,0.9,2.2,0.9,4v11h-1.3L399.1,321.9L399.1,321.9z"/>
	<path class="st2" d="M418.9,321.9l-1.9-7.8h-5.3l-1.9,7.8h-1.5l5.2-21.4h1.5l5.4,21.4H418.9z M416.7,312.7l-1.9-8
		c-0.2-0.9-0.4-1.7-0.5-2.5c-0.1,0.8-0.2,1.7-0.4,2.5l-1.9,8H416.7z"/>
	<path class="st2" d="M426.7,322.2c-1.6,0-2.8-0.7-3.6-2.1s-1.2-3.4-1.2-6.1s0.4-4.8,1.2-6.2c0.8-1.4,2-2.1,3.7-2.1
		c1,0,1.8,0.2,2.5,0.5l-0.5,1.2c-0.7-0.3-1.3-0.5-1.8-0.5c-2.4,0-3.6,2.3-3.6,7c0,4.6,1.2,6.9,3.6,6.9c0.7,0,1.5-0.2,2.3-0.5v1.2
		c-0.3,0.2-0.7,0.3-1.2,0.4C427.5,322.1,427.1,322.2,426.7,322.2z"/>
	<path class="st2" d="M438.2,321.9l-0.2-2.2l0,0c-0.8,1.7-1.9,2.5-3.5,2.5c-1,0-1.9-0.4-2.5-1.2c-0.6-0.8-1-1.9-1-3.3
		c0-1.5,0.5-2.7,1.4-3.6s2.2-1.4,3.9-1.4l1.7-0.1v-1.4c0-1.5-0.2-2.6-0.6-3.2c-0.4-0.7-1-1-1.9-1s-1.9,0.3-2.8,0.9l-0.6-1.1
		c1.1-0.7,2.3-1,3.5-1c1.3,0,2.3,0.4,2.9,1.2c0.6,0.8,0.9,2.2,0.9,4.1v10.8L438.2,321.9L438.2,321.9z M434.8,321
		c1,0,1.8-0.5,2.4-1.5s0.8-2.4,0.8-4.2v-1.7l-1.7,0.1c-1.3,0.1-2.3,0.4-2.9,1.1c-0.6,0.6-0.9,1.6-0.9,2.8s0.2,2,0.6,2.5
		S434.1,321,434.8,321z"/>
	<path class="st2" d="M447.6,322.2c-3.1,0-4.7-2.7-4.7-8.2c0-2.7,0.4-4.7,1.2-6.2c0.8-1.4,1.9-2.1,3.5-2.1c0.7,0,1.4,0.2,2.1,0.6
		c0.6,0.4,1.2,1,1.6,1.7h0.1l-0.1-1.8v-7.1h1.4v22.8h-1.2l-0.1-2.2h-0.1c-0.4,0.8-0.9,1.4-1.5,1.9
		C449.1,322,448.4,322.2,447.6,322.2z M447.7,321c1.1,0,2-0.5,2.6-1.5s0.9-2.5,0.9-4.5v-0.9c0-2.4-0.3-4.2-0.9-5.3s-1.5-1.7-2.7-1.7
		s-2,0.6-2.5,1.8c-0.5,1.2-0.8,2.9-0.8,5.2c0,2.3,0.3,4,0.8,5.2C445.7,320.4,446.5,321,447.7,321z"/>
	<path class="st2" d="M461.5,322.2c-1.7,0-3-0.7-3.9-2.1s-1.4-3.4-1.4-6c0-2.7,0.4-4.8,1.2-6.2s2-2.1,3.5-2.1c1.3,0,2.4,0.6,3.2,1.9
		c0.8,1.3,1.2,2.9,1.2,5.1v1.3h-7.6c0,2.3,0.4,4,1,5.2s1.6,1.7,2.9,1.7c1,0,2.1-0.3,3.2-1v1.3C463.7,321.9,462.7,322.2,461.5,322.2z
		 M460.9,307c-1.9,0-3,1.9-3.2,5.7h6.2c0-1.7-0.3-3.1-0.8-4.2S461.8,307,460.9,307z"/>
	<path class="st2" d="M482.6,321.9v-10.8c0-2.7-0.8-4-2.4-4c-1.1,0-1.9,0.5-2.4,1.4s-0.7,2.3-0.7,4.1v9.3h-1.4v-10.8
		c0-1.3-0.2-2.4-0.6-3c-0.4-0.7-1-1-1.8-1c-1.1,0-1.8,0.5-2.3,1.4s-0.7,2.5-0.7,4.7v8.7h-1.4V306h1.2l0.1,2.2h0.1
		c0.6-1.7,1.7-2.5,3.3-2.5c0.9,0,1.6,0.2,2.1,0.7s0.9,1.2,1.1,2.1c0.4-1,0.9-1.7,1.4-2.1c0.6-0.4,1.3-0.6,2.2-0.6
		c1.2,0,2.1,0.5,2.7,1.4s0.8,2.4,0.8,4.4V322L482.6,321.9L482.6,321.9z"/>
	<path class="st2" d="M488,301.6c0-0.4,0.1-0.8,0.3-1c0.2-0.2,0.4-0.4,0.7-0.4c0.3,0,0.5,0.1,0.6,0.4s0.2,0.6,0.2,1s-0.1,0.8-0.2,1
		c-0.2,0.2-0.4,0.4-0.6,0.4c-0.3,0-0.5-0.1-0.7-0.4C488.1,302.4,488,302,488,301.6z M489.7,321.9h-1.4V306h1.4V321.9z"/>
	<path class="st2" d="M498.1,322.2c-1.6,0-2.8-0.7-3.6-2.1s-1.2-3.4-1.2-6.1s0.4-4.8,1.2-6.2c0.8-1.4,2-2.1,3.7-2.1
		c1,0,1.8,0.2,2.5,0.5l-0.5,1.2c-0.7-0.3-1.3-0.5-1.8-0.5c-2.4,0-3.6,2.3-3.6,7c0,4.6,1.2,6.9,3.6,6.9c0.7,0,1.5-0.2,2.3-0.5v1.2
		c-0.3,0.2-0.7,0.3-1.2,0.4C498.9,322.1,498.5,322.2,498.1,322.2z"/>
	<path class="st2" d="M509.4,321.9v-21.4h1.5v20h6.1v1.4H509.4z"/>
	<path class="st2" d="M519.5,301.6c0-0.4,0.1-0.8,0.3-1s0.4-0.4,0.7-0.4s0.5,0.1,0.6,0.4s0.2,0.6,0.2,1s-0.1,0.8-0.2,1
		c-0.2,0.2-0.4,0.4-0.6,0.4c-0.3,0-0.5-0.1-0.7-0.4C519.6,302.4,519.5,302,519.5,301.6z M521.1,321.9h-1.4V306h1.4V321.9z"/>
	<path class="st2" d="M530.4,305.7c3.2,0,4.7,2.7,4.7,8.2c0,2.7-0.4,4.7-1.2,6.2c-0.8,1.4-1.9,2.1-3.4,2.1c-0.8,0-1.5-0.2-2.1-0.6
		s-1.2-1-1.6-1.9h-0.1l-0.2,2.2h-1.2v-22.8h1.4v7.1l-0.1,1.9h0.1C527.7,306.5,528.9,305.7,530.4,305.7z M530.4,307
		c-1.2,0-2.1,0.5-2.7,1.6c-0.6,1.1-0.8,2.8-0.8,5.3v0.4c0,4.4,1.2,6.7,3.6,6.7c1.1,0,1.9-0.6,2.4-1.7s0.8-2.9,0.8-5.3
		c0-2.3-0.3-4-0.8-5.2C532.4,307.6,531.5,307,530.4,307z"/>
	<path class="st2" d="M543.2,305.7c0.5,0,1,0.1,1.4,0.2l-0.3,1.4c-0.4-0.1-0.7-0.2-1.1-0.2c-0.5,0-1.1,0.3-1.5,0.8s-0.8,1.3-1.1,2.3
		s-0.4,2.1-0.4,3.3v8.4h-1.4V306h1.2l0.1,2.8h0.1C540.9,306.7,541.9,305.7,543.2,305.7z"/>
	<path class="st2" d="M553.2,321.9l-0.2-2.2l0,0c-0.8,1.7-1.9,2.5-3.5,2.5c-1,0-1.9-0.4-2.5-1.2c-0.6-0.8-1-1.9-1-3.3
		c0-1.5,0.5-2.7,1.4-3.6s2.2-1.4,3.9-1.4l1.7-0.1v-1.4c0-1.5-0.2-2.6-0.6-3.2c-0.4-0.7-1-1-1.9-1s-1.9,0.3-2.8,0.9l-0.6-1.1
		c1.1-0.7,2.3-1,3.5-1c1.3,0,2.3,0.4,2.9,1.2c0.6,0.8,0.9,2.2,0.9,4.1v10.8L553.2,321.9L553.2,321.9z M549.8,321
		c1,0,1.8-0.5,2.4-1.5c0.6-1,0.8-2.4,0.8-4.2v-1.7l-1.7,0.1c-1.3,0.1-2.3,0.4-2.9,1.1c-0.6,0.6-0.9,1.6-0.9,2.8s0.2,2,0.6,2.5
		S549.1,321,549.8,321z"/>
	<path class="st2" d="M563.1,305.7c0.5,0,1,0.1,1.4,0.2l-0.3,1.4c-0.4-0.1-0.7-0.2-1.1-0.2c-0.5,0-1.1,0.3-1.5,0.8s-0.8,1.3-1.1,2.3
		s-0.4,2.1-0.4,3.3v8.4h-1.4V306h1.2l0.1,2.8h0.1C560.8,306.7,561.8,305.7,563.1,305.7z"/>
	<path class="st2" d="M566.8,301.6c0-0.4,0.1-0.8,0.3-1s0.4-0.4,0.7-0.4s0.5,0.1,0.6,0.4s0.2,0.6,0.2,1s-0.1,0.8-0.2,1
		c-0.2,0.2-0.4,0.4-0.6,0.4c-0.3,0-0.5-0.1-0.7-0.4C566.9,302.4,566.8,302,566.8,301.6z M568.4,321.9H567V306h1.4V321.9z"/>
	<path class="st2" d="M577.3,322.2c-1.7,0-3-0.7-3.9-2.1s-1.4-3.4-1.4-6c0-2.7,0.4-4.8,1.2-6.2s2-2.1,3.5-2.1c1.3,0,2.4,0.6,3.2,1.9
		s1.2,2.9,1.2,5.1v1.3h-7.6c0,2.3,0.4,4,1,5.2s1.6,1.7,2.9,1.7c1,0,2.1-0.3,3.2-1v1.3C579.5,321.9,578.4,322.2,577.3,322.2z
		 M576.6,307c-1.9,0-3,1.9-3.2,5.7h6.2c0-1.7-0.3-3.1-0.8-4.2S577.6,307,576.6,307z"/>
	<path class="st2" d="M591,317.9c0,1.3-0.4,2.4-1.1,3.1c-0.7,0.8-1.7,1.1-3.1,1.1c-0.7,0-1.4-0.1-1.9-0.3c-0.6-0.2-1-0.4-1.3-0.6
		v-1.6c0.4,0.4,0.9,0.7,1.5,0.9c0.6,0.2,1.2,0.3,1.9,0.3c0.8,0,1.5-0.3,2-0.8s0.7-1.3,0.7-2.2c0-0.7-0.2-1.3-0.5-1.8s-1-1-2-1.6
		c-1.1-0.7-1.9-1.2-2.3-1.6c-0.4-0.4-0.7-0.9-0.9-1.4s-0.3-1.1-0.3-1.8c0-1.1,0.4-2.1,1.2-2.8c0.8-0.7,1.8-1.1,3-1.1
		c1.3,0,2.4,0.3,3.3,0.9l-0.7,1.2c-0.8-0.5-1.7-0.8-2.6-0.8c-0.8,0-1.5,0.2-2,0.7s-0.7,1.1-0.7,1.9c0,0.7,0.2,1.3,0.5,1.8
		s1.1,1,2.1,1.7c1.1,0.7,1.8,1.2,2.2,1.7c0.4,0.4,0.7,0.9,0.9,1.4C590.9,316.7,591,317.3,591,317.9z"/>
</g>
</svg>
