<?xml version="1.0" encoding="utf-8"?>
<!-- Generator: Adobe Illustrator 25.2.0, SVG Export Plug-In . SVG Version: 6.00 Build 0)  -->
<svg version="1.1" id="Layer_1" xmlns="http://www.w3.org/2000/svg" xmlns:xlink="http://www.w3.org/1999/xlink" x="0px" y="0px"
	 viewBox="0 0 633 337.5" style="enable-background:new 0 0 633 337.5;" xml:space="preserve">
<style type="text/css">
	.st0{fill:none;}
	.st1{enable-background:new    ;}
	.st2{fill:#FFFFFF;}
	.st3{fill:none;stroke:#FFFFFF;stroke-width:3;stroke-miterlimit:10;}
	.st4{fill:none;stroke:#FFFFFF;stroke-width:11;stroke-miterlimit:10;}
	.st5{fill:none;stroke:#FFFFFF;stroke-width:6;stroke-miterlimit:10;}
	.st6{fill:none;stroke:#FFFFFF;stroke-width:2;stroke-miterlimit:10;}
	.st7{fill:none;stroke:#FFFFFF;stroke-width:0.5;stroke-miterlimit:10;}
</style>
<rect x="16.4" y="137.6" class="st0" width="600.7" height="188.4"/>
<g class="st1">
	<path class="st2" d="M25.3,143H41c6.4,0,11.4,1.7,14.9,5s5.2,8.2,5.2,14.7c0,11.2-4.1,17.6-12.2,19.3v0.5c4.7,1,8.2,3.1,10.4,6.3
		c2.3,3.2,3.4,7.7,3.4,13.5c0,7.4-1.6,13.2-4.9,17.3c-3.3,4.2-7.8,6.2-13.7,6.2H25.3V143z M30.8,179.8h10.3c5.1,0,8.8-1.4,11-4.3
		c2.2-2.9,3.3-7.2,3.3-13c0-4.7-1.2-8.3-3.6-10.8c-2.4-2.5-6-3.7-10.8-3.7H30.8V179.8z M30.8,184.9v35.7h12.6
		c9.1,0,13.6-6.2,13.6-18.6c0-5.5-1.3-9.8-4-12.7c-2.7-3-6.4-4.4-11.2-4.4H30.8z"/>
	<path class="st2" d="M78.6,164.3v40.1c0,6.1,0.7,10.5,2.2,13.3c1.4,2.8,3.7,4.2,6.7,4.2c4.6,0,8-1.9,10.1-5.6
		c2.2-3.8,3.2-9.8,3.2-18.2v-33.8h5.3v61.5h-4.5l-0.7-8.6h-0.5c-1.3,3.1-3.1,5.5-5.4,7.2s-4.8,2.5-7.6,2.5c-4.9,0-8.5-1.8-10.8-5.3
		s-3.4-9.3-3.4-17.2v-40.1L78.6,164.3L78.6,164.3z"/>
	<path class="st2" d="M119.6,147.3c0-1.7,0.3-3,1-4c0.7-0.9,1.6-1.4,2.7-1.4c1,0,1.8,0.5,2.4,1.4c0.6,0.9,0.9,2.3,0.9,4
		c0,1.6-0.3,2.9-0.9,3.9s-1.4,1.4-2.4,1.4c-1.1,0-2-0.5-2.7-1.4C120,150.2,119.6,148.9,119.6,147.3z M125.8,225.8h-5.3v-61.5h5.3
		V225.8z"/>
	<path class="st2" d="M145.4,225.8h-5.3v-88.1h5.3V225.8z"/>
	<path class="st2" d="M174.7,226.9c-11.8,0-17.8-10.6-17.8-31.8c0-10.4,1.5-18.4,4.4-23.8c3-5.5,7.3-8.2,13.1-8.2
		c2.7,0,5.3,0.8,7.8,2.4s4.4,3.8,5.9,6.6h0.4l-0.2-6.9v-27.6h5.3v88.1h-4.4l-0.4-8.6h-0.5c-1.5,3.1-3.4,5.5-5.7,7.2
		C180.3,226.1,177.6,226.9,174.7,226.9z M175,222.2c4.3,0,7.6-2,9.9-6c2.3-4,3.5-9.8,3.5-17.6v-3.5c0-9.3-1.1-16.1-3.3-20.4
		c-2.2-4.3-5.6-6.5-10.2-6.5c-4.4,0-7.5,2.3-9.4,6.9c-1.9,4.6-2.9,11.3-2.9,20.1s1,15.5,3,20.1C167.4,219.9,170.6,222.2,175,222.2z"
		/>
	<path class="st2" d="M207.2,147.3c0-1.7,0.3-3,1-4c0.7-0.9,1.6-1.4,2.7-1.4c1,0,1.8,0.5,2.4,1.4c0.6,0.9,0.9,2.3,0.9,4
		c0,1.6-0.3,2.9-0.9,3.9c-0.6,1-1.4,1.4-2.4,1.4c-1.1,0-2-0.5-2.7-1.4C207.5,150.2,207.2,148.9,207.2,147.3z M213.3,225.8H208v-61.5
		h5.3V225.8z"/>
	<path class="st2" d="M255.2,225.8v-42.4c0-10.2-3-15.3-9-15.3c-4.6,0-7.9,1.9-10,5.7s-3.2,9.9-3.2,18.2v33.8h-5.3v-61.5h4.5
		l0.5,8.6h0.5c1.3-3.1,3.1-5.5,5.5-7.2s5-2.5,7.7-2.5c4.7,0,8.3,1.6,10.6,4.8c2.4,3.2,3.5,8.3,3.5,15.4v42.5L255.2,225.8
		L255.2,225.8z"/>
	<path class="st2" d="M306.5,164.3v3.8l-8.3,1c1.1,1.5,2,3.6,2.8,6.3c0.7,2.7,1.1,5.5,1.1,8.4c0,6-1.3,10.8-4,14.5
		s-6.2,5.6-10.6,5.6H286l-1.2-0.1c-1.8,1.3-3.2,2.6-4.2,3.9c-1,1.3-1.5,2.8-1.5,4.5s0.7,3.1,2,4c1.3,1,3.2,1.4,5.5,1.4h3.8
		c5.4,0,9.6,1.4,12.6,4.2s4.5,6.9,4.5,12.3c0,6-2,10.8-6,14.3s-9.3,5.3-15.9,5.3c-5.5,0-9.7-1.4-12.7-4.2s-4.4-6.9-4.4-12.1
		c0-3.9,1-7.1,2.9-9.9c1.9-2.7,5-4.9,9.2-6.5c-1.9-0.8-3.4-2-4.5-3.5s-1.7-3.2-1.7-5.3c0-1.8,0.6-3.5,1.8-5c1.2-1.5,3-3,5.2-4.7
		c-3.1-1.4-5.5-3.8-7.1-7s-2.4-7-2.4-11.3c0-6.5,1.4-11.7,4.1-15.5s6.5-5.7,11.2-5.7c2.5,0,4.7,0.4,6.4,1.2h12.9V164.3z
		 M273.7,236.8c0,3.9,1,6.9,3,9.1c2,2.2,5,3.3,9.1,3.3c5,0,9-1.3,11.9-4c2.9-2.6,4.4-6.3,4.4-10.9c0-3.7-1-6.6-3-8.6s-4.9-3-8.7-3
		h-3.9c-3.7,0-6.7,1.3-9.1,3.9S273.7,232.6,273.7,236.8z M277,184.4c0,5,0.9,8.8,2.8,11.4c1.8,2.6,4.3,3.9,7.3,3.9
		c6.5,0,9.8-5.3,9.8-15.9c0-5.1-0.8-9.1-2.5-12s-4.1-4.3-7.3-4.3c-3.3,0-5.8,1.5-7.5,4.4S277,179,277,184.4z"/>
	<path class="st2" d="M334.8,143h15.7c6.4,0,11.4,1.7,14.9,5s5.2,8.2,5.2,14.7c0,11.2-4.1,17.6-12.2,19.3v0.5
		c4.7,1,8.2,3.1,10.4,6.3c2.3,3.2,3.4,7.7,3.4,13.5c0,7.4-1.6,13.2-4.9,17.3c-3.3,4.2-7.8,6.2-13.7,6.2h-18.9V143H334.8z
		 M340.3,179.8h10.3c5.1,0,8.8-1.4,11-4.3c2.2-2.9,3.3-7.2,3.3-13c0-4.7-1.2-8.3-3.6-10.8s-6-3.7-10.8-3.7h-10.2L340.3,179.8
		L340.3,179.8z M340.3,184.9v35.7h12.6c9.1,0,13.6-6.2,13.6-18.6c0-5.5-1.3-9.8-4-12.7c-2.7-3-6.4-4.4-11.2-4.4H340.3z"/>
	<path class="st2" d="M399.8,163.1c1.9,0,3.7,0.3,5.3,0.8l-1.3,5.4c-1.3-0.6-2.7-0.8-4.2-0.8c-2.1,0-4,1.1-5.8,3.2
		c-1.8,2.1-3.2,5.1-4.2,8.9c-1,3.8-1.5,8-1.5,12.6v32.6h-5.3v-61.5h4.4l0.6,10.8h0.4C391.1,167.1,395,163.1,399.8,163.1z"/>
	<path class="st2" d="M411.6,147.3c0-1.7,0.3-3,1-4c0.7-0.9,1.6-1.4,2.7-1.4c1,0,1.8,0.5,2.4,1.4c0.6,0.9,0.9,2.3,0.9,4
		c0,1.6-0.3,2.9-0.9,3.9s-1.4,1.4-2.4,1.4c-1.1,0-2-0.5-2.7-1.4C411.9,150.2,411.6,148.9,411.6,147.3z M417.7,225.8h-5.3v-61.5h5.3
		V225.8z"/>
	<path class="st2" d="M446.9,226.9c-11.8,0-17.8-10.6-17.8-31.8c0-10.4,1.5-18.4,4.4-23.8c3-5.5,7.3-8.2,13.1-8.2
		c2.7,0,5.3,0.8,7.8,2.4s4.4,3.8,5.9,6.6h0.4l-0.2-6.9v-27.6h5.3v88.1h-4.4l-0.4-8.6h-0.5c-1.5,3.1-3.4,5.5-5.7,7.2
		C452.6,226.1,449.9,226.9,446.9,226.9z M447.3,222.2c4.3,0,7.6-2,9.9-6s3.5-9.8,3.5-17.6v-3.5c0-9.3-1.1-16.1-3.3-20.4
		c-2.2-4.3-5.6-6.5-10.2-6.5c-4.4,0-7.5,2.3-9.4,6.9c-1.9,4.6-2.9,11.3-2.9,20.1s1,15.5,3,20.1C439.7,219.9,442.9,222.2,447.3,222.2
		z"/>
	<path class="st2" d="M512.2,164.3v3.8l-8.3,1c1.1,1.5,2,3.6,2.8,6.3c0.7,2.7,1.1,5.5,1.1,8.4c0,6-1.3,10.8-4,14.5
		s-6.2,5.6-10.6,5.6h-1.3l-1.2-0.1c-1.8,1.3-3.2,2.6-4.2,3.9c-1,1.3-1.5,2.8-1.5,4.5s0.7,3.1,2,4c1.3,1,3.2,1.4,5.5,1.4h3.8
		c5.4,0,9.6,1.4,12.6,4.2s4.5,6.9,4.5,12.3c0,6-2,10.8-6,14.3s-9.3,5.3-15.9,5.3c-5.5,0-9.7-1.4-12.7-4.2s-4.4-6.9-4.4-12.1
		c0-3.9,1-7.1,2.9-9.9c1.9-2.7,5-4.9,9.2-6.5c-1.9-0.8-3.4-2-4.5-3.5s-1.7-3.2-1.7-5.3c0-1.8,0.6-3.5,1.8-5c1.2-1.5,3-3,5.2-4.7
		c-3.1-1.4-5.5-3.8-7.1-7s-2.4-7-2.4-11.3c0-6.5,1.4-11.7,4.1-15.5s6.5-5.7,11.2-5.7c2.5,0,4.7,0.4,6.4,1.2h12.7V164.3z
		 M479.4,236.8c0,3.9,1,6.9,3,9.1c2,2.2,5,3.3,9.1,3.3c5,0,9-1.3,11.9-4c2.9-2.6,4.4-6.3,4.4-10.9c0-3.7-1-6.6-3-8.6s-4.9-3-8.7-3
		h-3.9c-3.7,0-6.7,1.3-9.1,3.9S479.4,232.6,479.4,236.8z M482.7,184.4c0,5,0.9,8.8,2.8,11.4c1.8,2.6,4.3,3.9,7.3,3.9
		c6.5,0,9.8-5.3,9.8-15.9c0-5.1-0.8-9.1-2.5-12s-4.1-4.3-7.3-4.3c-3.3,0-5.8,1.5-7.5,4.4S482.7,179,482.7,184.4z"/>
	<path class="st2" d="M537.2,226.9c-6.4,0-11.4-2.8-14.9-8.3s-5.2-13.2-5.2-23.1c0-10.5,1.5-18.5,4.6-24s7.5-8.3,13.3-8.3
		c5.1,0,9,2.4,12,7.3c2.9,4.9,4.4,11.4,4.4,19.6v5h-28.9c0.1,8.9,1.3,15.7,3.8,20.1c2.4,4.5,6.1,6.7,11.1,6.7
		c3.8,0,7.8-1.3,12.1-3.8v5.2C545.6,225.7,541.5,226.9,537.2,226.9z M534.8,168c-7.3,0-11.4,7.4-12.1,22.1h23.4
		c0-6.8-1-12.1-3.1-16.1C541.1,170,538.3,168,534.8,168z"/>
	<path class="st2" d="M587,210.4c0,5.2-1.3,9.2-4,12.1c-2.7,2.9-6.6,4.4-11.7,4.4c-2.8,0-5.2-0.4-7.3-1.1s-3.7-1.5-4.9-2.4v-6.3
		c1.4,1.4,3.2,2.5,5.5,3.4c2.3,0.8,4.6,1.3,7,1.3c3.1,0,5.6-1,7.4-3.1c1.8-2.1,2.7-4.9,2.7-8.3c0-2.7-0.6-5-1.9-6.9s-3.8-4-7.4-6.4
		c-4.2-2.6-7-4.8-8.5-6.3s-2.7-3.4-3.5-5.3c-0.8-2-1.3-4.3-1.3-7c0-4.4,1.5-8.1,4.4-11c3-2.9,6.7-4.3,11.3-4.3c4.9,0,9,1.2,12.3,3.5
		l-2.8,4.7c-3.1-2.1-6.3-3.1-9.8-3.1c-3.1,0-5.7,0.9-7.5,2.8c-1.9,1.9-2.8,4.3-2.8,7.4c0,2.7,0.6,5,1.9,6.8c1.3,1.8,4,4,8.1,6.7
		c4,2.7,6.8,4.8,8.3,6.4c1.5,1.6,2.6,3.4,3.3,5.3C586.7,205.6,587,207.8,587,210.4z"/>
	<path class="st2" d="M596.7,170.2c0-4,1.5-6,4.4-6s4.4,2,4.4,6c0,2.2-0.4,3.7-1.3,4.6c-0.9,0.9-1.9,1.4-3.1,1.4
		C598.2,176.3,596.7,174.2,596.7,170.2z M596.7,220.7c0-4,1.5-6.1,4.4-6.1c1.2,0,2.2,0.5,3.1,1.4c0.9,0.9,1.3,2.5,1.3,4.7
		s-0.4,3.7-1.3,4.6c-0.9,0.9-1.9,1.4-3.1,1.4C598.2,226.7,596.7,224.7,596.7,220.7z"/>
</g>
<rect x="479.8" y="291.7" class="st0" width="119.2" height="23.4"/>
<g class="st1">
	<path class="st2" d="M509.8,303l1.2-4.1h-3l0.1-0.8h3.2l1.4-4.7h0.9l-1.4,4.7h3.7l1.4-4.7h0.9l-1.4,4.7h2.9l-0.1,0.8h-3.1l-1.2,4.1
		h3.1l-0.1,0.8H515l-1.4,4.6h-0.9l1.4-4.6h-3.7l-1.4,4.6h-0.9l1.4-4.6h-2.9l0.1-0.8H509.8z M510.6,303h3.7l1.2-4.1h-3.7L510.6,303z"
		/>
	<path class="st2" d="M528.7,308.4h-8.9l0.2-1.1l4.6-4.1c1.4-1.2,2.3-2.2,2.9-2.8c0.6-0.7,1-1.3,1.3-1.9s0.4-1.2,0.4-1.8
		c0-0.8-0.2-1.4-0.7-1.8s-1.1-0.7-2-0.7c-1.2,0-2.3,0.4-3.4,1.3l-0.6-0.7c1.2-1,2.6-1.5,4-1.5c1.2,0,2.1,0.3,2.8,0.9s1,1.4,1,2.4
		c0,0.8-0.1,1.5-0.4,2.1c-0.3,0.7-0.8,1.4-1.5,2.2s-1.7,1.8-3.2,3.1l-3.9,3.5l0,0h7.5L528.7,308.4z"/>
	<path class="st2" d="M541.9,298c0,1.4-0.1,2.8-0.4,4.2s-0.7,2.6-1.2,3.5c-0.5,1-1.1,1.7-1.9,2.2c-0.7,0.5-1.6,0.7-2.5,0.7
		c-1.2,0-2.1-0.4-2.7-1.3c-0.6-0.9-0.9-2.2-0.9-4c0-1.3,0.2-2.6,0.5-3.9s0.7-2.5,1.3-3.4c0.5-0.9,1.2-1.7,1.9-2.1
		c0.7-0.5,1.6-0.7,2.5-0.7C540.8,293.2,541.9,294.8,541.9,298z M538.3,294.1c-0.9,0-1.7,0.4-2.5,1.2c-0.7,0.8-1.3,1.9-1.8,3.4
		s-0.7,3-0.7,4.6c0,1.5,0.2,2.6,0.6,3.4c0.4,0.7,1.1,1.1,2,1.1c1,0,1.8-0.4,2.5-1.1s1.3-1.9,1.7-3.5c0.4-1.5,0.6-3.2,0.6-5
		c0-1.4-0.2-2.4-0.6-3C539.9,294.4,539.2,294.1,538.3,294.1z"/>
	<path class="st2" d="M551.8,308.4h-8.9l0.2-1.1l4.6-4.1c1.4-1.2,2.3-2.2,2.9-2.8c0.6-0.7,1-1.3,1.3-1.9s0.4-1.2,0.4-1.8
		c0-0.8-0.2-1.4-0.7-1.8s-1.1-0.7-2-0.7c-1.2,0-2.3,0.4-3.4,1.3l-0.6-0.7c1.2-1,2.6-1.5,4-1.5c1.2,0,2.1,0.3,2.8,0.9s1,1.4,1,2.4
		c0,0.8-0.1,1.5-0.4,2.1c-0.3,0.7-0.8,1.4-1.5,2.2s-1.7,1.8-3.2,3.1l-3.9,3.5l0,0h7.5L551.8,308.4z"/>
	<path class="st2" d="M559.5,308.4h-1.1l2.3-10.8c0.1-0.6,0.4-1.6,0.8-3c-0.3,0.2-0.5,0.5-0.8,0.6c-0.2,0.2-1.1,0.7-2.6,1.7
		l-0.5-0.8l4.2-2.6h0.9L559.5,308.4z"/>
	<path class="st2" d="M572.3,297.1c1.6,0,2.5,0.7,2.9,2.2h0.1l0.6-2.1h0.8l-2.3,11.1h-0.8l0.5-2.8H574c-0.6,1-1.2,1.7-1.9,2.2
		s-1.5,0.8-2.4,0.8c-1.9,0-2.9-1.3-2.9-3.8c0-1.3,0.3-2.6,0.8-3.9s1.2-2.2,2.1-2.8C570.3,297.4,571.3,297.1,572.3,297.1z
		 M569.8,307.7c0.6,0,1.2-0.2,1.8-0.6s1.1-1,1.6-1.7s0.8-1.5,1.1-2.4s0.4-1.6,0.4-2.2c0-0.5-0.1-1-0.3-1.5c-0.2-0.4-0.4-0.8-0.8-1
		c-0.3-0.2-0.8-0.4-1.3-0.4c-0.8,0-1.6,0.3-2.3,0.8s-1.2,1.4-1.7,2.5c-0.4,1.1-0.7,2.2-0.7,3.3c0,1,0.2,1.8,0.5,2.3
		C568.6,307.5,569.1,307.7,569.8,307.7z"/>
	<path class="st2" d="M579,308.4h-1l3.4-16h1L579,308.4z"/>
	<path class="st2" d="M588.8,297.1c1.6,0,2.5,0.7,2.9,2.2h0.1l0.6-2.1h0.8l-2.3,11.1H590l0.5-2.8h-0.1c-0.6,1-1.2,1.7-1.9,2.2
		s-1.5,0.8-2.4,0.8c-1.9,0-2.9-1.3-2.9-3.8c0-1.3,0.3-2.6,0.8-3.9c0.5-1.2,1.2-2.2,2.1-2.8C586.8,297.4,587.8,297.1,588.8,297.1z
		 M586.3,307.7c0.6,0,1.2-0.2,1.8-0.6s1.1-1,1.6-1.7s0.8-1.5,1.1-2.4s0.4-1.6,0.4-2.2c0-0.5-0.1-1-0.3-1.5c-0.2-0.4-0.4-0.8-0.8-1
		c-0.3-0.2-0.8-0.4-1.3-0.4c-0.8,0-1.6,0.3-2.3,0.8s-1.2,1.4-1.7,2.5c-0.4,1.1-0.7,2.2-0.7,3.3c0,1,0.2,1.8,0.5,2.3
		C585,307.5,585.6,307.7,586.3,307.7z"/>
	<path class="st2" d="M600.4,297.1c1.2,0,2.2,0.4,2.9,1.1s1,1.8,1,3.1c0,1.3-0.2,2.6-0.7,3.8c-0.5,1.2-1.2,2.1-2,2.7
		s-1.8,0.9-2.9,0.9c-1.3,0-2.2-0.4-2.9-1.1s-1-1.8-1-3.2c0-1.3,0.2-2.5,0.7-3.7c0.5-1.1,1.2-2,2-2.6S599.3,297.1,600.4,297.1z
		 M600.3,297.9c-0.8,0-1.6,0.3-2.3,0.8s-1.2,1.3-1.6,2.3c-0.4,1-0.6,2.1-0.6,3.2c0,2.3,1,3.5,2.9,3.5c0.9,0,1.6-0.3,2.3-0.8
		s1.2-1.3,1.6-2.3c0.4-1,0.6-2.2,0.6-3.4c0-1.1-0.3-1.9-0.7-2.4C601.9,298.2,601.2,297.9,600.3,297.9z"/>
</g>
<rect x="25.1" y="290.2" class="st0" width="512.8" height="42.9"/>
<g class="st1">
	<path class="st2" d="M41.4,308.4h-3.8l-2.1-8.3c-0.1-0.3-0.2-0.9-0.4-1.8s-0.3-1.5-0.3-1.9c0,0.4-0.2,1-0.3,1.9
		c-0.2,0.9-0.3,1.5-0.4,1.8l-2.1,8.2h-3.8l-4-15.7h3.3l2,8.6c0.4,1.6,0.6,3,0.8,4.1c0-0.4,0.1-1,0.3-1.9c0.2-0.9,0.3-1.5,0.4-2
		l2.3-8.8h3.1l2.3,8.8c0.1,0.4,0.2,1,0.4,1.8s0.3,1.5,0.3,2.1c0.1-0.6,0.2-1.3,0.3-2.1c0.2-0.8,0.3-1.5,0.4-2l2-8.6h3.3L41.4,308.4z
		"/>
	<path class="st2" d="M52.6,308.6c-1.9,0-3.4-0.5-4.5-1.6s-1.6-2.6-1.6-4.5c0-2,0.5-3.6,1.5-4.7s2.4-1.6,4.2-1.6c1.7,0,3,0.5,4,1.5
		s1.4,2.3,1.4,4v1.6h-7.7c0,0.9,0.3,1.7,0.8,2.2s1.2,0.8,2.2,0.8c0.7,0,1.4-0.1,2.1-0.2s1.3-0.4,2-0.7v2.5c-0.6,0.3-1.2,0.5-1.8,0.6
		C54.3,308.6,53.5,308.6,52.6,308.6z M52.1,298.5c-0.7,0-1.2,0.2-1.6,0.7c-0.4,0.4-0.6,1.1-0.7,1.9h4.6c0-0.8-0.2-1.4-0.6-1.9
		S52.8,298.5,52.1,298.5z"/>
	<path class="st2" d="M63.9,308.6c-1.4,0-2.5-0.5-3.3-1.6s-1.2-2.6-1.2-4.6s0.4-3.5,1.2-4.6s1.9-1.6,3.4-1.6c1.5,0,2.7,0.6,3.5,1.8
		h0.1c-0.2-0.9-0.2-1.7-0.2-2.4v-3.8h3.3v16.7h-2.5l-0.6-1.6h-0.1C66.6,308,65.5,308.6,63.9,308.6z M65.1,306c0.8,0,1.5-0.2,1.8-0.7
		c0.4-0.5,0.6-1.3,0.6-2.5v-0.4c0-1.3-0.2-2.2-0.6-2.8s-1-0.8-1.9-0.8c-0.7,0-1.3,0.3-1.7,0.9s-0.6,1.5-0.6,2.7s0.2,2.1,0.6,2.7
		C63.7,305.7,64.3,306,65.1,306z"/>
	<path class="st2" d="M85.1,308.4h-3.3v-7c0-0.9-0.2-1.5-0.5-2c-0.3-0.4-0.8-0.6-1.5-0.6c-0.9,0-1.6,0.3-2,0.9s-0.6,1.6-0.6,3v5.7
		h-3.3v-12h2.5l0.4,1.5H77c0.4-0.6,0.9-1,1.5-1.3s1.4-0.4,2.2-0.4c1.4,0,2.5,0.4,3.2,1.1c0.7,0.8,1.1,1.8,1.1,3.3v7.8H85.1z"/>
	<path class="st2" d="M94,308.6c-1.9,0-3.4-0.5-4.5-1.6s-1.6-2.6-1.6-4.5c0-2,0.5-3.6,1.5-4.7s2.4-1.6,4.2-1.6c1.7,0,3,0.5,4,1.5
		s1.4,2.3,1.4,4v1.6h-7.7c0,0.9,0.3,1.7,0.8,2.2s1.2,0.8,2.2,0.8c0.7,0,1.4-0.1,2.1-0.2s1.3-0.4,2-0.7v2.5c-0.6,0.3-1.2,0.5-1.8,0.6
		C95.7,308.6,94.9,308.6,94,308.6z M93.5,298.5c-0.7,0-1.2,0.2-1.6,0.7c-0.4,0.4-0.6,1.1-0.7,1.9h4.6c0-0.8-0.2-1.4-0.6-1.9
		C94.7,298.7,94.2,298.5,93.5,298.5z"/>
	<path class="st2" d="M109.9,304.9c0,1.2-0.4,2.2-1.3,2.8c-0.9,0.6-2.1,1-3.8,1c-0.9,0-1.6-0.1-2.2-0.2s-1.2-0.3-1.7-0.5v-2.7
		c0.6,0.3,1.3,0.5,2.1,0.7c0.8,0.2,1.4,0.3,2,0.3c1.2,0,1.8-0.3,1.8-1c0-0.3-0.1-0.5-0.2-0.6c-0.2-0.2-0.4-0.3-0.8-0.5
		s-0.9-0.4-1.5-0.7c-0.9-0.4-1.6-0.7-2-1.1c-0.4-0.3-0.7-0.7-0.9-1.1c-0.2-0.4-0.3-1-0.3-1.6c0-1.1,0.4-1.9,1.2-2.5
		c0.8-0.6,2-0.9,3.5-0.9c1.4,0,2.9,0.3,4.2,0.9l-1,2.4c-0.6-0.3-1.2-0.5-1.7-0.6s-1.1-0.2-1.6-0.2c-1,0-1.5,0.3-1.5,0.8
		c0,0.3,0.2,0.5,0.5,0.8c0.3,0.2,1,0.5,2,1c0.9,0.4,1.6,0.7,2.1,1.1s0.8,0.7,1,1.1S109.9,304.3,109.9,304.9z"/>
	<path class="st2" d="M116.3,308.6c-1.4,0-2.5-0.5-3.3-1.6s-1.2-2.6-1.2-4.6s0.4-3.5,1.2-4.6c0.8-1.1,1.9-1.6,3.4-1.6
		s2.7,0.6,3.5,1.8h0.1c-0.2-0.9-0.2-1.7-0.2-2.4v-3.8h3.3v16.7h-2.5l-0.6-1.6h-0.1C118.9,308,117.8,308.6,116.3,308.6z M117.4,306
		c0.8,0,1.5-0.2,1.8-0.7c0.4-0.5,0.6-1.3,0.6-2.5v-0.4c0-1.3-0.2-2.2-0.6-2.8c-0.4-0.6-1-0.8-1.9-0.8c-0.7,0-1.3,0.3-1.7,0.9
		c-0.4,0.6-0.6,1.5-0.6,2.7s0.2,2.1,0.6,2.7C116.1,305.7,116.6,306,117.4,306z"/>
	<path class="st2" d="M134,308.4l-0.6-1.6h-0.1c-0.6,0.7-1.1,1.2-1.7,1.4c-0.6,0.3-1.3,0.4-2.3,0.4c-1.2,0-2.1-0.3-2.7-1
		c-0.7-0.7-1-1.6-1-2.8c0-1.3,0.4-2.2,1.3-2.8c0.9-0.6,2.2-0.9,4-1l2.1-0.1v-0.5c0-1.2-0.6-1.8-1.9-1.8c-1,0-2.1,0.3-3.4,0.9
		l-1.1-2.2c1.4-0.7,2.9-1.1,4.6-1.1c1.6,0,2.8,0.4,3.7,1.1s1.3,1.8,1.3,3.2v8H134V308.4z M133,302.9h-1.3c-1,0-1.7,0.2-2.1,0.5
		s-0.7,0.8-0.7,1.4c0,0.9,0.5,1.4,1.6,1.4c0.8,0,1.4-0.2,1.8-0.7c0.5-0.4,0.7-1,0.7-1.7V302.9z"/>
	<path class="st2" d="M137.9,296.4h3.6l2.3,6.8c0.2,0.6,0.3,1.3,0.4,2.1h0.1c0.1-0.7,0.2-1.4,0.5-2.1l2.2-6.8h3.5l-5.1,13.5
		c-0.5,1.3-1.1,2.2-2,2.8c-0.9,0.6-1.9,0.9-3,0.9c-0.6,0-1.1-0.1-1.7-0.2v-2.6c0.4,0.1,0.8,0.1,1.3,0.1c0.6,0,1.1-0.2,1.5-0.5
		c0.4-0.4,0.8-0.9,1-1.6l0.2-0.6L137.9,296.4z"/>
	<path class="st2" d="M151.1,303.9v-2.7h5.8v2.7H151.1z"/>
	<path class="st2" d="M162.8,308.4h-3.3v-15.7h9v2.7h-5.7v4h5.3v2.7h-5.3V308.4z"/>
	<path class="st2" d="M178,296.2c0.4,0,0.8,0,1.1,0.1l-0.2,3.1c-0.3-0.1-0.6-0.1-1-0.1c-1,0-1.9,0.3-2.4,0.8
		c-0.6,0.5-0.9,1.3-0.9,2.3v6.1h-3.3v-12h2.5l0.5,2h0.2c0.4-0.7,0.9-1.2,1.5-1.6C176.6,296.4,177.3,296.2,178,296.2z"/>
	<path class="st2" d="M181.2,293.3c0-1.1,0.6-1.6,1.8-1.6s1.8,0.5,1.8,1.6c0,0.5-0.1,0.9-0.4,1.2c-0.3,0.3-0.7,0.4-1.3,0.4
		C181.8,294.9,181.2,294.4,181.2,293.3z M184.6,308.4h-3.3v-12h3.3V308.4z"/>
	<path class="st2" d="M191.8,308.6c-1.4,0-2.5-0.5-3.3-1.6s-1.2-2.6-1.2-4.6s0.4-3.5,1.2-4.6s1.9-1.6,3.4-1.6s2.7,0.6,3.5,1.8h0.1
		c-0.2-0.9-0.2-1.7-0.2-2.4v-3.8h3.3v16.7H196l-0.6-1.6h-0.1C194.5,308,193.4,308.6,191.8,308.6z M193,306c0.8,0,1.5-0.2,1.8-0.7
		c0.4-0.5,0.6-1.3,0.6-2.5v-0.4c0-1.3-0.2-2.2-0.6-2.8c-0.4-0.6-1-0.8-1.9-0.8c-0.7,0-1.3,0.3-1.7,0.9s-0.6,1.5-0.6,2.7
		s0.2,2.1,0.6,2.7C191.6,305.7,192.2,306,193,306z"/>
	<path class="st2" d="M209.6,308.4l-0.6-1.6h-0.1c-0.6,0.7-1.1,1.2-1.7,1.4c-0.6,0.3-1.3,0.4-2.3,0.4c-1.2,0-2.1-0.3-2.7-1
		c-0.7-0.7-1-1.6-1-2.8c0-1.3,0.4-2.2,1.3-2.8c0.9-0.6,2.2-0.9,4-1l2.1-0.1v-0.5c0-1.2-0.6-1.8-1.9-1.8c-1,0-2.1,0.3-3.4,0.9
		l-1.1-2.2c1.4-0.7,2.9-1.1,4.6-1.1c1.6,0,2.8,0.4,3.7,1.1s1.3,1.8,1.3,3.2v8h-2.2V308.4z M208.6,302.9h-1.3c-1,0-1.7,0.2-2.1,0.5
		s-0.7,0.8-0.7,1.4c0,0.9,0.5,1.4,1.6,1.4c0.8,0,1.4-0.2,1.8-0.7c0.5-0.4,0.7-1,0.7-1.7V302.9z"/>
	<path class="st2" d="M213.5,296.4h3.6l2.3,6.8c0.2,0.6,0.3,1.3,0.4,2.1h0.1c0.1-0.7,0.2-1.4,0.5-2.1l2.2-6.8h3.5l-5.1,13.5
		c-0.5,1.3-1.1,2.2-2,2.8c-0.9,0.6-1.9,0.9-3,0.9c-0.6,0-1.1-0.1-1.7-0.2v-2.6c0.4,0.1,0.8,0.1,1.3,0.1c0.6,0,1.1-0.2,1.5-0.5
		c0.4-0.4,0.8-0.9,1-1.6l0.2-0.6L213.5,296.4z"/>
	<path class="st2" d="M231,306.1c-0.4,1.4-1,3.2-1.9,5.1h-2.4c0.5-1.9,0.8-3.7,1.1-5.4h3L231,306.1z"/>
	<path class="st2" d="M254.4,300.5c0,2.6-0.6,4.6-1.9,6s-3.1,2.1-5.5,2.1s-4.3-0.7-5.5-2.1s-1.9-3.4-1.9-6s0.6-4.6,1.9-6
		c1.3-1.4,3.1-2.1,5.6-2.1s4.3,0.7,5.5,2.1C253.7,295.9,254.4,297.9,254.4,300.5z M242.9,300.5c0,1.8,0.3,3.1,1,4s1.7,1.3,3,1.3
		c2.7,0,4-1.8,4-5.3s-1.3-5.3-4-5.3c-1.3,0-2.3,0.4-3,1.3C243.2,297.5,242.9,298.8,242.9,300.5z"/>
	<path class="st2" d="M262.2,308.6c-3.7,0-5.6-2.1-5.6-6.2c0-2,0.5-3.6,1.5-4.7s2.5-1.6,4.4-1.6c1.4,0,2.6,0.3,3.7,0.8l-1,2.5
		c-0.5-0.2-1-0.4-1.4-0.5s-0.9-0.2-1.3-0.2c-1.7,0-2.6,1.2-2.6,3.6c0,2.3,0.9,3.5,2.6,3.5c0.6,0,1.2-0.1,1.8-0.3
		c0.5-0.2,1.1-0.4,1.6-0.8v2.8c-0.5,0.3-1.1,0.6-1.6,0.7C263.7,308.6,263.1,308.6,262.2,308.6z"/>
	<path class="st2" d="M273.7,306c0.6,0,1.3-0.1,2.1-0.4v2.4c-0.8,0.4-1.8,0.5-3,0.5c-1.3,0-2.3-0.3-2.9-1s-0.9-1.7-0.9-3v-5.8h-1.6
		v-1.4l1.8-1.1l0.9-2.5h2.1v2.6h3.4v2.5h-3.4v5.8c0,0.5,0.1,0.8,0.4,1C273,305.9,273.3,306,273.7,306z"/>
	<path class="st2" d="M289.1,302.4c0,2-0.5,3.5-1.5,4.6s-2.5,1.7-4.3,1.7c-1.2,0-2.2-0.3-3.1-0.8s-1.6-1.2-2-2.2s-0.7-2-0.7-3.3
		c0-2,0.5-3.5,1.5-4.6s2.5-1.6,4.3-1.6c1.2,0,2.2,0.3,3.1,0.8s1.6,1.2,2,2.2S289.1,301.1,289.1,302.4z M280.8,302.4
		c0,1.2,0.2,2.1,0.6,2.7s1,0.9,1.9,0.9s1.5-0.3,1.9-0.9s0.6-1.5,0.6-2.7s-0.2-2.1-0.6-2.7s-1-0.9-1.9-0.9s-1.5,0.3-1.9,0.9
		C281,300.3,280.8,301.2,280.8,302.4z"/>
	<path class="st2" d="M298.5,296.2c1.4,0,2.5,0.6,3.3,1.7s1.2,2.6,1.2,4.5c0,2-0.4,3.5-1.2,4.6c-0.8,1.1-2,1.6-3.4,1.6
		s-2.5-0.5-3.3-1.5h-0.2l-0.5,1.3h-2.5v-16.7h3.3v3.9c0,0.5,0,1.3-0.1,2.4h0.1C295.9,296.8,297,296.2,298.5,296.2z M297.5,298.8
		c-0.8,0-1.4,0.2-1.8,0.7s-0.6,1.3-0.6,2.5v0.4c0,1.3,0.2,2.2,0.6,2.8c0.4,0.6,1,0.8,1.8,0.8c0.7,0,1.2-0.3,1.6-0.9s0.6-1.5,0.6-2.7
		s-0.2-2.1-0.6-2.7C298.7,299.1,298.2,298.8,297.5,298.8z"/>
	<path class="st2" d="M311.2,308.6c-1.9,0-3.4-0.5-4.5-1.6s-1.6-2.6-1.6-4.5c0-2,0.5-3.6,1.5-4.7s2.4-1.6,4.2-1.6c1.7,0,3,0.5,4,1.5
		s1.4,2.3,1.4,4v1.6h-7.7c0,0.9,0.3,1.7,0.8,2.2s1.2,0.8,2.2,0.8c0.7,0,1.4-0.1,2.1-0.2s1.3-0.4,2-0.7v2.5c-0.6,0.3-1.2,0.5-1.8,0.6
		C312.9,308.6,312.1,308.6,311.2,308.6z M310.7,298.5c-0.7,0-1.2,0.2-1.6,0.7c-0.4,0.4-0.6,1.1-0.7,1.9h4.6c0-0.8-0.2-1.4-0.6-1.9
		S311.4,298.5,310.7,298.5z"/>
	<path class="st2" d="M325.5,296.2c0.4,0,0.8,0,1.1,0.1l-0.2,3.1c-0.3-0.1-0.6-0.1-1-0.1c-1,0-1.9,0.3-2.4,0.8
		c-0.6,0.5-0.9,1.3-0.9,2.3v6.1h-3.3v-12h2.5l0.5,2h0.2c0.4-0.7,0.9-1.2,1.5-1.6C324,296.4,324.7,296.2,325.5,296.2z"/>
	<path class="st2" d="M344.6,308.4h-11v-2.3l3.9-4c1.2-1.2,1.9-2,2.3-2.5s0.6-0.9,0.8-1.3s0.2-0.8,0.2-1.2c0-0.6-0.2-1.1-0.5-1.4
		s-0.8-0.5-1.4-0.5s-1.2,0.1-1.8,0.4s-1.2,0.7-1.8,1.2l-1.8-2.1c0.8-0.7,1.4-1.1,1.9-1.4s1.1-0.5,1.7-0.6s1.3-0.2,2-0.2
		c1,0,1.8,0.2,2.6,0.5s1.3,0.9,1.8,1.5s0.6,1.4,0.6,2.2c0,0.7-0.1,1.4-0.4,2s-0.6,1.3-1.2,1.9c-0.5,0.7-1.5,1.6-2.8,2.8l-2,1.9v0.2
		h6.8L344.6,308.4L344.6,308.4z"/>
	<path class="st2" d="M347.7,308.4l5.9-12.9h-7.7v-2.8h11.3v2.1l-5.9,13.6L347.7,308.4L347.7,308.4z"/>
	<path class="st2" d="M358.5,303.9v-2.7h5.8v2.7H358.5z"/>
	<path class="st2" d="M376.8,308.4h-11v-2.3l3.9-4c1.2-1.2,1.9-2,2.3-2.5s0.6-0.9,0.8-1.3s0.2-0.8,0.2-1.2c0-0.6-0.2-1.1-0.5-1.4
		s-0.8-0.5-1.4-0.5s-1.2,0.1-1.8,0.4s-1.2,0.7-1.8,1.2l-1.8-2.1c0.8-0.7,1.4-1.1,1.9-1.4s1.1-0.5,1.7-0.6s1.3-0.2,2-0.2
		c1,0,1.8,0.2,2.6,0.5s1.3,0.9,1.8,1.5s0.6,1.4,0.6,2.2c0,0.7-0.1,1.4-0.4,2s-0.6,1.3-1.2,1.9c-0.5,0.7-1.5,1.6-2.8,2.8l-2,1.9v0.2
		h6.8L376.8,308.4L376.8,308.4z"/>
	<path class="st2" d="M389.3,299.4c0,3.1-0.7,5.4-2,6.9s-3.3,2.3-5.9,2.3c-0.9,0-1.6,0-2.1-0.2v-2.7c0.6,0.2,1.2,0.2,1.9,0.2
		c1.1,0,2-0.2,2.7-0.5s1.3-0.8,1.6-1.5c0.4-0.7,0.6-1.7,0.7-2.9h-0.1c-0.4,0.7-0.9,1.1-1.4,1.4s-1.2,0.4-2,0.4
		c-1.4,0-2.4-0.4-3.2-1.3c-0.8-0.9-1.2-2.1-1.2-3.7c0-1.7,0.5-3,1.4-4c1-1,2.3-1.5,3.9-1.5c1.2,0,2.2,0.3,3,0.8
		c0.9,0.5,1.5,1.3,2,2.4C389.1,296.8,389.3,298,389.3,299.4z M383.6,295.2c-0.7,0-1.2,0.2-1.6,0.7s-0.6,1.2-0.6,2s0.2,1.4,0.5,1.8
		s0.9,0.7,1.6,0.7s1.3-0.2,1.7-0.7c0.5-0.4,0.7-0.9,0.7-1.5c0-0.9-0.2-1.6-0.7-2.2C384.9,295.5,384.3,295.2,383.6,295.2z"/>
	<path class="st2" d="M395,306.1c-0.4,1.4-1,3.2-1.9,5.1h-2.4c0.5-1.9,0.8-3.7,1.1-5.4h3L395,306.1z"/>
	<path class="st2" d="M414,308.4h-11v-2.3l3.9-4c1.2-1.2,1.9-2,2.3-2.5s0.6-0.9,0.8-1.3s0.2-0.8,0.2-1.2c0-0.6-0.2-1.1-0.5-1.4
		s-0.8-0.5-1.4-0.5s-1.2,0.1-1.8,0.4s-1.2,0.7-1.8,1.2l-1.8-2.1c0.8-0.7,1.4-1.1,1.9-1.4s1.1-0.5,1.7-0.6s1.3-0.2,2-0.2
		c1,0,1.8,0.2,2.6,0.5s1.3,0.9,1.8,1.5s0.6,1.4,0.6,2.2c0,0.7-0.1,1.4-0.4,2s-0.6,1.3-1.2,1.9c-0.5,0.7-1.5,1.6-2.8,2.8l-2,1.9v0.2
		h6.8L414,308.4L414,308.4z"/>
	<path class="st2" d="M426.5,300.6c0,2.7-0.4,4.8-1.3,6.1c-0.9,1.3-2.3,2-4.2,2c-1.8,0-3.2-0.7-4.1-2c-0.9-1.4-1.4-3.4-1.4-6
		c0-2.8,0.4-4.8,1.3-6.1c0.9-1.3,2.3-2,4.1-2c1.8,0,3.2,0.7,4.1,2.1C426,295.9,426.5,297.9,426.5,300.6z M418.8,300.6
		c0,1.9,0.2,3.3,0.5,4.1c0.3,0.8,0.9,1.3,1.7,1.3c0.8,0,1.3-0.4,1.7-1.3s0.5-2.2,0.5-4.1s-0.2-3.3-0.5-4.2c-0.3-0.8-0.9-1.3-1.7-1.3
		c-0.8,0-1.3,0.4-1.7,1.3C419,297.3,418.8,298.6,418.8,300.6z"/>
	<path class="st2" d="M439.1,308.4h-11v-2.3l3.9-4c1.2-1.2,1.9-2,2.3-2.5s0.6-0.9,0.8-1.3s0.2-0.8,0.2-1.2c0-0.6-0.2-1.1-0.5-1.4
		s-0.8-0.5-1.4-0.5s-1.2,0.1-1.8,0.4s-1.2,0.7-1.8,1.2l-1.8-2.1c0.8-0.7,1.4-1.1,1.9-1.4s1.1-0.5,1.7-0.6s1.3-0.2,2-0.2
		c1,0,1.8,0.2,2.6,0.5s1.3,0.9,1.8,1.5s0.6,1.4,0.6,2.2c0,0.7-0.1,1.4-0.4,2s-0.6,1.3-1.2,1.9c-0.5,0.7-1.5,1.6-2.8,2.8l-2,1.9v0.2
		h6.8L439.1,308.4L439.1,308.4z"/>
	<path class="st2" d="M448.9,308.4h-3.3v-9.1v-1.5l0.1-1.6c-0.6,0.6-0.9,0.9-1.1,1.1l-1.8,1.5l-1.6-2l5.1-4h2.7v15.6H448.9z"/>
</g>
<line class="st3" x1="25.5" y1="136.6" x2="607.5" y2="136.6"/>
<line class="st4" x1="318.5" y1="25.6" x2="318.5" y2="136.6"/>
<line class="st5" x1="28" y1="39.1" x2="28" y2="137.1"/>
<line class="st5" x1="604" y1="38.1" x2="604" y2="136.1"/>
<path class="st6" d="M28,40.1c0,0,147.1,94,290-1"/>
<line class="st7" x1="65.5" y1="58.6" x2="65.5" y2="136.6"/>
<line class="st7" x1="101.5" y1="70.6" x2="101.5" y2="137.6"/>
<line class="st7" x1="136.5" y1="77.6" x2="136.5" y2="136.6"/>
<line class="st7" x1="171.5" y1="80.6" x2="171.5" y2="136.6"/>
<line class="st7" x1="207.5" y1="78.6" x2="208.5" y2="136.6"/>
<line class="st7" x1="243.5" y1="72.6" x2="243.5" y2="137.6"/>
<line class="st7" x1="279.5" y1="59.6" x2="279.5" y2="136.6"/>
<path class="st6" d="M604,39.1c0,0-145,94-286-1"/>
<line class="st7" x1="354.5" y1="58.1" x2="354.5" y2="136.1"/>
<line class="st7" x1="390.5" y1="71.1" x2="390.5" y2="138.1"/>
<line class="st7" x1="425.5" y1="78.1" x2="425.5" y2="137.1"/>
<line class="st7" x1="460.5" y1="80.1" x2="460.5" y2="136.1"/>
<line class="st7" x1="496.5" y1="77.1" x2="497.5" y2="135.1"/>
<line class="st7" x1="532.5" y1="70.1" x2="532.5" y2="135.1"/>
<line class="st7" x1="568.5" y1="58.1" x2="568.5" y2="135.1"/>
<rect x="24" y="256.8" class="st0" width="593" height="65.3"/>
<g class="st1">
	<path class="st2" d="M37.2,269.9c0,7.3-2.3,10.9-6.9,10.9h-3.9v-21.4h4c2.2,0,3.9,0.9,5.1,2.7C36.7,263.9,37.2,266.5,37.2,269.9z
		 M35.7,270c0-3-0.5-5.3-1.4-6.9c-0.9-1.6-2.2-2.4-4-2.4h-2.4v18.8h2.3c1.9,0,3.3-0.8,4.1-2.4C35.2,275.4,35.7,273.1,35.7,270z"/>
	<path class="st2" d="M40.8,260.5c0-0.4,0.1-0.8,0.3-1c0.2-0.2,0.4-0.4,0.7-0.4s0.5,0.1,0.6,0.4c0.2,0.2,0.2,0.6,0.2,1
		s-0.1,0.8-0.2,1c-0.2,0.2-0.4,0.4-0.6,0.4c-0.3,0-0.5-0.1-0.7-0.4C40.9,261.3,40.8,260.9,40.8,260.5z M42.4,280.8H41v-15.9h1.4
		V280.8z"/>
	<path class="st2" d="M52.9,280.8l-0.2-2.2h-0.1c-0.8,1.7-1.9,2.5-3.5,2.5c-1.1,0-1.9-0.4-2.5-1.2c-0.6-0.8-1-1.9-1-3.3
		c0-1.5,0.5-2.7,1.4-3.6s2.2-1.4,3.9-1.4l1.7-0.1v-1.4c0-1.5-0.2-2.6-0.6-3.2c-0.4-0.7-1-1-1.9-1s-1.9,0.3-2.8,0.9l-0.6-1.1
		c1.1-0.7,2.3-1,3.5-1c1.3,0,2.3,0.4,2.9,1.2c0.6,0.8,0.9,2.2,0.9,4.1v10.8L52.9,280.8L52.9,280.8z M49.5,279.9c1,0,1.8-0.5,2.4-1.5
		c0.6-1,0.8-2.4,0.8-4.2v-1.7l-1.7,0.1c-1.3,0.1-2.3,0.4-2.9,1.1c-0.6,0.6-0.9,1.6-0.9,2.8s0.2,2,0.6,2.5
		C48.2,279.6,48.8,279.9,49.5,279.9z"/>
	<path class="st2" d="M59.8,280.8h-1.4V258h1.4V280.8z"/>
	<path class="st2" d="M73.2,272.8c0,2.7-0.4,4.7-1.3,6.1s-2.1,2.1-3.7,2.1s-2.8-0.7-3.6-2.1c-0.8-1.4-1.3-3.5-1.3-6.1
		c0-5.5,1.6-8.2,4.9-8.2c1.5,0,2.8,0.7,3.6,2.2S73.2,270.2,73.2,272.8z M64.8,272.8c0,2.3,0.3,4,0.8,5.2c0.6,1.2,1.4,1.8,2.6,1.8
		c2.3,0,3.5-2.3,3.5-7c0-4.6-1.2-6.9-3.5-6.9c-1.2,0-2.1,0.6-2.6,1.7C65.1,268.8,64.8,270.5,64.8,272.8z"/>
	<path class="st2" d="M85.2,264.9v1l-2.2,0.2c0.3,0.4,0.5,0.9,0.7,1.6s0.3,1.4,0.3,2.2c0,1.5-0.4,2.8-1.1,3.8s-1.6,1.4-2.8,1.4h-0.4
		h-0.3c-0.5,0.3-0.8,0.7-1.1,1c-0.3,0.3-0.4,0.7-0.4,1.2c0,0.4,0.2,0.8,0.5,1c0.4,0.3,0.8,0.4,1.4,0.4h1c1.4,0,2.6,0.4,3.3,1.1
		c0.8,0.7,1.2,1.8,1.2,3.2c0,1.6-0.5,2.8-1.6,3.7s-2.5,1.4-4.2,1.4c-1.5,0-2.6-0.4-3.4-1.1s-1.2-1.8-1.2-3.1c0-1,0.3-1.8,0.8-2.6
		c0.5-0.7,1.3-1.3,2.4-1.7c-0.5-0.2-0.9-0.5-1.2-0.9s-0.5-0.8-0.5-1.4c0-0.5,0.2-0.9,0.5-1.3s0.8-0.8,1.4-1.2
		c-0.8-0.4-1.4-1-1.9-1.8c-0.5-0.8-0.4-1.8-0.4-2.9c0-1.7,0.4-3,1.1-4s1.7-1.5,3-1.5c0.7,0,1.2,0.1,1.7,0.3H85.2z M76.5,283.7
		c0,1,0.3,1.8,0.8,2.4s1.3,0.8,2.4,0.8c1.3,0,2.4-0.3,3.2-1s1.2-1.6,1.2-2.8c0-1-0.3-1.7-0.8-2.2s-1.3-0.8-2.3-0.8h-1
		c-1,0-1.8,0.3-2.4,1C76.8,281.7,76.5,282.6,76.5,283.7z M77.4,270.1c0,1.3,0.2,2.3,0.7,3c0.5,0.7,1.1,1,1.9,1
		c1.7,0,2.6-1.4,2.6-4.1c0-1.3-0.2-2.3-0.7-3.1c-0.4-0.7-1.1-1.1-1.9-1.1c-0.9,0-1.5,0.4-2,1.1S77.4,268.7,77.4,270.1z"/>
	<path class="st2" d="M89.1,264.9v10.4c0,1.6,0.2,2.7,0.6,3.4c0.4,0.7,1,1.1,1.8,1.1c1.2,0,2.1-0.5,2.7-1.5s0.9-2.5,0.9-4.7v-8.7
		h1.4v15.9h-1.2l-0.2-2.2H95c-0.3,0.8-0.8,1.4-1.4,1.9c-0.6,0.4-1.3,0.7-2,0.7c-1.3,0-2.2-0.5-2.8-1.4s-0.9-2.4-0.9-4.5v-10.4
		L89.1,264.9L89.1,264.9z"/>
	<path class="st2" d="M105.2,281.1c-1.7,0-3-0.7-3.9-2.1s-1.4-3.4-1.4-6c0-2.7,0.4-4.8,1.2-6.2s2-2.1,3.5-2.1c1.3,0,2.4,0.6,3.2,1.9
		c0.8,1.3,1.2,2.9,1.2,5.1v1.3h-7.6c0,2.3,0.4,4,1,5.2s1.6,1.7,2.9,1.7c1,0,2.1-0.3,3.2-1v1.3C107.5,280.8,106.4,281.1,105.2,281.1z
		 M104.6,265.9c-1.9,0-3,1.9-3.2,5.7h6.2c0-1.7-0.3-3.1-0.8-4.2C106.3,266.3,105.5,265.9,104.6,265.9z"/>
	<path class="st2" d="M115,278.1c-0.7,2.2-1.5,4.4-2.5,6.5h-0.9c0.7-2.5,1.2-4.8,1.5-6.9h1.7L115,278.1z"/>
	<path class="st2" d="M135.6,269.9c0,7.3-2.3,10.9-6.9,10.9h-3.9v-21.4h4c2.2,0,3.9,0.9,5.1,2.7
		C135.1,263.9,135.6,266.5,135.6,269.9z M134.1,270c0-3-0.5-5.3-1.4-6.9c-0.9-1.6-2.2-2.4-4-2.4h-2.4v18.8h2.3
		c1.9,0,3.3-0.8,4.1-2.4S134.1,273.1,134.1,270z"/>
	<path class="st2" d="M144,281.1c-1.7,0-3-0.7-3.9-2.1s-1.4-3.4-1.4-6c0-2.7,0.4-4.8,1.2-6.2s2-2.1,3.5-2.1c1.3,0,2.4,0.6,3.2,1.9
		c0.8,1.3,1.2,2.9,1.2,5.1v1.3h-7.6c0,2.3,0.4,4,1,5.2s1.6,1.7,2.9,1.7c1,0,2.1-0.3,3.2-1v1.3C146.2,280.8,145.1,281.1,144,281.1z
		 M143.3,265.9c-1.9,0-3,1.9-3.2,5.7h6.2c0-1.7-0.3-3.1-0.8-4.2C145,266.3,144.2,265.9,143.3,265.9z"/>
	<path class="st2" d="M152.7,280.8h-1.4V258h1.4V280.8z"/>
	<path class="st2" d="M156.8,260.5c0-0.4,0.1-0.8,0.3-1c0.2-0.2,0.4-0.4,0.7-0.4s0.5,0.1,0.6,0.4s0.2,0.6,0.2,1s-0.1,0.8-0.2,1
		c-0.2,0.2-0.4,0.4-0.6,0.4c-0.3,0-0.5-0.1-0.7-0.4C156.9,261.3,156.8,260.9,156.8,260.5z M158.5,280.8H157v-15.9h1.4v15.9H158.5z"
		/>
	<path class="st2" d="M167.8,264.6c3.2,0,4.7,2.7,4.7,8.2c0,2.7-0.4,4.7-1.2,6.2c-0.8,1.4-1.9,2.1-3.4,2.1c-0.8,0-1.5-0.2-2.1-0.6
		s-1.2-1-1.6-1.9h-0.1l-0.2,2.2h-1.2V258h1.4v7.1L164,267h0.1C165.1,265.4,166.3,264.6,167.8,264.6z M167.7,265.9
		c-1.2,0-2.1,0.5-2.7,1.6c-0.6,1.1-0.8,2.8-0.8,5.3v0.4c0,4.4,1.2,6.7,3.6,6.7c1.1,0,1.9-0.6,2.4-1.7s0.8-2.9,0.8-5.3
		c0-2.3-0.3-4-0.8-5.2C169.7,266.5,168.9,265.9,167.7,265.9z"/>
	<path class="st2" d="M180.6,281.1c-1.7,0-3-0.7-3.9-2.1s-1.4-3.4-1.4-6c0-2.7,0.4-4.8,1.2-6.2s2-2.1,3.5-2.1c1.3,0,2.4,0.6,3.2,1.9
		c0.8,1.3,1.2,2.9,1.2,5.1v1.3h-7.6c0,2.3,0.4,4,1,5.2s1.6,1.7,2.9,1.7c1,0,2.1-0.3,3.2-1v1.3C182.8,280.8,181.8,281.1,180.6,281.1z
		 M180,265.9c-1.9,0-3,1.9-3.2,5.7h6.2c0-1.7-0.3-3.1-0.8-4.2C181.7,266.3,180.9,265.9,180,265.9z"/>
	<path class="st2" d="M192.5,264.6c0.5,0,1,0.1,1.4,0.2l-0.3,1.4c-0.4-0.1-0.7-0.2-1.1-0.2c-0.5,0-1.1,0.3-1.5,0.8s-0.8,1.3-1.1,2.3
		s-0.4,2.1-0.4,3.3v8.4H188v-15.9h1.2l0.1,2.8h0.1C190.1,265.6,191.2,264.6,192.5,264.6z"/>
	<path class="st2" d="M202.5,280.8l-0.2-2.2h-0.1c-0.8,1.7-1.9,2.5-3.5,2.5c-1,0-1.9-0.4-2.5-1.2c-0.6-0.8-1-1.9-1-3.3
		c0-1.5,0.5-2.7,1.4-3.6s2.2-1.4,3.9-1.4l1.7-0.1v-1.4c0-1.5-0.2-2.6-0.6-3.2c-0.4-0.7-1-1-1.9-1s-1.9,0.3-2.8,0.9l-0.6-1.1
		c1.1-0.7,2.3-1,3.5-1c1.3,0,2.3,0.4,2.9,1.2c0.6,0.8,0.9,2.2,0.9,4.1v10.8L202.5,280.8L202.5,280.8z M199.1,279.9
		c1,0,1.8-0.5,2.4-1.5c0.6-1,0.8-2.4,0.8-4.2v-1.7l-1.7,0.1c-1.3,0.1-2.3,0.4-2.9,1.1c-0.6,0.6-0.9,1.6-0.9,2.8s0.2,2,0.6,2.5
		S198.4,279.9,199.1,279.9z"/>
	<path class="st2" d="M210.9,279.8c0.4,0,0.8-0.1,1.2-0.2v1.2c-0.4,0.2-1,0.3-1.7,0.3c-1.7,0-2.5-1.2-2.5-3.7v-11.3h-1.5v-0.8
		l1.4-0.4l0.5-3.8h1v3.8h2.6v1.2h-2.6V277c0,1.1,0.1,1.8,0.4,2.2C209.9,279.6,210.3,279.8,210.9,279.8z"/>
	<path class="st2" d="M214.4,260.5c0-0.4,0.1-0.8,0.3-1c0.2-0.2,0.4-0.4,0.7-0.4s0.5,0.1,0.6,0.4s0.2,0.6,0.2,1s-0.1,0.8-0.2,1
		c-0.2,0.2-0.4,0.4-0.6,0.4c-0.3,0-0.5-0.1-0.7-0.4C214.5,261.3,214.4,260.9,214.4,260.5z M216,280.8h-1.4v-15.9h1.4V280.8z"/>
	<path class="st2" d="M229.4,272.8c0,2.7-0.4,4.7-1.3,6.1c-0.9,1.4-2.1,2.1-3.7,2.1c-1.6,0-2.8-0.7-3.6-2.1s-1.3-3.5-1.3-6.1
		c0-5.5,1.6-8.2,4.9-8.2c1.5,0,2.8,0.7,3.6,2.2C229,268.2,229.4,270.2,229.4,272.8z M221.1,272.8c0,2.3,0.3,4,0.8,5.2
		s1.4,1.8,2.6,1.8c2.3,0,3.5-2.3,3.5-7c0-4.6-1.2-6.9-3.5-6.9c-1.2,0-2.1,0.6-2.6,1.7C221.4,268.7,221.1,270.5,221.1,272.8z"/>
	<path class="st2" d="M240.3,280.8v-11c0-2.6-0.8-4-2.4-4c-1.2,0-2.1,0.5-2.7,1.5c-0.6,1-0.8,2.6-0.8,4.7v8.7H233v-15.9h1.2l0.1,2.2
		h0.1c0.3-0.8,0.8-1.4,1.5-1.9c0.6-0.4,1.3-0.7,2-0.7c1.2,0,2.2,0.4,2.8,1.2c0.6,0.8,0.9,2.2,0.9,4v11h-1.3V280.8z"/>
	<path class="st2" d="M260.3,280.8l-1.5-2.6c-0.7,1.1-1.4,1.8-2.1,2.3s-1.5,0.6-2.4,0.6c-1.2,0-2.2-0.5-2.9-1.5s-1-2.3-1-4.1
		c0-0.9,0.1-1.7,0.3-2.4c0.2-0.7,0.5-1.3,1-1.9c0.4-0.6,1.1-1.3,2-2c-0.7-1.3-1.2-2.4-1.4-3.3c-0.2-0.8-0.3-1.8-0.3-2.8
		c0-1.3,0.3-2.3,0.8-3c0.5-0.7,1.2-1.1,2.1-1.1c0.9,0,1.6,0.4,2.1,1.1c0.5,0.7,0.8,1.8,0.8,3.1c0,1.3-0.2,2.5-0.6,3.4
		s-1,1.9-1.9,2.7l3.5,6.2c0.6-1.2,0.8-2.6,0.8-4.3h1.4c0,0.9-0.1,1.9-0.4,3c-0.3,1.1-0.6,2-1,2.7l2.3,3.8h-1.6V280.8z M251.9,275.6
		c0,1.3,0.2,2.3,0.7,3s1.1,1.1,1.9,1.1c0.7,0,1.4-0.2,1.9-0.7c0.6-0.4,1.1-1.1,1.7-2.1l-3.8-6.7c-0.9,0.9-1.6,1.7-1.9,2.5
		C252.1,273.5,251.9,274.5,251.9,275.6z M256.3,263.3c0-1.9-0.5-2.9-1.6-2.9c-0.5,0-0.8,0.2-1.1,0.7s-0.4,1.2-0.4,2.2
		c0,0.8,0.1,1.7,0.4,2.7c0.2,0.9,0.6,1.7,0.9,2.4c0.6-0.6,1.1-1.4,1.3-2.2C256,265.4,256.3,264.3,256.3,263.3z"/>
	<path class="st2" d="M276.1,260.4c-1.6,0-2.9,0.9-3.9,2.6s-1.4,4.1-1.4,7.1c0,2,0.2,3.7,0.7,5.1c0.4,1.5,1.1,2.6,1.9,3.4
		s1.8,1.2,2.9,1.2s2.1-0.2,2.9-0.6v1.3c-0.8,0.4-1.8,0.7-3,0.7c-1.4,0-2.6-0.4-3.6-1.3s-1.8-2.2-2.4-3.8c-0.6-1.7-0.8-3.6-0.8-5.9
		c0-3.4,0.6-6.1,1.9-8.1c1.2-2,2.9-2.9,5-2.9c1.3,0,2.5,0.3,3.5,0.9l-0.7,1.3C278.1,260.7,277.2,260.4,276.1,260.4z"/>
	<path class="st2" d="M291.6,272.8c0,2.7-0.4,4.7-1.3,6.1s-2.1,2.1-3.7,2.1s-2.8-0.7-3.6-2.1c-0.8-1.4-1.3-3.5-1.3-6.1
		c0-5.5,1.6-8.2,4.9-8.2c1.5,0,2.8,0.7,3.6,2.2C291.2,268.2,291.6,270.2,291.6,272.8z M283.3,272.8c0,2.3,0.3,4,0.8,5.2
		s1.4,1.8,2.6,1.8c2.3,0,3.5-2.3,3.5-7c0-4.6-1.2-6.9-3.5-6.9c-1.2,0-2.1,0.6-2.6,1.7C283.6,268.7,283.3,270.5,283.3,272.8z"/>
	<path class="st2" d="M302.5,280.8v-11c0-2.6-0.8-4-2.4-4c-1.2,0-2.1,0.5-2.7,1.5s-0.8,2.6-0.8,4.7v8.7h-1.4v-15.9h1.2l0.1,2.2h0.1
		c0.3-0.8,0.8-1.4,1.5-1.9c0.6-0.4,1.3-0.7,2-0.7c1.2,0,2.2,0.4,2.8,1.2c0.6,0.8,0.9,2.2,0.9,4v11h-1.3V280.8z"/>
	<path class="st2" d="M315.4,280.8v-11c0-2.6-0.8-4-2.4-4c-1.2,0-2.1,0.5-2.7,1.5s-0.8,2.6-0.8,4.7v8.7h-1.4v-15.9h1.2l0.1,2.2h0.1
		c0.3-0.8,0.8-1.4,1.5-1.9c0.6-0.4,1.3-0.7,2-0.7c1.2,0,2.2,0.4,2.8,1.2c0.6,0.8,0.9,2.2,0.9,4v11h-1.3V280.8z"/>
	<path class="st2" d="M325.6,281.1c-1.7,0-3-0.7-3.9-2.1s-1.4-3.4-1.4-6c0-2.7,0.4-4.8,1.2-6.2s2-2.1,3.5-2.1c1.3,0,2.4,0.6,3.2,1.9
		c0.8,1.3,1.2,2.9,1.2,5.1v1.3h-7.6c0,2.3,0.4,4,1,5.2s1.6,1.7,2.9,1.7c1,0,2.1-0.3,3.2-1v1.3C327.8,280.8,326.8,281.1,325.6,281.1z
		 M325,265.9c-1.9,0-3,1.9-3.2,5.7h6.2c0-1.7-0.3-3.1-0.8-4.2C326.7,266.3,325.9,265.9,325,265.9z"/>
	<path class="st2" d="M337.1,281.1c-1.6,0-2.8-0.7-3.6-2.1s-1.2-3.4-1.2-6.1s0.4-4.8,1.2-6.2c0.8-1.4,2-2.1,3.7-2.1
		c1,0,1.8,0.2,2.5,0.5l-0.5,1.2c-0.7-0.3-1.3-0.5-1.8-0.5c-2.4,0-3.6,2.3-3.6,7c0,4.6,1.2,6.9,3.6,6.9c0.7,0,1.5-0.2,2.3-0.5v1.2
		c-0.3,0.2-0.7,0.3-1.2,0.4C337.9,281,337.5,281.1,337.1,281.1z"/>
	<path class="st2" d="M345.4,279.8c0.4,0,0.8-0.1,1.2-0.2v1.2c-0.4,0.2-1,0.3-1.7,0.3c-1.7,0-2.5-1.2-2.5-3.7v-11.3h-1.5v-0.8
		l1.4-0.4l0.5-3.8h1v3.8h2.6v1.2h-2.6V277c0,1.1,0.1,1.8,0.4,2.2C344.4,279.6,344.8,279.8,345.4,279.8z"/>
	<path class="st2" d="M348.9,260.5c0-0.4,0.1-0.8,0.3-1c0.2-0.2,0.4-0.4,0.7-0.4c0.3,0,0.5,0.1,0.6,0.4s0.2,0.6,0.2,1
		s-0.1,0.8-0.2,1c-0.2,0.2-0.4,0.4-0.6,0.4c-0.3,0-0.5-0.1-0.7-0.4C349,261.3,348.9,260.9,348.9,260.5z M350.5,280.8h-1.4v-15.9h1.4
		V280.8z"/>
	<path class="st2" d="M363.9,272.8c0,2.7-0.4,4.7-1.3,6.1s-2.1,2.1-3.7,2.1s-2.8-0.7-3.6-2.1c-0.8-1.4-1.3-3.5-1.3-6.1
		c0-5.5,1.6-8.2,4.9-8.2c1.5,0,2.8,0.7,3.6,2.2C363.5,268.2,363.9,270.2,363.9,272.8z M355.5,272.8c0,2.3,0.3,4,0.8,5.2
		s1.4,1.8,2.6,1.8c2.3,0,3.5-2.3,3.5-7c0-4.6-1.2-6.9-3.5-6.9c-1.2,0-2.1,0.6-2.6,1.7C355.8,268.7,355.5,270.5,355.5,272.8z"/>
	<path class="st2" d="M374.7,280.8v-11c0-2.6-0.8-4-2.4-4c-1.2,0-2.1,0.5-2.7,1.5s-0.8,2.6-0.8,4.7v8.7h-1.4v-15.9h1.2l0.1,2.2h0.1
		c0.3-0.8,0.8-1.4,1.5-1.9c0.6-0.4,1.3-0.7,2-0.7c1.2,0,2.2,0.4,2.8,1.2c0.6,0.8,0.9,2.2,0.9,4v11h-1.3V280.8z"/>
	<path class="st2" d="M385.9,260.5c0-0.4,0.1-0.8,0.3-1c0.2-0.2,0.4-0.4,0.7-0.4c0.3,0,0.5,0.1,0.6,0.4s0.2,0.6,0.2,1
		s-0.1,0.8-0.2,1c-0.2,0.2-0.4,0.4-0.6,0.4c-0.3,0-0.5-0.1-0.7-0.4C386,261.3,385.9,260.9,385.9,260.5z M387.5,280.8h-1.4v-15.9h1.4
		V280.8z"/>
	<path class="st2" d="M399.1,280.8v-11c0-2.6-0.8-4-2.4-4c-1.2,0-2.1,0.5-2.7,1.5s-0.8,2.6-0.8,4.7v8.7h-1.4v-15.9h1.2l0.1,2.2h0.1
		c0.3-0.8,0.8-1.4,1.5-1.9c0.6-0.4,1.3-0.7,2-0.7c1.2,0,2.2,0.4,2.8,1.2c0.6,0.8,0.9,2.2,0.9,4v11h-1.3V280.8z"/>
	<path class="st2" d="M418.9,280.8L417,273h-5.3l-1.9,7.8h-1.5l5.2-21.4h1.5l5.4,21.4H418.9z M416.7,271.6l-1.9-8
		c-0.2-0.9-0.4-1.7-0.5-2.5c-0.1,0.8-0.2,1.7-0.4,2.5l-1.9,8H416.7z"/>
	<path class="st2" d="M426.7,281.1c-1.6,0-2.8-0.7-3.6-2.1s-1.2-3.4-1.2-6.1s0.4-4.8,1.2-6.2c0.8-1.4,2-2.1,3.7-2.1
		c1,0,1.8,0.2,2.5,0.5l-0.5,1.2c-0.7-0.3-1.3-0.5-1.8-0.5c-2.4,0-3.6,2.3-3.6,7c0,4.6,1.2,6.9,3.6,6.9c0.7,0,1.5-0.2,2.3-0.5v1.2
		c-0.3,0.2-0.7,0.3-1.2,0.4C427.5,281,427.1,281.1,426.7,281.1z"/>
	<path class="st2" d="M438.2,280.8l-0.2-2.2l0,0c-0.8,1.7-1.9,2.5-3.5,2.5c-1,0-1.9-0.4-2.5-1.2c-0.6-0.8-1-1.9-1-3.3
		c0-1.5,0.5-2.7,1.4-3.6s2.2-1.4,3.9-1.4l1.7-0.1v-1.4c0-1.5-0.2-2.6-0.6-3.2c-0.4-0.7-1-1-1.9-1s-1.9,0.3-2.8,0.9l-0.6-1.1
		c1.1-0.7,2.3-1,3.5-1c1.3,0,2.3,0.4,2.9,1.2c0.6,0.8,0.9,2.2,0.9,4.1v10.8L438.2,280.8L438.2,280.8z M434.8,279.9
		c1,0,1.8-0.5,2.4-1.5s0.8-2.4,0.8-4.2v-1.7l-1.7,0.1c-1.3,0.1-2.3,0.4-2.9,1.1c-0.6,0.6-0.9,1.6-0.9,2.8s0.2,2,0.6,2.5
		S434.1,279.9,434.8,279.9z"/>
	<path class="st2" d="M447.6,281.1c-3.1,0-4.7-2.7-4.7-8.2c0-2.7,0.4-4.7,1.2-6.2c0.8-1.4,1.9-2.1,3.5-2.1c0.7,0,1.4,0.2,2.1,0.6
		c0.6,0.4,1.2,1,1.6,1.7h0.1l-0.1-1.8V258h1.4v22.8h-1.2l-0.1-2.2h-0.1c-0.4,0.8-0.9,1.4-1.5,1.9
		C449.1,280.9,448.4,281.1,447.6,281.1z M447.7,279.9c1.1,0,2-0.5,2.6-1.5s0.9-2.5,0.9-4.5V273c0-2.4-0.3-4.2-0.9-5.3
		s-1.5-1.7-2.7-1.7s-2,0.6-2.5,1.8c-0.5,1.2-0.8,2.9-0.8,5.2c0,2.3,0.3,4,0.8,5.2C445.7,279.3,446.5,279.9,447.7,279.9z"/>
	<path class="st2" d="M461.5,281.1c-1.7,0-3-0.7-3.9-2.1s-1.4-3.4-1.4-6c0-2.7,0.4-4.8,1.2-6.2s2-2.1,3.5-2.1c1.3,0,2.4,0.6,3.2,1.9
		c0.8,1.3,1.2,2.9,1.2,5.1v1.3h-7.6c0,2.3,0.4,4,1,5.2s1.6,1.7,2.9,1.7c1,0,2.1-0.3,3.2-1v1.3C463.7,280.8,462.7,281.1,461.5,281.1z
		 M460.9,265.9c-1.9,0-3,1.9-3.2,5.7h6.2c0-1.7-0.3-3.1-0.8-4.2C462.6,266.3,461.8,265.9,460.9,265.9z"/>
	<path class="st2" d="M482.6,280.8V270c0-2.7-0.8-4-2.4-4c-1.1,0-1.9,0.5-2.4,1.4s-0.7,2.3-0.7,4.1v9.3h-1.4V270
		c0-1.3-0.2-2.4-0.6-3c-0.4-0.7-1-1-1.8-1c-1.1,0-1.8,0.5-2.3,1.4s-0.7,2.5-0.7,4.7v8.7h-1.4v-15.9h1.2l0.1,2.2h0.1
		c0.6-1.7,1.7-2.5,3.3-2.5c0.9,0,1.6,0.2,2.1,0.7s0.9,1.2,1.1,2.1c0.4-1,0.9-1.7,1.4-2.1c0.6-0.4,1.3-0.6,2.2-0.6
		c1.2,0,2.1,0.5,2.7,1.4s0.8,2.4,0.8,4.4v10.4L482.6,280.8L482.6,280.8z"/>
	<path class="st2" d="M488,260.5c0-0.4,0.1-0.8,0.3-1c0.2-0.2,0.4-0.4,0.7-0.4c0.3,0,0.5,0.1,0.6,0.4s0.2,0.6,0.2,1s-0.1,0.8-0.2,1
		c-0.2,0.2-0.4,0.4-0.6,0.4c-0.3,0-0.5-0.1-0.7-0.4C488.1,261.3,488,260.9,488,260.5z M489.7,280.8h-1.4v-15.9h1.4V280.8z"/>
	<path class="st2" d="M498.1,281.1c-1.6,0-2.8-0.7-3.6-2.1s-1.2-3.4-1.2-6.1s0.4-4.8,1.2-6.2c0.8-1.4,2-2.1,3.7-2.1
		c1,0,1.8,0.2,2.5,0.5l-0.5,1.2c-0.7-0.3-1.3-0.5-1.8-0.5c-2.4,0-3.6,2.3-3.6,7c0,4.6,1.2,6.9,3.6,6.9c0.7,0,1.5-0.2,2.3-0.5v1.2
		c-0.3,0.2-0.7,0.3-1.2,0.4C498.9,281,498.5,281.1,498.1,281.1z"/>
	<path class="st2" d="M509.4,280.8v-21.4h1.5v20h6.1v1.4H509.4z"/>
	<path class="st2" d="M519.5,260.5c0-0.4,0.1-0.8,0.3-1c0.2-0.2,0.4-0.4,0.7-0.4s0.5,0.1,0.6,0.4s0.2,0.6,0.2,1s-0.1,0.8-0.2,1
		c-0.2,0.2-0.4,0.4-0.6,0.4c-0.3,0-0.5-0.1-0.7-0.4C519.6,261.3,519.5,260.9,519.5,260.5z M521.1,280.8h-1.4v-15.9h1.4V280.8z"/>
	<path class="st2" d="M530.4,264.6c3.2,0,4.7,2.7,4.7,8.2c0,2.7-0.4,4.7-1.2,6.2c-0.8,1.4-1.9,2.1-3.4,2.1c-0.8,0-1.5-0.2-2.1-0.6
		s-1.2-1-1.6-1.9h-0.1l-0.2,2.2h-1.2V258h1.4v7.1l-0.1,1.9h0.1C527.7,265.4,528.9,264.6,530.4,264.6z M530.4,265.9
		c-1.2,0-2.1,0.5-2.7,1.6c-0.6,1.1-0.8,2.8-0.8,5.3v0.4c0,4.4,1.2,6.7,3.6,6.7c1.1,0,1.9-0.6,2.4-1.7s0.8-2.9,0.8-5.3
		c0-2.3-0.3-4-0.8-5.2C532.4,266.5,531.5,265.9,530.4,265.9z"/>
	<path class="st2" d="M543.2,264.6c0.5,0,1,0.1,1.4,0.2l-0.3,1.4c-0.4-0.1-0.7-0.2-1.1-0.2c-0.5,0-1.1,0.3-1.5,0.8s-0.8,1.3-1.1,2.3
		s-0.4,2.1-0.4,3.3v8.4h-1.4v-15.9h1.2l0.1,2.8h0.1C540.9,265.6,541.9,264.6,543.2,264.6z"/>
	<path class="st2" d="M553.2,280.8l-0.2-2.2l0,0c-0.8,1.7-1.9,2.5-3.5,2.5c-1,0-1.9-0.4-2.5-1.2c-0.6-0.8-1-1.9-1-3.3
		c0-1.5,0.5-2.7,1.4-3.6s2.2-1.4,3.9-1.4l1.7-0.1v-1.4c0-1.5-0.2-2.6-0.6-3.2c-0.4-0.7-1-1-1.9-1s-1.9,0.3-2.8,0.9l-0.6-1.1
		c1.1-0.7,2.3-1,3.5-1c1.3,0,2.3,0.4,2.9,1.2c0.6,0.8,0.9,2.2,0.9,4.1v10.8L553.2,280.8L553.2,280.8z M549.8,279.9
		c1,0,1.8-0.5,2.4-1.5c0.6-1,0.8-2.4,0.8-4.2v-1.7l-1.7,0.1c-1.3,0.1-2.3,0.4-2.9,1.1c-0.6,0.6-0.9,1.6-0.9,2.8s0.2,2,0.6,2.5
		S549.1,279.9,549.8,279.9z"/>
	<path class="st2" d="M563.1,264.6c0.5,0,1,0.1,1.4,0.2l-0.3,1.4c-0.4-0.1-0.7-0.2-1.1-0.2c-0.5,0-1.1,0.3-1.5,0.8s-0.8,1.3-1.1,2.3
		s-0.4,2.1-0.4,3.3v8.4h-1.4v-15.9h1.2l0.1,2.8h0.1C560.8,265.6,561.8,264.6,563.1,264.6z"/>
	<path class="st2" d="M566.8,260.5c0-0.4,0.1-0.8,0.3-1c0.2-0.2,0.4-0.4,0.7-0.4s0.5,0.1,0.6,0.4s0.2,0.6,0.2,1s-0.1,0.8-0.2,1
		c-0.2,0.2-0.4,0.4-0.6,0.4c-0.3,0-0.5-0.1-0.7-0.4C566.9,261.3,566.8,260.9,566.8,260.5z M568.4,280.8H567v-15.9h1.4V280.8z"/>
	<path class="st2" d="M577.3,281.1c-1.7,0-3-0.7-3.9-2.1s-1.4-3.4-1.4-6c0-2.7,0.4-4.8,1.2-6.2s2-2.1,3.5-2.1c1.3,0,2.4,0.6,3.2,1.9
		c0.8,1.3,1.2,2.9,1.2,5.1v1.3h-7.6c0,2.3,0.4,4,1,5.2s1.6,1.7,2.9,1.7c1,0,2.1-0.3,3.2-1v1.3C579.5,280.8,578.4,281.1,577.3,281.1z
		 M576.6,265.9c-1.9,0-3,1.9-3.2,5.7h6.2c0-1.7-0.3-3.1-0.8-4.2C578.3,266.3,577.6,265.9,576.6,265.9z"/>
	<path class="st2" d="M591,276.8c0,1.3-0.4,2.4-1.1,3.1c-0.7,0.8-1.7,1.1-3.1,1.1c-0.7,0-1.4-0.1-1.9-0.3c-0.6-0.2-1-0.4-1.3-0.6
		v-1.6c0.4,0.4,0.9,0.7,1.5,0.9c0.6,0.2,1.2,0.3,1.9,0.3c0.8,0,1.5-0.3,2-0.8s0.7-1.3,0.7-2.2c0-0.7-0.2-1.3-0.5-1.8s-1-1-2-1.6
		c-1.1-0.7-1.9-1.2-2.3-1.6c-0.4-0.4-0.7-0.9-0.9-1.4s-0.3-1.1-0.3-1.8c0-1.1,0.4-2.1,1.2-2.8c0.8-0.7,1.8-1.1,3-1.1
		c1.3,0,2.4,0.3,3.3,0.9l-0.7,1.2c-0.8-0.5-1.7-0.8-2.6-0.8c-0.8,0-1.5,0.2-2,0.7s-0.7,1.1-0.7,1.9c0,0.7,0.2,1.3,0.5,1.8
		s1.1,1,2.1,1.7c1.1,0.7,1.8,1.2,2.2,1.7c0.4,0.4,0.7,0.9,0.9,1.4C590.9,275.6,591,276.2,591,276.8z"/>
</g>
</svg>
