<?xml version="1.0" encoding="utf-8"?>
<!-- Generator: Adobe Illustrator 22.1.0, SVG Export Plug-In . SVG Version: 6.00 Build 0)  -->
<svg version="1.1" id="Layer_1" xmlns="http://www.w3.org/2000/svg" xmlns:xlink="http://www.w3.org/1999/xlink" x="0px" y="0px"
	 viewBox="0 0 1000 250" style="enable-background:new 0 0 1000 250;" xml:space="preserve">
<style type="text/css">
	.st0{fill:none;}
	.st1{fill:#FFFFFF;}
	.st2{font-family:'OpenSansCondensed-Light';}
	.st3{font-size:167.3044px;}
	.st4{letter-spacing:-4;}
	.st5{font-size:52.2826px;}
	.st6{letter-spacing:-1;}
	.st7{font-family:'OpenSans-LightItalic';}
	.st8{font-size:28.6021px;}
</style>
<rect x="170.6" y="5.9" class="st0" width="623.9" height="186.5"/>
<text transform="matrix(1 0 0 1 170.6431 133.0547)" class="st1 st2 st3 st4">Resilience:</text>
<rect x="167.4" y="13.5" class="st1" width="14.4" height="119.5"/>
<rect x="143.9" y="13.1" transform="matrix(0.9802 0.1981 -0.1981 0.9802 17.4372 -28.4796)" class="st1" width="14.4" height="119.5"/>
<rect x="116" y="16.2" transform="matrix(0.9017 0.4324 -0.4324 0.9017 44.9483 -45.7865)" class="st1" width="14.4" height="119.5"/>
<rect x="90.8" y="20" transform="matrix(0.8259 0.5638 -0.5638 0.8259 62.0387 -41.3699)" class="st1" width="14.4" height="119.5"/>
<rect x="58.2" y="26.5" transform="matrix(0.7071 0.7071 -0.7071 0.7071 80.1597 -20.9167)" class="st1" width="14.4" height="119.5"/>
<rect x="180.2" y="146.6" class="st0" width="501.3" height="137.9"/>
<text transform="matrix(1 0 0 1 180.228 186.3672)"><tspan x="0" y="0" class="st1 st2 st5 st6">Sustainable &amp; Thriving Academic </tspan><tspan x="0" y="57.5" class="st1 st2 st5 st6">Libraries for the Future</tspan></text>
<rect x="544.3" y="222.8" class="st0" width="404.7" height="70.1"/>
<text transform="matrix(1 0 0 1 544.2793 244.5264)" class="st1 st7 st8"></text>
</svg>
