<svg enable-background="new 0 0 1000 250" viewBox="0 0 1000 250" xml:space="preserve" xmlns="http://www.w3.org/2000/svg"><path d="m170.6 5.9h623.9v186.5h-623.9z" fill="none"/><g fill="#fff"><text font-family="'OpenSansCondensed-Light'" font-size="167.3044" letter-spacing="-4" transform="translate(170.6431 133.0547)">Resilience:</text><path d="m167.4 13.5h14.4v119.5h-14.4z"/><path d="m143.9 13.1h14.4v119.5h-14.4z" transform="matrix(.9802 .1981 -.1981 .9802 17.4372 -28.4796)"/><path d="m116 16.2h14.4v119.5h-14.4z" transform="matrix(.9017 .4324 -.4324 .9017 44.9483 -45.7865)"/><path d="m90.8 20h14.4v119.5h-14.4z" transform="matrix(.8259 .5638 -.5638 .8259 62.0387 -41.3699)"/><path d="m58.2 26.5h14.4v119.5h-14.4z" transform="matrix(.7071 .7071 -.7071 .7071 80.1597 -20.9167)"/></g><path d="m180.2 146.6h501.3v137.9h-501.3z" fill="none"/><text transform="translate(180.228 186.3672)"><tspan fill="#fff" font-family="'OpenSansCondensed-Light'" font-size="52.2826" letter-spacing="-1" x="0" y="0">Sustainable &amp; Thriving Academic </tspan><tspan fill="#fff" font-family="'OpenSansCondensed-Light'" font-size="52.2826" letter-spacing="-1" x="0" y="57.5">Libraries for the Future</tspan></text><path d="m544.3 222.8h404.7v70.1h-404.7z" fill="none"/><text fill="#fff" transform="translate(544.2793 244.5264)"/></svg>