<?xml version="1.0" encoding="utf-8"?>
<!-- Generator: Adobe Illustrator 25.2.0, SVG Export Plug-In . SVG Version: 6.00 Build 0)  -->
<svg version="1.1" id="Layer_1" xmlns="http://www.w3.org/2000/svg" xmlns:xlink="http://www.w3.org/1999/xlink" x="0px" y="0px"
	 viewBox="0 0 828.6 321.9" style="enable-background:new 0 0 828.6 321.9;" xml:space="preserve">
<style type="text/css">
	.st0{fill:#B2D0CE;}
	.st1{fill:#FFFFFF;}
</style>
<path class="st0" d="M828,48.3c0.1-4.2-1-8.3-3.4-11.8c-3.2,11.9-9.5,22.7-21.5,34.4C774.5,98.8,687.4,147.6,624,175.6
	c-167.1,73.8-335.9,118.3-436.9,118.3c-94.4,0-158.2-40.4-158.2-119.3c0-63.4,57.7-122.5,125.7-144.9C146.6,27,140,27,127.5,27
	C88.6,27,0,95.6,0,178c0,62.2,47.5,143.9,180.8,143.9c75.4,0,191.8-30.4,299.5-67.6c42.3-14.6,109.2-40.3,169.1-68.4
	C718,153.7,770,120.2,804.7,90.6C829.5,69.4,828,57.2,828,48.3z"/>
<path class="st1" d="M101.4,253.5l8.4,30h-8.7l-1.8-6.6h-9l-1.9,6.5H85l8.8-30L101.4,253.5z M91.1,274h7.4l-3.6-13.3L91.1,274z"/>
<path class="st1" d="M127.5,273.6l3.4,1v0.9c0,5.6-3.1,8.4-9.2,8.4c-7.3,0-11-3.7-11-11.1c-0.2-3.3,1-6.4,3.2-8.8
	c2.3-2.3,5.4-3.5,8.5-3.3c5.1,0,7.7,2.3,7.7,7l-3.7,1.8l0.1-2.1c0-3.2-1.1-4.8-3.2-4.8c-2.8,0-4.2,3.1-4.2,9.3
	c0,3.8,0.3,6.4,0.9,7.9c0.5,1.4,1.9,2.2,3.4,2.1c3,0,4.4-1.9,4.4-5.8C127.7,275.3,127.6,274.4,127.5,273.6z"/>
<path class="st1" d="M156.1,282.6c-1.8,0.7-3.8,1.1-5.7,1.2c-2.7,0-4.4-0.8-5.1-2.5c-1.4,1.8-3.5,2.8-5.8,2.6c-4.7,0-7-2.2-7-6.5
	c0-3.3,2.1-5.6,6.4-7c3.9-1.2,5.9-2.7,5.9-4.4c0-2.3-1.1-3.4-3.4-3.4c-2.6,0-3.9,1.1-3.9,3.3c0.1,0.9,0.3,1.9,0.6,2.7l-4-0.8
	c-0.1-0.6-0.1-1.3-0.1-1.9c0-3.5,3.2-5.2,9.6-5.2c6.1,0,9.1,1.6,9.1,4.9V279c0,1.4,0.4,2.1,1.3,2.1c0.5-0.1,0.9-0.2,1.2-0.5
	L156.1,282.6z M144.7,270.2c-0.5,0.6-1.1,1.1-1.7,1.4c-1.7,1-2.6,2.9-2.5,4.9c0,2.9,0.6,4.4,1.7,4.4c1.6,0,2.5-1.4,2.5-4.3
	L144.7,270.2z"/>
<path class="st1" d="M177.4,253.1v30.4h-8v-1.9c-1.3,1.6-3.3,2.5-5.4,2.4c-5,0-7.5-3.8-7.5-11.5c0-7.8,2.6-11.8,7.9-11.8
	c2,0,3.9,1,5,2.8v-10C171.8,253.5,174.5,253.3,177.4,253.1z M167,264c-1.3,0-2,1.2-2,3.7l-0.2,4.7l0.1,4.3c0,2.7,0.8,4.1,2.3,4.1
	c1.5,0,2.3-1.3,2.2-4l0.1-5.4l-0.2-3.7C169.1,265.2,168.3,264,167,264z"/>
<path class="st1" d="M197.7,275.4l3.2,0.9c-0.4,5.1-3.4,7.6-9.1,7.6c-7.4,0-11.1-3.7-11.1-11c-0.1-3.2,0.9-6.3,3-8.8
	c1.9-2.2,4.6-3.5,7.5-3.4c6.4,0,9.6,4.1,9.6,12.4h-11.7c0,5.8,1.5,8.7,4.4,8.7c2.7,0,4.1-1.6,4.1-4.9
	C197.7,276.4,197.7,275.9,197.7,275.4z M189.1,270.6h4.8c0-5.1-0.8-7.7-2.3-7.7s-2.2,1.9-2.4,5.8L189.1,270.6z"/>
<path class="st1" d="M236.7,283.4h-8v-16.6c0-1.4-0.4-2.1-1.2-2.1c-1.9,0-2.9,2.1-2.9,6.2v12.5h-8v-16.2c0-1.6-0.4-2.5-1.1-2.5
	c-2,0-3,2.1-3,6.2v12.5h-8.1v-22.2c2.7,0,5.4-0.2,8.1-0.5v3.8c1.5-2.3,4.2-3.7,6.9-3.8c2.3,0,4,1.2,5.2,3.5c1.5-2.2,4-3.6,6.6-3.6
	c3.7,0,5.6,1.9,5.6,5.6L236.7,283.4z"/>
<path class="st1" d="M241.3,283.4v-22.1c2.7,0,5.3-0.2,8-0.6v22.7H241.3z M245.4,252.8c2.5,0,3.7,1,3.7,2.9s-1.2,2.9-3.7,2.9
	s-3.7-1-3.7-2.9S242.9,252.8,245.4,252.8z"/>
<path class="st1" d="M269.6,273.6l3.4,1l0,0.9c0,5.6-3.1,8.4-9.2,8.4c-7.3,0-11-3.7-11-11.1c-0.2-3.3,1-6.4,3.2-8.8
	c2.3-2.3,5.4-3.5,8.5-3.3c5.1,0,7.7,2.3,7.7,7l-3.7,1.8l0-2.1c0-3.2-1.1-4.8-3.2-4.8c-2.8,0-4.2,3.1-4.2,9.3c0,3.8,0.3,6.4,0.9,7.9
	c0.5,1.4,1.9,2.2,3.4,2.1c3,0,4.4-1.9,4.4-5.8C269.8,275.3,269.7,274.4,269.6,273.6z"/>
<path class="st1" d="M298.4,253.5v26.9h12.3v3h-21v-30L298.4,253.5z"/>
<path class="st1" d="M312.6,283.4v-22.1c2.7,0,5.3-0.2,8-0.6v22.7H312.6z M316.7,252.8c2.5,0,3.7,1,3.7,2.9s-1.2,2.9-3.7,2.9
	s-3.7-1-3.7-2.9S314.2,252.8,316.7,252.8L316.7,252.8z"/>
<path class="st1" d="M325.4,283.4v-30c1.3,0,4-0.1,8-0.4v10.6c1.5-1.9,3.2-2.9,5-2.9c5.3,0,7.9,3.6,7.9,10.9
	c0,8.2-3.1,12.3-9.3,12.3c-2.9,0-5.5-1.4-7.5-4.2l-2,3.7L325.4,283.4z M335.9,264c-1.8,0-2.6,2.6-2.6,7.7c0,6,0.8,9,2.5,9
	c1.5,0,2.3-1.6,2.3-4.7l0.1-5.4l-0.1-3C337.8,265.2,337.1,264,335.9,264z"/>
<path class="st1" d="M365.9,269.4h-5.5c0.2-0.9,0.4-1.5,0.5-1.9c0.2-0.5,0.3-1.1,0.3-1.6c0-0.9-0.3-1.4-1-1.4s-1,0.6-1.5,1.8
	c-0.5,1.3-0.7,2.6-0.7,3.9v13.2h-8v-22.1h1.6c2.2,0,4.3-0.2,6.5-0.6v3.6c1.3-2.4,2.9-3.6,4.8-3.6c2.6,0,3.9,1.4,3.9,4.2
	c0,0.9-0.1,1.7-0.4,2.6C366.2,268,366.1,268.6,365.9,269.4z"/>
<path class="st1" d="M391.9,282.6c-1.8,0.7-3.8,1.1-5.7,1.2c-2.7,0-4.4-0.8-5.1-2.5c-1.4,1.8-3.5,2.8-5.8,2.6c-4.7,0-7-2.2-7-6.5
	c0-3.3,2.1-5.6,6.4-7c3.9-1.2,5.9-2.7,5.9-4.4c0-2.3-1.1-3.4-3.4-3.4c-2.6,0-3.9,1.1-3.9,3.3c0,0.9,0.2,1.9,0.6,2.7l-4-0.8
	c-0.1-0.6-0.1-1.3-0.1-1.9c0-3.5,3.2-5.2,9.6-5.2c6.1,0,9.1,1.6,9.1,4.9V279c0,1.4,0.4,2.1,1.3,2.1c0.5-0.1,0.9-0.2,1.2-0.5
	L391.9,282.6z M380.5,270.2c-0.5,0.6-1.1,1.1-1.7,1.4c-1.7,1-2.6,2.9-2.5,4.9c0,2.9,0.6,4.4,1.7,4.4c1.6,0,2.5-1.4,2.5-4.3
	L380.5,270.2z"/>
<path class="st1" d="M409.6,269.4h-5.5c0.2-0.9,0.4-1.5,0.5-1.9c0.2-0.5,0.3-1.1,0.3-1.6c0-0.9-0.3-1.4-1-1.4s-1,0.6-1.5,1.8
	c-0.5,1.3-0.7,2.6-0.7,3.9v13.2h-8v-22.1h1.6c2.2,0,4.3-0.2,6.5-0.6v3.6c1.3-2.4,2.9-3.6,4.8-3.6c2.6,0,3.9,1.4,3.9,4.2
	c0,0.9-0.1,1.7-0.4,2.6C409.9,268,409.8,268.6,409.6,269.4z"/>
<path class="st1" d="M431.8,261.3l-10.2,24.9c-1.4,3.4-3.3,5.2-5.6,5.2c-2,0.2-3.9-1-4.6-2.9l2.7-2c0.2,1.7,0.9,2.6,1.9,2.6
	s2.1-1,2.8-2.9l0.6-1.6l-8.9-23.2h8.8l4.5,13l5.1-13L431.8,261.3z"/>
<path class="st1" d="M461.4,253.5l8.4,30H461l-1.8-6.6h-9l-1.9,6.5h-3.4l8.8-30L461.4,253.5z M451,274h7.4l-3.5-13.3L451,274z"/>
<path class="st1" d="M489.1,267l-3.9,0.7c0-3.3-1.5-4.9-4.6-4.9c-1.9,0-2.8,0.8-2.8,2.3c0,1.1,1.6,2.4,4.8,3.7c5,2,7.5,4.6,7.5,7.7
	c0,5-3.2,7.5-9.5,7.5c-6.7,0-10.1-2.5-10.1-7.5l4.1-0.8c-0.1,0.4-0.1,0.9-0.1,1.3c0,1.3,0.6,2.5,1.6,3.4c1,0.9,2.4,1.4,3.8,1.4
	c1.9,0,2.9-0.8,2.9-2.4c0-1.1-1.5-2.3-4.7-3.6c-4.7-2-7-4.6-7-7.8c0-2.1,1-4,2.7-5.1c2.1-1.4,4.5-2.1,7-2
	C485.8,260.8,488.6,262.9,489.1,267z"/>
<path class="st1" d="M510.6,267l-3.9,0.7c0-3.3-1.5-4.9-4.6-4.9c-1.9,0-2.8,0.8-2.8,2.3c0,1.1,1.6,2.4,4.8,3.7c5,2,7.5,4.6,7.5,7.7
	c0,5-3.2,7.5-9.5,7.5c-6.7,0-10.1-2.5-10.1-7.5l4.1-0.8c-0.1,0.4-0.1,0.9-0.1,1.3c0,1.3,0.6,2.5,1.6,3.4c1,0.9,2.4,1.4,3.8,1.4
	c1.9,0,2.9-0.8,2.9-2.4c0-1.1-1.5-2.3-4.7-3.6c-4.7-2-7-4.6-7-7.8c0-2.1,1-4,2.7-5.1c2.1-1.4,4.5-2.1,7-2
	C507.3,260.8,510.1,262.9,510.6,267z"/>
<path class="st1" d="M524.8,260.8c7.3,0,11,3.9,11,11.6s-3.6,11.6-11,11.6c-7.3,0-11-3.9-11-11.6S517.4,260.8,524.8,260.8z
	 M524.8,262.8c-1.8,0-2.7,3.2-2.7,9.6c0,6.4,0.9,9.6,2.7,9.6c1.8,0,2.6-3.2,2.7-9.6C527.4,266,526.6,262.8,524.8,262.8L524.8,262.8z
	"/>
<path class="st1" d="M554.9,273.6l3.4,1v0.9c0,5.6-3.1,8.4-9.2,8.4c-7.3,0-11-3.7-11-11.1c-0.2-3.3,1-6.4,3.2-8.8
	c2.3-2.3,5.4-3.4,8.5-3.3c5.1,0,7.7,2.3,7.7,7l-3.7,1.8v-2.1c0-3.2-1.1-4.8-3.2-4.8c-2.8,0-4.2,3.1-4.2,9.3c0,3.8,0.3,6.4,0.9,7.9
	c0.5,1.4,1.9,2.2,3.4,2.1c2.9,0,4.4-1.9,4.4-5.8C555.1,275.3,555,274.4,554.9,273.6z"/>
<path class="st1" d="M561.3,283.4v-22.1c2.7,0,5.3-0.2,8-0.6v22.7H561.3z M565.4,252.8c2.5,0,3.7,1,3.7,2.9s-1.2,2.9-3.7,2.9
	s-3.7-1-3.7-2.9S562.9,252.8,565.4,252.8L565.4,252.8z"/>
<path class="st1" d="M596.2,282.6c-1.8,0.7-3.8,1.1-5.7,1.2c-2.7,0-4.4-0.8-5.1-2.5c-1.4,1.8-3.5,2.8-5.7,2.6c-4.7,0-7-2.1-7-6.5
	c0-3.3,2.1-5.6,6.4-7c3.9-1.2,5.9-2.7,5.9-4.4c0-2.3-1.1-3.4-3.3-3.4c-2.6,0-3.9,1.1-3.9,3.3c0.1,0.9,0.3,1.9,0.6,2.7l-3.9-0.8
	c-0.1-0.6-0.1-1.3-0.1-1.9c0-3.5,3.2-5.2,9.6-5.2c6.1,0,9.1,1.6,9.1,4.9V279c0,1.4,0.4,2.1,1.3,2.1c0.5,0,0.9-0.2,1.2-0.5
	L596.2,282.6z M584.8,270.2c-0.5,0.6-1.1,1.1-1.7,1.4c-1.7,1-2.6,2.9-2.5,4.9c0,2.9,0.6,4.4,1.7,4.4c1.6,0,2.5-1.4,2.5-4.3
	L584.8,270.2z"/>
<path class="st1" d="M609.7,261.4v2.5h-3.5v15.7c0,1,0.3,1.4,0.9,1.4c0.5,0,0.7-0.3,0.8-1l2.3,0.2c-0.6,2.3-2.6,3.4-6,3.4
	c-4,0-6-1.7-6-5.1v-14.7h-2.7v-2.5h2.7v-3.9c2.8-0.8,5.5-1.9,8-3.3v7.2L609.7,261.4z"/>
<path class="st1" d="M612.4,283.4v-22.1c2.7,0,5.3-0.2,8-0.6v22.7H612.4z M616.5,252.8c2.5,0,3.7,1,3.7,2.9s-1.2,2.9-3.7,2.9
	s-3.7-1-3.7-2.9S614,252.8,616.5,252.8L616.5,252.8z"/>
<path class="st1" d="M635,260.8c7.3,0,11,3.9,11,11.6s-3.7,11.6-11,11.6c-7.3,0-11-3.9-11-11.6S627.6,260.8,635,260.8z M635,262.8
	c-1.8,0-2.7,3.2-2.7,9.6c0,6.4,0.9,9.6,2.7,9.6c1.8,0,2.7-3.2,2.7-9.6C637.6,266,636.7,262.8,635,262.8L635,262.8z"/>
<path class="st1" d="M670.3,283.4h-8v-16.2c0-1.7-0.5-2.5-1.3-2.5s-1.8,0.7-2.5,2c-0.7,1.4-1,3-1,4.6v12.1h-8v-22.2
	c2.7,0,5.4-0.2,8-0.5v4.1c2-2.7,4.4-4.1,7.3-4.1c3.7,0,5.6,1.9,5.6,5.6L670.3,283.4z"/>
<path class="st1" d="M698.3,260.8c7.3,0,11,3.9,11,11.6s-3.7,11.6-11,11.6c-7.3,0-11-3.9-11-11.6S691,260.8,698.3,260.8z
	 M698.3,262.8c-1.8,0-2.7,3.2-2.7,9.6c0,6.4,0.9,9.6,2.7,9.6c1.8,0,2.7-3.2,2.7-9.6C701,266,700.1,262.8,698.3,262.8L698.3,262.8z"
	/>
<path class="st1" d="M724.3,261.3v2.5h-3.2v19.6h-8v-19.6h-2.8v-2.5h2.8v-2c0-1.7,0.7-3.4,1.9-4.5c1.3-1.2,3-1.8,4.8-1.8
	c3.9,0,5.8,1.4,5.8,4.3c0,0.2,0,0.5,0,0.8l-3.8,1.3c0.2-0.6,0.3-1.2,0.3-1.8c0-1.6-0.5-2.3-1.6-2.3s-1.4,0.7-1.4,2.1
	c0,0.9,0.7,2.1,2,3.9L724.3,261.3z"/>
<path class="st1" d="M753.1,253c8.7,0,13.1,5.2,13.1,15.5c0,10.3-4.4,15.5-13.3,15.4c-8.9,0-13.3-5.3-13.3-15.8
	C739.5,258,744.1,253,753.1,253z M752.9,255.4c-1.6,0-2.8,0.9-3.3,2.7c-0.6,1.8-0.9,5.3-0.9,10.4s0.3,8.5,0.9,10.3s1.7,2.7,3.3,2.7
	s2.7-0.9,3.3-2.7s0.9-5.3,0.9-10.3s-0.3-8.6-0.9-10.4S754.5,255.4,752.9,255.4L752.9,255.4z"/>
<path class="st1" d="M769.7,283.4v-30c2.4,0,5-0.1,8-0.4v12.1c1.4-2.7,4.3-4.4,7.3-4.3c3.7,0,5.6,1.7,5.6,5v17.7h-8v-16.8
	c0-1.3-0.4-1.9-1.2-1.9s-1.7,0.8-2.5,2.5c-0.8,1.7-1.2,3.5-1.1,5.3v11L769.7,283.4z"/>
<path class="st1" d="M795.1,283.4v-22.1c2.7,0,5.3-0.2,8-0.6v22.7H795.1z M799.2,252.8c2.5,0,3.7,1,3.7,2.9s-1.2,2.9-3.7,2.9
	s-3.7-1-3.7-2.9S796.7,252.8,799.2,252.8z"/>
<path class="st1" d="M817.7,260.8c7.3,0,11,3.9,11,11.6s-3.7,11.6-11,11.6c-7.3,0-11-3.9-11-11.6S810.3,260.7,817.7,260.8z
	 M817.7,262.8c-1.8,0-2.7,3.2-2.7,9.6c0,6.4,0.9,9.6,2.7,9.6c1.8,0,2.7-3.2,2.7-9.6C820.3,266,819.4,262.8,817.7,262.8L817.7,262.8z
	"/>
<path class="st1" d="M388.1,2l-86,218h-60.8L326.5,5.8C342.6,5.8,364.8,3.9,388.1,2z"/>
<path class="st1" d="M303.3,221.7h-64.6L325.4,4h1.2c15.3,0,36.2-1.7,58.3-3.5l5.9-0.5L303.3,221.7z M243.9,218.2h57L385.4,4h-0.2
	c-21.6,1.8-42.1,3.4-57.4,3.5L243.9,218.2z"/>
<path class="st1" d="M263.4,91.7c8.3-20.4-9.5-35.5-51.2-35.5c-46.2,0-75.9,12.1-86.1,37.3c-1.8,4.3-3.8,11.7-5.2,16.7l30.4,6.7
	c0.5-8.2,1.3-17.1,3.3-22.1c6.4-15.7,17.2-21.1,36.1-21.1c7.7,0,17.7,4.3,11,20.6c-5,12.3-20.3,21.6-52.1,30.4
	c-34.8,9.7-54.7,23.5-66.5,52.7c-9.9,24.5-1.9,46.5,31.7,46.5c18.3,0,34.7-6.3,49.3-19c-0.2,12.2,9.5,18.4,29.1,18.4
	c13.4,0,29.8-3.5,46.3-9.1v-19.5c-4.8,2.4-8.5,5-10.7,5c-4.4,0-8.2-0.7-4.1-10.7L263.4,91.7z M171.4,170.4
	c-7.2,18.4-15.9,27.5-26.1,27.5c-6.9,0-6.8-9.3,0.5-27.8c5.7-14.4,17-26.5,27.1-31.4c5-2.4,9.9-4.8,14.4-8.4L171.4,170.4z"/>
<path class="st1" d="M114.9,225.7c-15.5,0-26.9-4.7-32.8-13.5s-6.2-21.5-0.5-35.5C93,148.4,112,133.4,149.2,123
	c30.9-8.6,46.1-17.4,51-29.4c2.5-6.2,2.7-10.9,0.6-14c-2.6-3.8-7.9-4.2-10-4.2c-19,0-28.6,5.6-34.4,20c-1.6,3.8-2.6,10.9-3.2,21.5
	l-0.1,2l-34.2-7.5l0.5-1.8c1.4-5.2,3.5-12.5,5.3-16.9c10.3-25.5,39.8-38.4,87.7-38.4c26,0,44.3,5.9,51.5,16.7
	c4.1,6,4.5,13.4,1.3,21.2l-38.6,97.3c-2.1,5.3-1.6,7-1.3,7.5c0.5,0.8,2.2,0.9,3.8,0.9c1.1,0,3.5-1.3,6-2.7c1.2-0.6,2.5-1.4,3.9-2.1
	l2.5-1.3v23.6l-1.2,0.4c-17.8,6-34,9.2-46.8,9.2c-12.7,0-21.3-2.4-26.2-7.5c-2.4-2.5-4-5.6-4.4-9.1
	C148.4,219.9,132.4,225.7,114.9,225.7z M190.7,71.9c5.8,0,10.5,2.1,12.9,5.7c2.8,4.1,2.7,10-0.3,17.3c-5.3,13.2-21.2,22.6-53.3,31.5
	c-36,10-54.3,24.5-65.3,51.7c-5.2,12.8-5.2,24.3,0.2,32.2c5.4,7.9,15.6,11.9,29.9,11.9c17.7,0,33.9-6.2,48.1-18.6l3-2.6l-0.1,3.9
	c-0.1,4.2,1.1,7.6,3.7,10.1c4.2,4.3,12.2,6.4,23.7,6.4c12.2,0,27.6-3,44.5-8.6v-15.3l-1.3,0.7c-3.3,1.8-5.6,3.1-7.6,3.1
	c-2.5,0-5.2-0.2-6.7-2.4s-1.2-5.5,1-10.7L261.9,91c2.8-6.9,2.4-12.9-1-18c-6.6-9.7-23.9-15.1-48.7-15.1c-46.3,0-74.7,12.2-84.4,36.2
	c-1.5,3.7-3.3,9.8-4.6,14.7l26.6,5.8c0.7-10,1.7-16.6,3.3-20.6C159.4,78.3,170.3,71.9,190.7,71.9z M145.3,199.6
	c-2.1,0.1-4.2-0.9-5.4-2.6c-2.8-4.1-1.5-12.9,4.3-27.5c5.5-13.9,16.7-26.9,28-32.4l0.4-0.2c4.9-2.4,9.4-4.6,13.6-8l5.2-4.3
	L173.1,171C165.6,190,156.2,199.6,145.3,199.6z M183.5,135.1c-3,1.8-6.2,3.5-9.4,5l-0.4,0.2c-8.8,4.3-20.3,15.4-26.2,30.5
	c-6.8,17.1-5.8,22.5-4.7,24.2c0.6,0.8,1.5,1.2,2.5,1.1c9.4,0,17.6-8.9,24.5-26.4L183.5,135.1z"/>
<path class="st1" d="M512.3,91.7c8.3-20.4-9.5-35.5-51.2-35.5c-46.2,0-75.9,12.1-86.1,37.3c-1.8,4.3-3.8,11.7-5.2,16.7l30.4,6.7
	c0.5-8.2,1.3-17.1,3.3-22.1c6.3-15.8,17.2-21.1,36.1-21.1c7.7,0,17.7,4.3,11,20.6c-5,12.3-20.3,21.6-52.1,30.4
	c-34.8,9.7-54.7,23.5-66.5,52.7c-9.9,24.6-2,46.5,31.7,46.5c18.3,0,34.7-6.3,49.3-19c-0.2,12.2,9.5,18.4,29.1,18.4
	c13.4,0,29.8-3.5,46.3-9.1v-19.5c-4.8,2.4-8.5,5-10.7,5c-4.4,0-8.2-0.7-4.1-10.7L512.3,91.7z M420.3,170.4
	c-7.2,18.4-15.9,27.5-26.1,27.5c-6.9,0-6.8-9.3,0.5-27.8c5.7-14.4,17-26.5,27.1-31.4c5-2.4,10-4.8,14.4-8.4L420.3,170.4z"/>
<path class="st1" d="M363.8,225.7c-15.5,0-26.9-4.7-32.8-13.5s-6.2-21.5-0.5-35.5c11.4-28.3,30.4-43.3,67.6-53.7
	c30.9-8.6,46.1-17.4,51-29.4c2.5-6.2,2.7-10.9,0.6-14c-2.6-3.8-7.9-4.2-10-4.2c-19,0-28.6,5.6-34.4,20c-1.5,3.8-2.6,10.9-3.2,21.5
	l-0.1,2l-34.2-7.5l0.5-1.8c1.4-5.2,3.5-12.5,5.3-16.9c10.2-25.5,39.7-38.4,87.6-38.4c26,0,44.3,5.9,51.5,16.7
	c4.1,6,4.5,13.4,1.3,21.2l-38.6,97.3c-2.1,5.3-1.6,7-1.3,7.5c0.5,0.8,2.2,0.9,3.8,0.9c1.1,0,3.5-1.3,6-2.7c1.2-0.6,2.5-1.4,4-2.1
	l2.5-1.3v23.6l-1.2,0.4c-17.8,6-34,9.2-46.8,9.2c-12.7,0-21.3-2.4-26.2-7.5c-2.4-2.5-4-5.6-4.4-9.1
	C397.3,219.9,381.3,225.7,363.8,225.7z M439.7,71.9c5.8,0,10.5,2.1,12.9,5.7c2.8,4.1,2.7,10-0.3,17.3c-5.3,13.2-21.2,22.6-53.3,31.5
	c-36,10-54.3,24.5-65.3,51.7c-5.2,12.9-5.1,24.3,0.2,32.2s15.6,11.9,29.9,11.9c17.7,0,33.9-6.2,48.1-18.6l3-2.6l-0.1,3.9
	c-0.1,4.2,1.1,7.6,3.7,10.1c4.2,4.3,12.2,6.4,23.7,6.4c12.2,0,27.6-3,44.5-8.6v-15.4l-1.3,0.7c-3.3,1.8-5.6,3.1-7.6,3.1
	c-2.5,0-5.2-0.2-6.7-2.4s-1.2-5.5,1-10.7L510.7,91c2.8-6.9,2.4-12.9-1-18c-6.5-9.7-23.8-15.1-48.6-15.1c-46.3,0-74.7,12.2-84.4,36.2
	c-1.5,3.7-3.3,9.8-4.6,14.7l26.6,5.8c0.7-10,1.7-16.6,3.3-20.6C408.3,78.3,419.2,71.9,439.7,71.9z M394.2,199.6
	c-2.1,0.1-4.2-0.9-5.4-2.6c-2.8-4.1-1.5-12.9,4.3-27.5c5.5-13.9,16.7-26.9,28-32.4l0.5-0.2c4.9-2.4,9.5-4.6,13.6-8l5.2-4.3L422,171
	C414.5,190,405.1,199.6,394.2,199.6z M432.4,135.1c-3,1.8-6.2,3.5-9.4,5l-0.5,0.2c-8.8,4.3-20.3,15.4-26.2,30.5
	c-6.8,17.1-5.8,22.6-4.7,24.3c0.6,0.8,1.5,1.2,2.5,1.1c9.4,0,17.6-8.9,24.5-26.4L432.4,135.1z"/>
<path class="st1" d="M624.7,56.1c-53,0-89.5,23.9-113.9,84.3c-22.5,55.8-3.2,83.4,46.3,83.4c52.8,0,90.4-27.3,113-83.1
	S673.6,56.1,624.7,56.1z M607,140c-16.8,44-31.8,66.1-43.2,66.1c-11.6,0-6.7-22,10.1-65.9s31.6-65.9,43.3-65.9
	C628.7,74.2,623.8,96,607,140z"/>
<path class="st1" d="M557.1,225.5c-24.7,0-41.7-6.7-50.6-19.8c-10-14.8-9.1-37,2.6-65.9c23.9-59,59.5-85.4,115.5-85.4
	c24,0,40.6,6.7,49.5,19.8c10.2,15.1,9.4,37.7-2.5,67.1c-11.3,28-26.7,49.3-45.7,63.2S583.8,225.5,557.1,225.5z M624.7,57.9
	c-54.4,0-89,25.7-112.3,83.2c-11.2,27.8-12.2,48.9-3,62.6c8.2,12.1,24.2,18.3,47.7,18.3c52.6,0,89-26.8,111.3-82
	c11.2-27.8,12.2-49.9,2.8-63.8C663.1,64.1,647.4,57.9,624.7,57.9z M563.8,207.8c-2.5,0.2-4.8-1-6.2-3c-4.7-6.9-0.6-25.2,14.7-65.3
	c17-44.5,32.1-67.1,44.9-67.1c2.4-0.1,4.8,1,6.2,3c4.7,6.8,0.6,25.1-14.7,65.1C591.7,185.2,576.6,207.8,563.8,207.8z M617.2,76
	c-6.3,0-20.2,8.4-41.7,64.8c-9.6,25.2-20,54.9-15.1,62c0.8,1.1,2,1.7,3.4,1.5c10.7,0,25.8-23.7,41.6-65c9.6-25.1,19.9-54.8,15-61.9
	C619.6,76.4,618.4,75.8,617.2,76z"/>
</svg>
