<svg xmlns="http://www.w3.org/2000/svg" viewBox="0 0 800 300"><defs><style>.cls-1{opacity:0.34;}.cls-2{fill:#b2d0ce;}.cls-3{fill:#fff;}</style></defs><title>ALAO-logo-inverted</title><g id="Layer_3" data-name="Layer 3"><g class="cls-1"><path class="cls-2" d="M845.36,59.41A20.06,20.06,0,0,0,842,47.64c-3.2,11.9-9.52,22.66-21.55,34.36-28.66,27.85-115.71,76.74-179.09,104.74C474.26,260.54,305.41,305,204.41,305,110,305,46.26,264.59,46.26,185.7,46.26,122.27,104,63.21,172,40.85c-8.06-2.75-14.65-2.78-27.21-2.78-38.83,0-127.46,68.64-127.46,151C17.34,251.27,64.79,333,198.1,333c75.45,0,191.83-30.41,299.54-67.64,42.3-14.62,109.16-40.26,169.13-68.39,68.57-32.16,120.6-65.65,155.23-95.26C846.82,80.45,845.36,68.32,845.36,59.41Z" transform="translate(-17.34 -13.08)"/></g></g><g id="Layer_1" data-name="Layer 1"><path class="cls-3" d="M118.77,264.59l8.36,30h-8.71L116.63,288h-9l-1.88,6.51h-3.4l8.84-30Zm-10.32,20.48h7.36l-3.55-13.29Z" transform="translate(-17.34 -13.08)"/><path class="cls-3" d="M144.87,284.65l3.37,1.05,0,.9q0,8.44-9.21,8.44-11,0-11-11.09a12.16,12.16,0,0,1,3.19-8.83,11.31,11.31,0,0,1,8.54-3.3q7.67,0,7.67,6.95l-3.73,1.8.05-2.06q0-4.75-3.18-4.76-4.23,0-4.24,9.3,0,5.74.9,7.87a3.35,3.35,0,0,0,3.38,2.13q4.43,0,4.43-5.75A22.32,22.32,0,0,0,144.87,284.65Z" transform="translate(-17.34 -13.08)"/><path class="cls-3" d="M173.41,293.73a15.76,15.76,0,0,1-5.74,1.16q-4.08,0-5.07-2.54a6.75,6.75,0,0,1-5.76,2.63q-7,0-7-6.45,0-4.95,6.43-7c3.92-1.23,5.87-2.7,5.87-4.41,0-2.26-1.11-3.4-3.35-3.4q-3.93,0-3.93,3.27a8.79,8.79,0,0,0,.6,2.74l-4-.77a14.77,14.77,0,0,1-.13-1.93q0-5.24,9.6-5.24,9.12,0,9.12,4.89v13.42c0,1.39.43,2.08,1.3,2.08a2.58,2.58,0,0,0,1.25-.5Zm-11.35-12.48a6.71,6.71,0,0,1-1.71,1.43,5.17,5.17,0,0,0-2.46,4.86q0,4.4,1.69,4.39,2.47,0,2.48-4.34Z" transform="translate(-17.34 -13.08)"/><path class="cls-3" d="M194.75,264.15v30.39h-8v-1.89a6.71,6.71,0,0,1-5.43,2.39q-7.45,0-7.46-11.46,0-11.76,7.92-11.76a5.77,5.77,0,0,1,5,2.75v-10Q190.34,264.59,194.75,264.15Zm-10.4,10.9c-1.34,0-2,1.23-2,3.68l-.18,4.71.09,4.28q0,4.08,2.3,4.08t2.19-4l.14-5.44-.18-3.68C186.47,276.26,185.68,275.05,184.35,275.05Z" transform="translate(-17.34 -13.08)"/><path class="cls-3" d="M215,286.45l3.25.94q-.55,7.65-9.08,7.65-11.06,0-11.05-11a13,13,0,0,1,3-8.81,9.51,9.51,0,0,1,7.51-3.41q9.63,0,9.62,12.39H206.5q0,8.67,4.41,8.66c2.74,0,4.12-1.63,4.12-4.89C215,287.53,215,287,215,286.45Zm-8.53-4.76h4.81c0-5.14-.78-7.72-2.33-7.72s-2.2,1.92-2.39,5.75Z" transform="translate(-17.34 -13.08)"/><path class="cls-3" d="M254.05,294.54h-8V277.92c0-1.43-.42-2.15-1.25-2.15q-2.92,0-2.92,6.25v12.52h-8V278.29c0-1.65-.38-2.48-1.12-2.48-2,0-3,2.09-3,6.25v12.48h-8.05V272.35a61,61,0,0,0,8.05-.53v3.82a8.43,8.43,0,0,1,6.95-3.77q3.47,0,5.17,3.55a8,8,0,0,1,6.64-3.6c3.72,0,5.57,1.86,5.57,5.57Z" transform="translate(-17.34 -13.08)"/><path class="cls-3" d="M258.62,294.54v-22.1a60.07,60.07,0,0,0,8-.57v22.67Zm4.09-30.67c2.49,0,3.73.95,3.73,2.87s-1.24,2.91-3.73,2.91-3.72-1-3.72-2.91S260.23,263.87,262.71,263.87Z" transform="translate(-17.34 -13.08)"/><path class="cls-3" d="M286.9,284.65l3.37,1.05.05.9q0,8.44-9.21,8.44-11,0-11-11.09a12.16,12.16,0,0,1,3.19-8.83,11.31,11.31,0,0,1,8.54-3.3q7.67,0,7.67,6.95l-3.73,1.8.05-2.06q0-4.75-3.18-4.76-4.23,0-4.23,9.3,0,5.74.9,7.87a3.34,3.34,0,0,0,3.37,2.13c3,0,4.43-1.92,4.43-5.75A22.32,22.32,0,0,0,286.9,284.65Z" transform="translate(-17.34 -13.08)"/><path class="cls-3" d="M315.74,264.59v26.94H328v3h-21v-30Z" transform="translate(-17.34 -13.08)"/><path class="cls-3" d="M329.91,294.54v-22.1a60.07,60.07,0,0,0,8-.57v22.67Zm4.1-30.67c2.48,0,3.73.95,3.73,2.87s-1.25,2.91-3.73,2.91-3.73-1-3.73-2.91S331.52,263.87,334,263.87Z" transform="translate(-17.34 -13.08)"/><path class="cls-3" d="M342.74,294.54v-30q1.93,0,8-.44v10.63q2.24-2.91,5-2.91,7.88,0,7.87,10.85,0,12.33-9.34,12.32c-2.93,0-5.45-1.39-7.54-4.19l-2,3.69Zm10.53-19.45q-2.65,0-2.65,7.67c0,6,.84,9,2.54,9q2.29,0,2.3-4.72l.09-5.43-.13-3C355.17,276.28,354.45,275.09,353.27,275.09Z" transform="translate(-17.34 -13.08)"/><path class="cls-3" d="M383.2,280.48h-5.48q.33-1.29.51-1.92a5.24,5.24,0,0,0,.3-1.63c0-.92-.33-1.38-1-1.38s-1,.61-1.46,1.84a11.06,11.06,0,0,0-.69,3.91v13.24h-8v-22.1h1.58a43.64,43.64,0,0,0,6.47-.57v3.64q1.92-3.64,4.76-3.64,3.85,0,3.85,4.25a10.57,10.57,0,0,1-.35,2.57C383.58,279.08,383.42,279.68,383.2,280.48Z" transform="translate(-17.34 -13.08)"/><path class="cls-3" d="M409.21,293.73a15.72,15.72,0,0,1-5.74,1.16q-4.08,0-5.06-2.54a6.78,6.78,0,0,1-5.77,2.63q-7,0-7-6.45,0-4.95,6.42-7c3.92-1.23,5.87-2.7,5.87-4.41,0-2.26-1.11-3.4-3.35-3.4-2.62,0-3.92,1.09-3.92,3.27a8.72,8.72,0,0,0,.59,2.74l-3.95-.77a14.77,14.77,0,0,1-.13-1.93q0-5.24,9.6-5.24,9.12,0,9.12,4.89v13.42c0,1.39.43,2.08,1.3,2.08a2.58,2.58,0,0,0,1.25-.5Zm-11.35-12.48a6.71,6.71,0,0,1-1.71,1.43,5.17,5.17,0,0,0-2.46,4.86q0,4.4,1.69,4.39,2.47,0,2.48-4.34Z" transform="translate(-17.34 -13.08)"/><path class="cls-3" d="M426.89,280.48h-5.48q.33-1.29.51-1.92a5.24,5.24,0,0,0,.3-1.63c0-.92-.33-1.38-1-1.38s-1,.61-1.46,1.84a11.06,11.06,0,0,0-.69,3.91v13.24h-8v-22.1h1.58a43.64,43.64,0,0,0,6.47-.57v3.64q1.92-3.64,4.76-3.64,3.86,0,3.85,4.25a10.57,10.57,0,0,1-.35,2.57C427.27,279.08,427.11,279.68,426.89,280.48Z" transform="translate(-17.34 -13.08)"/><path class="cls-3" d="M449.18,272.44,439,297.37q-2.07,5.17-5.62,5.17a4.57,4.57,0,0,1-4.62-2.94l2.74-2c.25,1.71.87,2.56,1.88,2.56s2.07-1,2.79-2.92l.63-1.62-8.94-23.17h8.81l4.45,13,5.07-13Z" transform="translate(-17.34 -13.08)"/><path class="cls-3" d="M478.7,264.59l8.36,30h-8.71L476.56,288h-9l-1.88,6.51h-3.4l8.83-30Zm-10.32,20.48h7.36l-3.55-13.29Z" transform="translate(-17.34 -13.08)"/><path class="cls-3" d="M506.42,278.09l-3.9.68c0-3.28-1.53-4.93-4.59-4.93-1.88,0-2.82.78-2.82,2.32,0,1.15,1.61,2.37,4.84,3.69,5,2,7.46,4.62,7.46,7.74q0,7.5-9.48,7.5-10.06,0-10.06-7.5l4.12-.81a10.49,10.49,0,0,0-.09,1.33,4.34,4.34,0,0,0,1.63,3.35,5.57,5.57,0,0,0,3.77,1.41c1.94,0,2.91-.8,2.91-2.41,0-1.11-1.55-2.32-4.67-3.64q-7-3.07-7-7.78a6.12,6.12,0,0,1,2.68-5.13,11.37,11.37,0,0,1,7-2Q505.65,271.91,506.42,278.09Z" transform="translate(-17.34 -13.08)"/><path class="cls-3" d="M527.93,278.09l-3.9.68c0-3.28-1.53-4.93-4.59-4.93-1.88,0-2.82.78-2.82,2.32,0,1.15,1.61,2.37,4.84,3.69,5,2,7.46,4.62,7.46,7.74q0,7.5-9.48,7.5-10.07,0-10.06-7.5l4.12-.81a10.49,10.49,0,0,0-.09,1.33,4.34,4.34,0,0,0,1.63,3.35,5.55,5.55,0,0,0,3.77,1.41c1.94,0,2.91-.8,2.91-2.41,0-1.11-1.55-2.32-4.67-3.64q-7-3.07-7-7.78a6.12,6.12,0,0,1,2.68-5.13,11.37,11.37,0,0,1,7-2Q527.16,271.91,527.93,278.09Z" transform="translate(-17.34 -13.08)"/><path class="cls-3" d="M542.12,271.87q10.95,0,11,11.57t-11,11.6q-11,0-11-11.6T542.12,271.87Zm0,2q-2.7,0-2.7,9.6t2.7,9.61q2.64,0,2.65-9.61T542.12,273.84Z" transform="translate(-17.34 -13.08)"/><path class="cls-3" d="M572.24,284.65l3.38,1.05,0,.9q0,8.44-9.21,8.44-11,0-11-11.09a12.2,12.2,0,0,1,3.19-8.83,11.34,11.34,0,0,1,8.54-3.3q7.68,0,7.68,6.95l-3.73,1.8,0-2.06q0-4.75-3.18-4.76-4.23,0-4.23,9.3,0,5.74.9,7.87a3.34,3.34,0,0,0,3.38,2.13q4.42,0,4.43-5.75A20.84,20.84,0,0,0,572.24,284.65Z" transform="translate(-17.34 -13.08)"/><path class="cls-3" d="M578.6,294.54v-22.1a60,60,0,0,0,8-.57v22.67Zm4.1-30.67c2.49,0,3.73.95,3.73,2.87s-1.24,2.91-3.73,2.91-3.72-1-3.72-2.91S580.22,263.87,582.7,263.87Z" transform="translate(-17.34 -13.08)"/><path class="cls-3" d="M613.53,293.73a15.76,15.76,0,0,1-5.74,1.16q-4.08,0-5.07-2.54A6.76,6.76,0,0,1,597,295q-7,0-7-6.45,0-4.95,6.42-7,5.88-1.85,5.88-4.41c0-2.26-1.12-3.4-3.35-3.4q-3.93,0-3.93,3.27a9,9,0,0,0,.59,2.74l-3.94-.77a14.77,14.77,0,0,1-.13-1.93q0-5.24,9.6-5.24,9.12,0,9.12,4.89v13.42c0,1.39.43,2.08,1.29,2.08a2.51,2.51,0,0,0,1.25-.5Zm-11.36-12.48a6.39,6.39,0,0,1-1.71,1.43,5.19,5.19,0,0,0-2.45,4.86q0,4.4,1.69,4.39,2.47,0,2.47-4.34Z" transform="translate(-17.34 -13.08)"/><path class="cls-3" d="M627,272.48V275h-3.55v15.68c0,.95.32,1.42.94,1.42.46,0,.73-.33.82-1l2.3.25q-.94,3.44-6,3.44c-4,0-6-1.71-6-5.11V275h-2.65v-2.48h2.65v-3.9a35.21,35.21,0,0,0,8-3.27v7.17Z" transform="translate(-17.34 -13.08)"/><path class="cls-3" d="M629.74,294.54v-22.1a60.07,60.07,0,0,0,8-.57v22.67Zm4.1-30.67c2.48,0,3.72.95,3.72,2.87s-1.24,2.91-3.72,2.91-3.73-1-3.73-2.91S631.35,263.87,633.84,263.87Z" transform="translate(-17.34 -13.08)"/><path class="cls-3" d="M652.32,271.87q11,0,11,11.57t-11,11.6q-11,0-11-11.6T652.32,271.87Zm0,2q-2.7,0-2.7,9.6t2.7,9.61q2.65,0,2.65-9.61T652.32,273.84Z" transform="translate(-17.34 -13.08)"/><path class="cls-3" d="M687.66,294.54h-8v-16.2c0-1.68-.45-2.53-1.34-2.53s-1.78.66-2.45,2a9.93,9.93,0,0,0-1,4.62v12.13h-8.05V272.39a60.49,60.49,0,0,0,8.05-.52V276q3-4.12,7.28-4.12,5.56,0,5.56,5.65Z" transform="translate(-17.34 -13.08)"/><path class="cls-3" d="M715.69,271.87q11,0,11,11.57t-11,11.6q-11,0-11-11.6T715.69,271.87Zm0,2q-2.69,0-2.69,9.6t2.69,9.61q2.65,0,2.66-9.61T715.69,273.84Z" transform="translate(-17.34 -13.08)"/><path class="cls-3" d="M741.65,272.44v2.48h-3.2v19.62h-8V274.92h-2.78v-2.48h2.78v-2a5.92,5.92,0,0,1,1.93-4.52,6.82,6.82,0,0,1,4.8-1.79q5.79,0,5.79,4.34c0,.21,0,.48,0,.81l-3.77,1.34a7.26,7.26,0,0,0,.3-1.78c0-1.56-.53-2.34-1.6-2.34s-1.44.69-1.44,2.06c0,.85.67,2.13,2,3.86Z" transform="translate(-17.34 -13.08)"/><path class="cls-3" d="M770.45,264.08q13.06,0,13.07,15.51T770.23,295q-13.35,0-13.35-15.81Q756.88,264.08,770.45,264.08Zm-.22,2.39q-2.47,0-3.35,2.72c-.59,1.82-.88,5.28-.88,10.4s.29,8.53.88,10.34,1.7,2.72,3.35,2.72,2.7-.9,3.29-2.72.88-5.26.88-10.34-.3-8.58-.88-10.4S771.84,266.47,770.23,266.47Z" transform="translate(-17.34 -13.08)"/><path class="cls-3" d="M787,294.54v-30q3.56,0,8-.44v12.06a8.14,8.14,0,0,1,7.33-4.34q5.57,0,5.56,5v17.7h-8v-16.8c0-1.28-.42-1.93-1.25-1.93s-1.7.82-2.46,2.45a12.33,12.33,0,0,0-1.14,5.27v11Z" transform="translate(-17.34 -13.08)"/><path class="cls-3" d="M812.42,294.54v-22.1a60.07,60.07,0,0,0,8-.57v22.67Zm4.09-30.67c2.49,0,3.73.95,3.73,2.87s-1.24,2.91-3.73,2.91-3.72-1-3.72-2.91S814,263.87,816.51,263.87Z" transform="translate(-17.34 -13.08)"/><path class="cls-3" d="M835,271.87q11,0,11,11.57T835,295q-11,0-11-11.6T835,271.87Zm0,2q-2.69,0-2.69,9.6t2.69,9.61q2.65,0,2.66-9.61T835,273.84Z" transform="translate(-17.34 -13.08)"/><path class="cls-3" d="M405.39,13.08l-86,218H258.62l85.26-214.2C359.91,16.85,382.15,15,405.39,13.08Z" transform="translate(-17.34 -13.08)"/><path class="cls-3" d="M280.76,102.75c8.26-20.45-9.51-35.51-51.24-35.51-46.21,0-75.87,12.05-86.06,37.27-1.75,4.33-3.84,11.72-5.21,16.68l30.43,6.67c.48-8.23,1.33-17.14,3.34-22.1,6.35-15.72,17.17-21.05,36.06-21.05,7.69,0,17.66,4.28,11,20.64-5,12.34-20.26,21.57-52.12,30.43-34.83,9.71-54.66,23.5-66.46,52.69C90.63,213,98.58,235,132.24,235q27.38,0,49.3-19-.3,18.36,29.14,18.36c13.4,0,29.75-3.53,46.26-9.12V205.77c-4.78,2.43-8.48,5-10.7,5-4.41,0-8.17-.7-4.12-10.72Zm-92,78.72Q177.94,209,162.63,209q-10.42,0,.52-27.76c5.69-14.43,17-26.51,27.1-31.42,5-2.44,9.95-4.81,14.35-8.42Z" transform="translate(-17.34 -13.08)"/><path class="cls-3" d="M529.64,102.75c8.26-20.45-9.51-35.51-51.24-35.51-46.21,0-75.87,12.05-86.06,37.27-1.75,4.33-3.84,11.72-5.21,16.68l30.43,6.67c.48-8.23,1.33-17.14,3.34-22.1C427.25,90,438.07,84.71,457,84.71c7.69,0,17.66,4.28,11.05,20.64-5,12.34-20.26,21.57-52.12,30.43-34.83,9.71-54.66,23.5-66.46,52.69-9.92,24.57-2,46.53,31.69,46.53q27.38,0,49.3-19-.3,18.36,29.14,18.36c13.4,0,29.75-3.53,46.26-9.12V205.77c-4.78,2.43-8.48,5-10.7,5-4.41,0-8.17-.7-4.12-10.72Zm-92,78.72Q426.82,209,411.51,209q-10.42,0,.52-27.76c5.69-14.43,17-26.51,27.1-31.42,5-2.44,9.95-4.81,14.35-8.42Z" transform="translate(-17.34 -13.08)"/><path class="cls-3" d="M642.06,67.24c-53,0-89.52,23.9-113.92,84.3-22.55,55.81-3.18,83.35,46.33,83.35,52.76,0,90.41-27.32,113-83.14S690.91,67.24,642.06,67.24Zm-17.69,83.82c-16.75,44-31.76,66.12-43.22,66.12-11.64,0-6.68-22,10.07-65.94S622.87,85.3,634.51,85.3C646,85.3,641.12,107.1,624.37,151.06Z" transform="translate(-17.34 -13.08)"/></g></svg>