<?xml version="1.0" encoding="UTF-8" ?>
<svg width="185px" height="20px" viewBox="0 0 185 20" version="1.1" xmlns="http://www.w3.org/2000/svg" xmlns:xlink="http://www.w3.org/1999/xlink">
    <g id="Symbols" stroke="none" fill-opacity="1" stroke-width="1" fill="#000000" fill-rule="nonzero">
        <g id="global-/-header-/-navigation-/-dark-new-/-desktop" transform="translate(-113.5 -19.8) scale(1.34)">
                <path style="fill:#000000;fill-opacity:1;fill-rule:nonzero;stroke:none" d="M128.1474,14.7291 C130.634945,14.7291 132.188555,15.3769326 133.639701,16.5508342 L133.8464,16.7221 L131.8344,19.1511 C130.7124,18.2131 129.7224,17.6771 128.0404,17.6771 C125.785724,17.6771 123.981343,19.6073431 123.877153,21.9802071 L123.8724,22.1971 L123.8724,22.2351 C123.8724,24.8911 125.6944,26.8391 128.2654,26.8391 C129.331483,26.8391 130.290851,26.5928986 131.064168,26.1058876 L131.2704,25.9671 L131.2704,23.8941 L128.0594,23.8941 L128.0594,21.1351 L134.3604,21.1351 L134.3604,27.4371 C132.8754,28.7071 130.8174,29.7401 128.1694,29.7401 C123.730184,29.7401 120.657751,26.6903115 120.53897,22.5272068 L120.5354,22.2761 L120.5354,22.2351 C120.5354,18.1101 123.7514,14.7291 128.1474,14.7291 Z M155.3634,14.9801 L155.3634,23.1891 C155.3634,25.5541 156.5494,26.7741 158.4974,26.7741 C160.377262,26.7741 161.543973,25.6740762 161.622201,23.5262332 L161.6264,23.2921 L161.6264,14.9801 L164.8204,14.9801 L164.8204,23.1711 C164.8204,27.5631 162.3604,29.7211 158.4564,29.7211 C154.645096,29.7211 152.278853,27.6367664 152.177774,23.5504838 L152.1744,23.2751 L152.1744,14.9801 L155.3634,14.9801 Z M216.6004,14.9801 C219.929785,14.9801 221.968019,16.6927732 222.070355,19.5436746 L222.0744,19.7711 L222.0744,19.8091 C222.0744,22.0653222 220.903223,23.5138682 219.168077,24.2306389 L218.9654,24.3101 L222.5004,29.4921 L218.7754,29.4921 L215.6704,24.8461 L213.1534,24.8461 L213.1534,29.4921 L209.9644,29.4921 L209.9644,14.9801 L216.6004,14.9801 Z M207.0244,14.9801 L207.0244,17.8221 L199.2494,17.8221 L199.2494,20.7671 L206.0934,20.7671 L206.0934,23.6081 L199.2494,23.6081 L199.2494,26.6521 L207.1244,26.6521 L207.1244,29.4921 L196.0784,29.4921 L196.0784,14.9801 L207.0244,14.9801 Z M194.0484,14.9801 L194.0484,17.9251 L189.6264,17.9251 L189.6264,29.4921 L186.4364,29.4921 L186.4364,17.9251 L182.0254,17.9251 L182.0254,14.9801 L194.0484,14.9801 Z M170.0444,14.9801 L173.5074,20.8051 L177.0274,14.9801 L180.6584,14.9801 L175.0784,23.7111 L175.0784,29.4921 L171.8854,29.4921 L171.8854,23.7711 L166.3134,14.9801 L170.0444,14.9801 Z M144.0504,14.9801 C147.379785,14.9801 149.415171,16.6927732 149.51736,19.5436746 L149.5214,19.7711 L149.5214,19.8091 C149.5214,22.0653222 148.349296,23.5138682 146.612295,24.2306389 L146.4094,24.3101 L149.9564,29.4921 L146.2264,29.4921 L143.1164,24.8461 L140.6094,24.8461 L140.6094,29.4921 L137.4204,29.4921 L137.4204,14.9801 L144.0504,14.9801 Z M111.5884,14.9801 L111.5884,17.8221 L103.8154,17.8221 L103.8154,20.7671 L110.6564,20.7671 L110.6564,23.6081 L103.8154,23.6081 L103.8154,26.6521 L111.6914,26.6521 L111.6914,29.4921 L100.6424,29.4921 L100.6424,14.9801 L111.5884,14.9801 Z M84.8444,14.9801 L90.5064,14.9801 C94.978949,14.9801 98.0933666,17.9885583 98.213781,21.9578084 L98.2174,22.1971 L98.2174,22.2351 C98.2174,26.2409824 95.1906795,29.3673953 90.7731101,29.4884596 L90.5064,29.4921 L84.8444,29.4921 L84.8444,14.9801 L90.5064,14.9801 Z M90.5064,17.8631 L88.0404,17.8631 L88.0404,26.6121 L90.5064,26.6121 C93.0406059,26.6121 94.7778446,24.9484547 94.8778429,22.5007537 L94.8824,22.2761 L94.8824,22.2351 C94.8824,19.6681 93.1174,17.8631 90.5064,17.8631 Z M216.3294,17.8631 L213.1534,17.8631 L213.1534,22.0281 L216.3894,22.0281 C217.883442,22.0281 218.764909,21.2704177 218.83577,20.1282308 L218.8404,19.9771 L218.8404,19.9361 C218.8404,18.5681 217.8864,17.8631 216.3294,17.8631 Z M143.7764,17.8631 L140.6094,17.8631 L140.6094,22.0281 L143.8444,22.0281 C145.33365,22.0281 146.210325,21.2704177 146.280796,20.1282308 L146.2854,19.9771 L146.2854,19.9361 C146.2854,18.5681 145.3374,17.8631 143.7764,17.8631 Z" id="Combined-Shape" fill="#000000"></path>
        </g>
    </g>
</svg>
